%TF.GenerationSoftware,KiCad,Pcbnew,5.1.9+dfsg1-1*%
%TF.CreationDate,2021-12-02T00:27:29+01:00*%
%TF.ProjectId,RTMPin,52544d50-696e-42e6-9b69-6361645f7063,rev?*%
%TF.SameCoordinates,Original*%
%TF.FileFunction,Legend,Bot*%
%TF.FilePolarity,Positive*%
%FSLAX46Y46*%
G04 Gerber Fmt 4.6, Leading zero omitted, Abs format (unit mm)*
G04 Created by KiCad (PCBNEW 5.1.9+dfsg1-1) date 2021-12-02 00:27:29*
%MOMM*%
%LPD*%
G01*
G04 APERTURE LIST*
%ADD10C,0.120000*%
%ADD11C,0.150000*%
%ADD12C,4.300000*%
%ADD13C,2.700000*%
%ADD14C,3.000000*%
%ADD15R,1.800000X2.500000*%
%ADD16C,2.400000*%
%ADD17O,2.400000X1.600000*%
%ADD18R,2.400000X1.600000*%
%ADD19R,1.000000X1.000000*%
%ADD20C,4.000000*%
%ADD21R,4.000000X4.000000*%
%ADD22C,2.000000*%
%ADD23R,2.000000X2.000000*%
G04 APERTURE END LIST*
D10*
X140354267Y-56640000D02*
X140061733Y-56640000D01*
X140354267Y-57660000D02*
X140061733Y-57660000D01*
X130726949Y-113033198D02*
X130933802Y-113240051D01*
X131448198Y-112311949D02*
X131655051Y-112518802D01*
X137902733Y-94871000D02*
X138195267Y-94871000D01*
X137902733Y-93851000D02*
X138195267Y-93851000D01*
X139934733Y-72900000D02*
X140227267Y-72900000D01*
X139934733Y-71880000D02*
X140227267Y-71880000D01*
X167512000Y-130273000D02*
X164212000Y-130273000D01*
X164212000Y-130273000D02*
X164212000Y-124873000D01*
X167512000Y-130273000D02*
X167512000Y-124873000D01*
X139953276Y-54849500D02*
X140462724Y-54849500D01*
X139953276Y-55894500D02*
X140462724Y-55894500D01*
X101868500Y-55775776D02*
X101868500Y-56285224D01*
X100823500Y-55775776D02*
X100823500Y-56285224D01*
X92334000Y-70954000D02*
X95484000Y-70954000D01*
X92334000Y-69254000D02*
X95484000Y-69254000D01*
X92334000Y-70954000D02*
X92334000Y-69254000D01*
X92334000Y-67652000D02*
X95484000Y-67652000D01*
X92334000Y-65952000D02*
X95484000Y-65952000D01*
X92334000Y-67652000D02*
X92334000Y-65952000D01*
X92354000Y-64096000D02*
X95504000Y-64096000D01*
X92354000Y-62396000D02*
X95504000Y-62396000D01*
X92354000Y-64096000D02*
X92354000Y-62396000D01*
X92354000Y-60540000D02*
X95504000Y-60540000D01*
X92354000Y-58840000D02*
X95504000Y-58840000D01*
X92354000Y-60540000D02*
X92354000Y-58840000D01*
X154066000Y-52490000D02*
X150916000Y-52490000D01*
X154066000Y-54190000D02*
X150916000Y-54190000D01*
X154066000Y-52490000D02*
X154066000Y-54190000D01*
X167782000Y-52490000D02*
X164632000Y-52490000D01*
X167782000Y-54190000D02*
X164632000Y-54190000D01*
X167782000Y-52490000D02*
X167782000Y-54190000D01*
X92314000Y-103466000D02*
X95464000Y-103466000D01*
X92314000Y-101766000D02*
X95464000Y-101766000D01*
X92314000Y-103466000D02*
X92314000Y-101766000D01*
X92314000Y-99910000D02*
X95464000Y-99910000D01*
X92314000Y-98210000D02*
X95464000Y-98210000D01*
X92314000Y-99910000D02*
X92314000Y-98210000D01*
X92314000Y-96354000D02*
X95464000Y-96354000D01*
X92314000Y-94654000D02*
X95464000Y-94654000D01*
X92314000Y-96354000D02*
X92314000Y-94654000D01*
X92314000Y-92798000D02*
X95464000Y-92798000D01*
X92314000Y-91098000D02*
X95464000Y-91098000D01*
X92314000Y-92798000D02*
X92314000Y-91098000D01*
X92314000Y-89496000D02*
X95464000Y-89496000D01*
X92314000Y-87796000D02*
X95464000Y-87796000D01*
X92314000Y-89496000D02*
X92314000Y-87796000D01*
X92314000Y-85940000D02*
X95464000Y-85940000D01*
X92314000Y-84240000D02*
X95464000Y-84240000D01*
X92314000Y-85940000D02*
X92314000Y-84240000D01*
X92334000Y-128866000D02*
X95484000Y-128866000D01*
X92334000Y-127166000D02*
X95484000Y-127166000D01*
X92334000Y-128866000D02*
X92334000Y-127166000D01*
X92314000Y-125310000D02*
X95464000Y-125310000D01*
X92314000Y-123610000D02*
X95464000Y-123610000D01*
X92314000Y-125310000D02*
X92314000Y-123610000D01*
X92334000Y-121754000D02*
X95484000Y-121754000D01*
X92334000Y-120054000D02*
X95484000Y-120054000D01*
X92334000Y-121754000D02*
X92334000Y-120054000D01*
X92334000Y-118198000D02*
X95484000Y-118198000D01*
X92334000Y-116498000D02*
X95484000Y-116498000D01*
X92334000Y-118198000D02*
X92334000Y-116498000D01*
X92334000Y-114896000D02*
X95484000Y-114896000D01*
X92334000Y-113196000D02*
X95484000Y-113196000D01*
X92334000Y-114896000D02*
X92334000Y-113196000D01*
X92314000Y-111340000D02*
X95464000Y-111340000D01*
X92314000Y-109640000D02*
X95464000Y-109640000D01*
X92314000Y-111340000D02*
X92314000Y-109640000D01*
X110632000Y-53760000D02*
X107482000Y-53760000D01*
X110632000Y-55460000D02*
X107482000Y-55460000D01*
X110632000Y-53760000D02*
X110632000Y-55460000D01*
X103888000Y-55834233D02*
X103888000Y-56126767D01*
X102868000Y-55834233D02*
X102868000Y-56126767D01*
D11*
X137571857Y-58315142D02*
X137619476Y-58362761D01*
X137762333Y-58410380D01*
X137857571Y-58410380D01*
X138000428Y-58362761D01*
X138095666Y-58267523D01*
X138143285Y-58172285D01*
X138190904Y-57981809D01*
X138190904Y-57838952D01*
X138143285Y-57648476D01*
X138095666Y-57553238D01*
X138000428Y-57458000D01*
X137857571Y-57410380D01*
X137762333Y-57410380D01*
X137619476Y-57458000D01*
X137571857Y-57505619D01*
X136714714Y-57743714D02*
X136714714Y-58410380D01*
X136952809Y-57362761D02*
X137190904Y-58077047D01*
X136571857Y-58077047D01*
X136000428Y-57410380D02*
X135905190Y-57410380D01*
X135809952Y-57458000D01*
X135762333Y-57505619D01*
X135714714Y-57600857D01*
X135667095Y-57791333D01*
X135667095Y-58029428D01*
X135714714Y-58219904D01*
X135762333Y-58315142D01*
X135809952Y-58362761D01*
X135905190Y-58410380D01*
X136000428Y-58410380D01*
X136095666Y-58362761D01*
X136143285Y-58315142D01*
X136190904Y-58219904D01*
X136238523Y-58029428D01*
X136238523Y-57791333D01*
X136190904Y-57600857D01*
X136143285Y-57505619D01*
X136095666Y-57458000D01*
X136000428Y-57410380D01*
X131416029Y-115815106D02*
X131416029Y-115882450D01*
X131483373Y-116017137D01*
X131550716Y-116084480D01*
X131685403Y-116151824D01*
X131820090Y-116151824D01*
X131921105Y-116118152D01*
X132089464Y-116017137D01*
X132190479Y-115916122D01*
X132291495Y-115747763D01*
X132325166Y-115646748D01*
X132325166Y-115512061D01*
X132257823Y-115377374D01*
X132190479Y-115310030D01*
X132055792Y-115242687D01*
X131988449Y-115242687D01*
X131820090Y-114939641D02*
X131382357Y-114501908D01*
X131348686Y-115006984D01*
X131247670Y-114905969D01*
X131146655Y-114872297D01*
X131079311Y-114872297D01*
X130978296Y-114905969D01*
X130809937Y-115074328D01*
X130776266Y-115175343D01*
X130776266Y-115242687D01*
X130809937Y-115343702D01*
X131011968Y-115545732D01*
X131112983Y-115579404D01*
X131180327Y-115579404D01*
X130338533Y-114872297D02*
X130203846Y-114737610D01*
X130170174Y-114636595D01*
X130170174Y-114569251D01*
X130203846Y-114400893D01*
X130304861Y-114232534D01*
X130574235Y-113963160D01*
X130675250Y-113929488D01*
X130742594Y-113929488D01*
X130843609Y-113963160D01*
X130978296Y-114097847D01*
X131011968Y-114198862D01*
X131011968Y-114266206D01*
X130978296Y-114367221D01*
X130809937Y-114535580D01*
X130708922Y-114569251D01*
X130641579Y-114569251D01*
X130540563Y-114535580D01*
X130405876Y-114400893D01*
X130372205Y-114299877D01*
X130372205Y-114232534D01*
X130405876Y-114131519D01*
X141762857Y-94891142D02*
X141810476Y-94938761D01*
X141953333Y-94986380D01*
X142048571Y-94986380D01*
X142191428Y-94938761D01*
X142286666Y-94843523D01*
X142334285Y-94748285D01*
X142381904Y-94557809D01*
X142381904Y-94414952D01*
X142334285Y-94224476D01*
X142286666Y-94129238D01*
X142191428Y-94034000D01*
X142048571Y-93986380D01*
X141953333Y-93986380D01*
X141810476Y-94034000D01*
X141762857Y-94081619D01*
X141429523Y-93986380D02*
X140810476Y-93986380D01*
X141143809Y-94367333D01*
X141000952Y-94367333D01*
X140905714Y-94414952D01*
X140858095Y-94462571D01*
X140810476Y-94557809D01*
X140810476Y-94795904D01*
X140858095Y-94891142D01*
X140905714Y-94938761D01*
X141000952Y-94986380D01*
X141286666Y-94986380D01*
X141381904Y-94938761D01*
X141429523Y-94891142D01*
X139858095Y-94986380D02*
X140429523Y-94986380D01*
X140143809Y-94986380D02*
X140143809Y-93986380D01*
X140239047Y-94129238D01*
X140334285Y-94224476D01*
X140429523Y-94272095D01*
X141413666Y-74317142D02*
X141461285Y-74364761D01*
X141604142Y-74412380D01*
X141699380Y-74412380D01*
X141842238Y-74364761D01*
X141937476Y-74269523D01*
X141985095Y-74174285D01*
X142032714Y-73983809D01*
X142032714Y-73840952D01*
X141985095Y-73650476D01*
X141937476Y-73555238D01*
X141842238Y-73460000D01*
X141699380Y-73412380D01*
X141604142Y-73412380D01*
X141461285Y-73460000D01*
X141413666Y-73507619D01*
X140461285Y-74412380D02*
X141032714Y-74412380D01*
X140747000Y-74412380D02*
X140747000Y-73412380D01*
X140842238Y-73555238D01*
X140937476Y-73650476D01*
X141032714Y-73698095D01*
X163924380Y-126085714D02*
X162924380Y-126085714D01*
X162924380Y-126323809D01*
X162972000Y-126466666D01*
X163067238Y-126561904D01*
X163162476Y-126609523D01*
X163352952Y-126657142D01*
X163495809Y-126657142D01*
X163686285Y-126609523D01*
X163781523Y-126561904D01*
X163876761Y-126466666D01*
X163924380Y-126323809D01*
X163924380Y-126085714D01*
X163019619Y-127038095D02*
X162972000Y-127085714D01*
X162924380Y-127180952D01*
X162924380Y-127419047D01*
X162972000Y-127514285D01*
X163019619Y-127561904D01*
X163114857Y-127609523D01*
X163210095Y-127609523D01*
X163352952Y-127561904D01*
X163924380Y-126990476D01*
X163924380Y-127609523D01*
X162924380Y-128466666D02*
X162924380Y-128276190D01*
X162972000Y-128180952D01*
X163019619Y-128133333D01*
X163162476Y-128038095D01*
X163352952Y-127990476D01*
X163733904Y-127990476D01*
X163829142Y-128038095D01*
X163876761Y-128085714D01*
X163924380Y-128180952D01*
X163924380Y-128371428D01*
X163876761Y-128466666D01*
X163829142Y-128514285D01*
X163733904Y-128561904D01*
X163495809Y-128561904D01*
X163400571Y-128514285D01*
X163352952Y-128466666D01*
X163305333Y-128371428D01*
X163305333Y-128180952D01*
X163352952Y-128085714D01*
X163400571Y-128038095D01*
X163495809Y-127990476D01*
X137571857Y-55870380D02*
X137905190Y-55394190D01*
X138143285Y-55870380D02*
X138143285Y-54870380D01*
X137762333Y-54870380D01*
X137667095Y-54918000D01*
X137619476Y-54965619D01*
X137571857Y-55060857D01*
X137571857Y-55203714D01*
X137619476Y-55298952D01*
X137667095Y-55346571D01*
X137762333Y-55394190D01*
X138143285Y-55394190D01*
X136714714Y-55203714D02*
X136714714Y-55870380D01*
X136952809Y-54822761D02*
X137190904Y-55537047D01*
X136571857Y-55537047D01*
X135714714Y-54870380D02*
X136190904Y-54870380D01*
X136238523Y-55346571D01*
X136190904Y-55298952D01*
X136095666Y-55251333D01*
X135857571Y-55251333D01*
X135762333Y-55298952D01*
X135714714Y-55346571D01*
X135667095Y-55441809D01*
X135667095Y-55679904D01*
X135714714Y-55775142D01*
X135762333Y-55822761D01*
X135857571Y-55870380D01*
X136095666Y-55870380D01*
X136190904Y-55822761D01*
X136238523Y-55775142D01*
X100424380Y-57029333D02*
X99948190Y-56696000D01*
X100424380Y-56457904D02*
X99424380Y-56457904D01*
X99424380Y-56838857D01*
X99472000Y-56934095D01*
X99519619Y-56981714D01*
X99614857Y-57029333D01*
X99757714Y-57029333D01*
X99852952Y-56981714D01*
X99900571Y-56934095D01*
X99948190Y-56838857D01*
X99948190Y-56457904D01*
X99424380Y-57934095D02*
X99424380Y-57457904D01*
X99900571Y-57410285D01*
X99852952Y-57457904D01*
X99805333Y-57553142D01*
X99805333Y-57791238D01*
X99852952Y-57886476D01*
X99900571Y-57934095D01*
X99995809Y-57981714D01*
X100233904Y-57981714D01*
X100329142Y-57934095D01*
X100376761Y-57886476D01*
X100424380Y-57791238D01*
X100424380Y-57553142D01*
X100376761Y-57457904D01*
X100329142Y-57410285D01*
X99027285Y-70602380D02*
X99027285Y-69602380D01*
X98789190Y-69602380D01*
X98646333Y-69650000D01*
X98551095Y-69745238D01*
X98503476Y-69840476D01*
X98455857Y-70030952D01*
X98455857Y-70173809D01*
X98503476Y-70364285D01*
X98551095Y-70459523D01*
X98646333Y-70554761D01*
X98789190Y-70602380D01*
X99027285Y-70602380D01*
X98122523Y-69602380D02*
X97503476Y-69602380D01*
X97836809Y-69983333D01*
X97693952Y-69983333D01*
X97598714Y-70030952D01*
X97551095Y-70078571D01*
X97503476Y-70173809D01*
X97503476Y-70411904D01*
X97551095Y-70507142D01*
X97598714Y-70554761D01*
X97693952Y-70602380D01*
X97979666Y-70602380D01*
X98074904Y-70554761D01*
X98122523Y-70507142D01*
X96884428Y-69602380D02*
X96789190Y-69602380D01*
X96693952Y-69650000D01*
X96646333Y-69697619D01*
X96598714Y-69792857D01*
X96551095Y-69983333D01*
X96551095Y-70221428D01*
X96598714Y-70411904D01*
X96646333Y-70507142D01*
X96693952Y-70554761D01*
X96789190Y-70602380D01*
X96884428Y-70602380D01*
X96979666Y-70554761D01*
X97027285Y-70507142D01*
X97074904Y-70411904D01*
X97122523Y-70221428D01*
X97122523Y-69983333D01*
X97074904Y-69792857D01*
X97027285Y-69697619D01*
X96979666Y-69650000D01*
X96884428Y-69602380D01*
X99154285Y-67300380D02*
X99154285Y-66300380D01*
X98916190Y-66300380D01*
X98773333Y-66348000D01*
X98678095Y-66443238D01*
X98630476Y-66538476D01*
X98582857Y-66728952D01*
X98582857Y-66871809D01*
X98630476Y-67062285D01*
X98678095Y-67157523D01*
X98773333Y-67252761D01*
X98916190Y-67300380D01*
X99154285Y-67300380D01*
X98201904Y-66395619D02*
X98154285Y-66348000D01*
X98059047Y-66300380D01*
X97820952Y-66300380D01*
X97725714Y-66348000D01*
X97678095Y-66395619D01*
X97630476Y-66490857D01*
X97630476Y-66586095D01*
X97678095Y-66728952D01*
X98249523Y-67300380D01*
X97630476Y-67300380D01*
X97154285Y-67300380D02*
X96963809Y-67300380D01*
X96868571Y-67252761D01*
X96820952Y-67205142D01*
X96725714Y-67062285D01*
X96678095Y-66871809D01*
X96678095Y-66490857D01*
X96725714Y-66395619D01*
X96773333Y-66348000D01*
X96868571Y-66300380D01*
X97059047Y-66300380D01*
X97154285Y-66348000D01*
X97201904Y-66395619D01*
X97249523Y-66490857D01*
X97249523Y-66728952D01*
X97201904Y-66824190D01*
X97154285Y-66871809D01*
X97059047Y-66919428D01*
X96868571Y-66919428D01*
X96773333Y-66871809D01*
X96725714Y-66824190D01*
X96678095Y-66728952D01*
X99281285Y-63744380D02*
X99281285Y-62744380D01*
X99043190Y-62744380D01*
X98900333Y-62792000D01*
X98805095Y-62887238D01*
X98757476Y-62982476D01*
X98709857Y-63172952D01*
X98709857Y-63315809D01*
X98757476Y-63506285D01*
X98805095Y-63601523D01*
X98900333Y-63696761D01*
X99043190Y-63744380D01*
X99281285Y-63744380D01*
X98328904Y-62839619D02*
X98281285Y-62792000D01*
X98186047Y-62744380D01*
X97947952Y-62744380D01*
X97852714Y-62792000D01*
X97805095Y-62839619D01*
X97757476Y-62934857D01*
X97757476Y-63030095D01*
X97805095Y-63172952D01*
X98376523Y-63744380D01*
X97757476Y-63744380D01*
X97186047Y-63172952D02*
X97281285Y-63125333D01*
X97328904Y-63077714D01*
X97376523Y-62982476D01*
X97376523Y-62934857D01*
X97328904Y-62839619D01*
X97281285Y-62792000D01*
X97186047Y-62744380D01*
X96995571Y-62744380D01*
X96900333Y-62792000D01*
X96852714Y-62839619D01*
X96805095Y-62934857D01*
X96805095Y-62982476D01*
X96852714Y-63077714D01*
X96900333Y-63125333D01*
X96995571Y-63172952D01*
X97186047Y-63172952D01*
X97281285Y-63220571D01*
X97328904Y-63268190D01*
X97376523Y-63363428D01*
X97376523Y-63553904D01*
X97328904Y-63649142D01*
X97281285Y-63696761D01*
X97186047Y-63744380D01*
X96995571Y-63744380D01*
X96900333Y-63696761D01*
X96852714Y-63649142D01*
X96805095Y-63553904D01*
X96805095Y-63363428D01*
X96852714Y-63268190D01*
X96900333Y-63220571D01*
X96995571Y-63172952D01*
X99281285Y-60188380D02*
X99281285Y-59188380D01*
X99043190Y-59188380D01*
X98900333Y-59236000D01*
X98805095Y-59331238D01*
X98757476Y-59426476D01*
X98709857Y-59616952D01*
X98709857Y-59759809D01*
X98757476Y-59950285D01*
X98805095Y-60045523D01*
X98900333Y-60140761D01*
X99043190Y-60188380D01*
X99281285Y-60188380D01*
X98328904Y-59283619D02*
X98281285Y-59236000D01*
X98186047Y-59188380D01*
X97947952Y-59188380D01*
X97852714Y-59236000D01*
X97805095Y-59283619D01*
X97757476Y-59378857D01*
X97757476Y-59474095D01*
X97805095Y-59616952D01*
X98376523Y-60188380D01*
X97757476Y-60188380D01*
X97424142Y-59188380D02*
X96757476Y-59188380D01*
X97186047Y-60188380D01*
X153129285Y-55489380D02*
X153129285Y-54489380D01*
X152891190Y-54489380D01*
X152748333Y-54537000D01*
X152653095Y-54632238D01*
X152605476Y-54727476D01*
X152557857Y-54917952D01*
X152557857Y-55060809D01*
X152605476Y-55251285D01*
X152653095Y-55346523D01*
X152748333Y-55441761D01*
X152891190Y-55489380D01*
X153129285Y-55489380D01*
X152176904Y-54584619D02*
X152129285Y-54537000D01*
X152034047Y-54489380D01*
X151795952Y-54489380D01*
X151700714Y-54537000D01*
X151653095Y-54584619D01*
X151605476Y-54679857D01*
X151605476Y-54775095D01*
X151653095Y-54917952D01*
X152224523Y-55489380D01*
X151605476Y-55489380D01*
X150700714Y-54489380D02*
X151176904Y-54489380D01*
X151224523Y-54965571D01*
X151176904Y-54917952D01*
X151081666Y-54870333D01*
X150843571Y-54870333D01*
X150748333Y-54917952D01*
X150700714Y-54965571D01*
X150653095Y-55060809D01*
X150653095Y-55298904D01*
X150700714Y-55394142D01*
X150748333Y-55441761D01*
X150843571Y-55489380D01*
X151081666Y-55489380D01*
X151176904Y-55441761D01*
X151224523Y-55394142D01*
X167226285Y-55616380D02*
X167226285Y-54616380D01*
X166988190Y-54616380D01*
X166845333Y-54664000D01*
X166750095Y-54759238D01*
X166702476Y-54854476D01*
X166654857Y-55044952D01*
X166654857Y-55187809D01*
X166702476Y-55378285D01*
X166750095Y-55473523D01*
X166845333Y-55568761D01*
X166988190Y-55616380D01*
X167226285Y-55616380D01*
X166273904Y-54711619D02*
X166226285Y-54664000D01*
X166131047Y-54616380D01*
X165892952Y-54616380D01*
X165797714Y-54664000D01*
X165750095Y-54711619D01*
X165702476Y-54806857D01*
X165702476Y-54902095D01*
X165750095Y-55044952D01*
X166321523Y-55616380D01*
X165702476Y-55616380D01*
X164845333Y-54949714D02*
X164845333Y-55616380D01*
X165083428Y-54568761D02*
X165321523Y-55283047D01*
X164702476Y-55283047D01*
X99027285Y-103114380D02*
X99027285Y-102114380D01*
X98789190Y-102114380D01*
X98646333Y-102162000D01*
X98551095Y-102257238D01*
X98503476Y-102352476D01*
X98455857Y-102542952D01*
X98455857Y-102685809D01*
X98503476Y-102876285D01*
X98551095Y-102971523D01*
X98646333Y-103066761D01*
X98789190Y-103114380D01*
X99027285Y-103114380D01*
X98074904Y-102209619D02*
X98027285Y-102162000D01*
X97932047Y-102114380D01*
X97693952Y-102114380D01*
X97598714Y-102162000D01*
X97551095Y-102209619D01*
X97503476Y-102304857D01*
X97503476Y-102400095D01*
X97551095Y-102542952D01*
X98122523Y-103114380D01*
X97503476Y-103114380D01*
X96884428Y-102114380D02*
X96789190Y-102114380D01*
X96693952Y-102162000D01*
X96646333Y-102209619D01*
X96598714Y-102304857D01*
X96551095Y-102495333D01*
X96551095Y-102733428D01*
X96598714Y-102923904D01*
X96646333Y-103019142D01*
X96693952Y-103066761D01*
X96789190Y-103114380D01*
X96884428Y-103114380D01*
X96979666Y-103066761D01*
X97027285Y-103019142D01*
X97074904Y-102923904D01*
X97122523Y-102733428D01*
X97122523Y-102495333D01*
X97074904Y-102304857D01*
X97027285Y-102209619D01*
X96979666Y-102162000D01*
X96884428Y-102114380D01*
X99027285Y-99558380D02*
X99027285Y-98558380D01*
X98789190Y-98558380D01*
X98646333Y-98606000D01*
X98551095Y-98701238D01*
X98503476Y-98796476D01*
X98455857Y-98986952D01*
X98455857Y-99129809D01*
X98503476Y-99320285D01*
X98551095Y-99415523D01*
X98646333Y-99510761D01*
X98789190Y-99558380D01*
X99027285Y-99558380D01*
X97503476Y-99558380D02*
X98074904Y-99558380D01*
X97789190Y-99558380D02*
X97789190Y-98558380D01*
X97884428Y-98701238D01*
X97979666Y-98796476D01*
X98074904Y-98844095D01*
X97027285Y-99558380D02*
X96836809Y-99558380D01*
X96741571Y-99510761D01*
X96693952Y-99463142D01*
X96598714Y-99320285D01*
X96551095Y-99129809D01*
X96551095Y-98748857D01*
X96598714Y-98653619D01*
X96646333Y-98606000D01*
X96741571Y-98558380D01*
X96932047Y-98558380D01*
X97027285Y-98606000D01*
X97074904Y-98653619D01*
X97122523Y-98748857D01*
X97122523Y-98986952D01*
X97074904Y-99082190D01*
X97027285Y-99129809D01*
X96932047Y-99177428D01*
X96741571Y-99177428D01*
X96646333Y-99129809D01*
X96598714Y-99082190D01*
X96551095Y-98986952D01*
X99027285Y-96002380D02*
X99027285Y-95002380D01*
X98789190Y-95002380D01*
X98646333Y-95050000D01*
X98551095Y-95145238D01*
X98503476Y-95240476D01*
X98455857Y-95430952D01*
X98455857Y-95573809D01*
X98503476Y-95764285D01*
X98551095Y-95859523D01*
X98646333Y-95954761D01*
X98789190Y-96002380D01*
X99027285Y-96002380D01*
X97503476Y-96002380D02*
X98074904Y-96002380D01*
X97789190Y-96002380D02*
X97789190Y-95002380D01*
X97884428Y-95145238D01*
X97979666Y-95240476D01*
X98074904Y-95288095D01*
X96932047Y-95430952D02*
X97027285Y-95383333D01*
X97074904Y-95335714D01*
X97122523Y-95240476D01*
X97122523Y-95192857D01*
X97074904Y-95097619D01*
X97027285Y-95050000D01*
X96932047Y-95002380D01*
X96741571Y-95002380D01*
X96646333Y-95050000D01*
X96598714Y-95097619D01*
X96551095Y-95192857D01*
X96551095Y-95240476D01*
X96598714Y-95335714D01*
X96646333Y-95383333D01*
X96741571Y-95430952D01*
X96932047Y-95430952D01*
X97027285Y-95478571D01*
X97074904Y-95526190D01*
X97122523Y-95621428D01*
X97122523Y-95811904D01*
X97074904Y-95907142D01*
X97027285Y-95954761D01*
X96932047Y-96002380D01*
X96741571Y-96002380D01*
X96646333Y-95954761D01*
X96598714Y-95907142D01*
X96551095Y-95811904D01*
X96551095Y-95621428D01*
X96598714Y-95526190D01*
X96646333Y-95478571D01*
X96741571Y-95430952D01*
X99154285Y-92446380D02*
X99154285Y-91446380D01*
X98916190Y-91446380D01*
X98773333Y-91494000D01*
X98678095Y-91589238D01*
X98630476Y-91684476D01*
X98582857Y-91874952D01*
X98582857Y-92017809D01*
X98630476Y-92208285D01*
X98678095Y-92303523D01*
X98773333Y-92398761D01*
X98916190Y-92446380D01*
X99154285Y-92446380D01*
X97630476Y-92446380D02*
X98201904Y-92446380D01*
X97916190Y-92446380D02*
X97916190Y-91446380D01*
X98011428Y-91589238D01*
X98106666Y-91684476D01*
X98201904Y-91732095D01*
X97297142Y-91446380D02*
X96630476Y-91446380D01*
X97059047Y-92446380D01*
X98900285Y-89144380D02*
X98900285Y-88144380D01*
X98662190Y-88144380D01*
X98519333Y-88192000D01*
X98424095Y-88287238D01*
X98376476Y-88382476D01*
X98328857Y-88572952D01*
X98328857Y-88715809D01*
X98376476Y-88906285D01*
X98424095Y-89001523D01*
X98519333Y-89096761D01*
X98662190Y-89144380D01*
X98900285Y-89144380D01*
X97376476Y-89144380D02*
X97947904Y-89144380D01*
X97662190Y-89144380D02*
X97662190Y-88144380D01*
X97757428Y-88287238D01*
X97852666Y-88382476D01*
X97947904Y-88430095D01*
X96519333Y-88144380D02*
X96709809Y-88144380D01*
X96805047Y-88192000D01*
X96852666Y-88239619D01*
X96947904Y-88382476D01*
X96995523Y-88572952D01*
X96995523Y-88953904D01*
X96947904Y-89049142D01*
X96900285Y-89096761D01*
X96805047Y-89144380D01*
X96614571Y-89144380D01*
X96519333Y-89096761D01*
X96471714Y-89049142D01*
X96424095Y-88953904D01*
X96424095Y-88715809D01*
X96471714Y-88620571D01*
X96519333Y-88572952D01*
X96614571Y-88525333D01*
X96805047Y-88525333D01*
X96900285Y-88572952D01*
X96947904Y-88620571D01*
X96995523Y-88715809D01*
X99027285Y-85588380D02*
X99027285Y-84588380D01*
X98789190Y-84588380D01*
X98646333Y-84636000D01*
X98551095Y-84731238D01*
X98503476Y-84826476D01*
X98455857Y-85016952D01*
X98455857Y-85159809D01*
X98503476Y-85350285D01*
X98551095Y-85445523D01*
X98646333Y-85540761D01*
X98789190Y-85588380D01*
X99027285Y-85588380D01*
X97503476Y-85588380D02*
X98074904Y-85588380D01*
X97789190Y-85588380D02*
X97789190Y-84588380D01*
X97884428Y-84731238D01*
X97979666Y-84826476D01*
X98074904Y-84874095D01*
X96598714Y-84588380D02*
X97074904Y-84588380D01*
X97122523Y-85064571D01*
X97074904Y-85016952D01*
X96979666Y-84969333D01*
X96741571Y-84969333D01*
X96646333Y-85016952D01*
X96598714Y-85064571D01*
X96551095Y-85159809D01*
X96551095Y-85397904D01*
X96598714Y-85493142D01*
X96646333Y-85540761D01*
X96741571Y-85588380D01*
X96979666Y-85588380D01*
X97074904Y-85540761D01*
X97122523Y-85493142D01*
X99408285Y-128514380D02*
X99408285Y-127514380D01*
X99170190Y-127514380D01*
X99027333Y-127562000D01*
X98932095Y-127657238D01*
X98884476Y-127752476D01*
X98836857Y-127942952D01*
X98836857Y-128085809D01*
X98884476Y-128276285D01*
X98932095Y-128371523D01*
X99027333Y-128466761D01*
X99170190Y-128514380D01*
X99408285Y-128514380D01*
X97884476Y-128514380D02*
X98455904Y-128514380D01*
X98170190Y-128514380D02*
X98170190Y-127514380D01*
X98265428Y-127657238D01*
X98360666Y-127752476D01*
X98455904Y-127800095D01*
X96932095Y-128514380D02*
X97503523Y-128514380D01*
X97217809Y-128514380D02*
X97217809Y-127514380D01*
X97313047Y-127657238D01*
X97408285Y-127752476D01*
X97503523Y-127800095D01*
X99408285Y-124958380D02*
X99408285Y-123958380D01*
X99170190Y-123958380D01*
X99027333Y-124006000D01*
X98932095Y-124101238D01*
X98884476Y-124196476D01*
X98836857Y-124386952D01*
X98836857Y-124529809D01*
X98884476Y-124720285D01*
X98932095Y-124815523D01*
X99027333Y-124910761D01*
X99170190Y-124958380D01*
X99408285Y-124958380D01*
X97884476Y-124958380D02*
X98455904Y-124958380D01*
X98170190Y-124958380D02*
X98170190Y-123958380D01*
X98265428Y-124101238D01*
X98360666Y-124196476D01*
X98455904Y-124244095D01*
X97265428Y-123958380D02*
X97170190Y-123958380D01*
X97074952Y-124006000D01*
X97027333Y-124053619D01*
X96979714Y-124148857D01*
X96932095Y-124339333D01*
X96932095Y-124577428D01*
X96979714Y-124767904D01*
X97027333Y-124863142D01*
X97074952Y-124910761D01*
X97170190Y-124958380D01*
X97265428Y-124958380D01*
X97360666Y-124910761D01*
X97408285Y-124863142D01*
X97455904Y-124767904D01*
X97503523Y-124577428D01*
X97503523Y-124339333D01*
X97455904Y-124148857D01*
X97408285Y-124053619D01*
X97360666Y-124006000D01*
X97265428Y-123958380D01*
X98932095Y-121275380D02*
X98932095Y-120275380D01*
X98694000Y-120275380D01*
X98551142Y-120323000D01*
X98455904Y-120418238D01*
X98408285Y-120513476D01*
X98360666Y-120703952D01*
X98360666Y-120846809D01*
X98408285Y-121037285D01*
X98455904Y-121132523D01*
X98551142Y-121227761D01*
X98694000Y-121275380D01*
X98932095Y-121275380D01*
X97884476Y-121275380D02*
X97694000Y-121275380D01*
X97598761Y-121227761D01*
X97551142Y-121180142D01*
X97455904Y-121037285D01*
X97408285Y-120846809D01*
X97408285Y-120465857D01*
X97455904Y-120370619D01*
X97503523Y-120323000D01*
X97598761Y-120275380D01*
X97789238Y-120275380D01*
X97884476Y-120323000D01*
X97932095Y-120370619D01*
X97979714Y-120465857D01*
X97979714Y-120703952D01*
X97932095Y-120799190D01*
X97884476Y-120846809D01*
X97789238Y-120894428D01*
X97598761Y-120894428D01*
X97503523Y-120846809D01*
X97455904Y-120799190D01*
X97408285Y-120703952D01*
X98932095Y-117719380D02*
X98932095Y-116719380D01*
X98694000Y-116719380D01*
X98551142Y-116767000D01*
X98455904Y-116862238D01*
X98408285Y-116957476D01*
X98360666Y-117147952D01*
X98360666Y-117290809D01*
X98408285Y-117481285D01*
X98455904Y-117576523D01*
X98551142Y-117671761D01*
X98694000Y-117719380D01*
X98932095Y-117719380D01*
X97789238Y-117147952D02*
X97884476Y-117100333D01*
X97932095Y-117052714D01*
X97979714Y-116957476D01*
X97979714Y-116909857D01*
X97932095Y-116814619D01*
X97884476Y-116767000D01*
X97789238Y-116719380D01*
X97598761Y-116719380D01*
X97503523Y-116767000D01*
X97455904Y-116814619D01*
X97408285Y-116909857D01*
X97408285Y-116957476D01*
X97455904Y-117052714D01*
X97503523Y-117100333D01*
X97598761Y-117147952D01*
X97789238Y-117147952D01*
X97884476Y-117195571D01*
X97932095Y-117243190D01*
X97979714Y-117338428D01*
X97979714Y-117528904D01*
X97932095Y-117624142D01*
X97884476Y-117671761D01*
X97789238Y-117719380D01*
X97598761Y-117719380D01*
X97503523Y-117671761D01*
X97455904Y-117624142D01*
X97408285Y-117528904D01*
X97408285Y-117338428D01*
X97455904Y-117243190D01*
X97503523Y-117195571D01*
X97598761Y-117147952D01*
X98932095Y-114544380D02*
X98932095Y-113544380D01*
X98694000Y-113544380D01*
X98551142Y-113592000D01*
X98455904Y-113687238D01*
X98408285Y-113782476D01*
X98360666Y-113972952D01*
X98360666Y-114115809D01*
X98408285Y-114306285D01*
X98455904Y-114401523D01*
X98551142Y-114496761D01*
X98694000Y-114544380D01*
X98932095Y-114544380D01*
X98027333Y-113544380D02*
X97360666Y-113544380D01*
X97789238Y-114544380D01*
X98805095Y-110861380D02*
X98805095Y-109861380D01*
X98567000Y-109861380D01*
X98424142Y-109909000D01*
X98328904Y-110004238D01*
X98281285Y-110099476D01*
X98233666Y-110289952D01*
X98233666Y-110432809D01*
X98281285Y-110623285D01*
X98328904Y-110718523D01*
X98424142Y-110813761D01*
X98567000Y-110861380D01*
X98805095Y-110861380D01*
X97376523Y-109861380D02*
X97567000Y-109861380D01*
X97662238Y-109909000D01*
X97709857Y-109956619D01*
X97805095Y-110099476D01*
X97852714Y-110289952D01*
X97852714Y-110670904D01*
X97805095Y-110766142D01*
X97757476Y-110813761D01*
X97662238Y-110861380D01*
X97471761Y-110861380D01*
X97376523Y-110813761D01*
X97328904Y-110766142D01*
X97281285Y-110670904D01*
X97281285Y-110432809D01*
X97328904Y-110337571D01*
X97376523Y-110289952D01*
X97471761Y-110242333D01*
X97662238Y-110242333D01*
X97757476Y-110289952D01*
X97805095Y-110337571D01*
X97852714Y-110432809D01*
X109470095Y-56886380D02*
X109470095Y-55886380D01*
X109232000Y-55886380D01*
X109089142Y-55934000D01*
X108993904Y-56029238D01*
X108946285Y-56124476D01*
X108898666Y-56314952D01*
X108898666Y-56457809D01*
X108946285Y-56648285D01*
X108993904Y-56743523D01*
X109089142Y-56838761D01*
X109232000Y-56886380D01*
X109470095Y-56886380D01*
X107993904Y-55886380D02*
X108470095Y-55886380D01*
X108517714Y-56362571D01*
X108470095Y-56314952D01*
X108374857Y-56267333D01*
X108136761Y-56267333D01*
X108041523Y-56314952D01*
X107993904Y-56362571D01*
X107946285Y-56457809D01*
X107946285Y-56695904D01*
X107993904Y-56791142D01*
X108041523Y-56838761D01*
X108136761Y-56886380D01*
X108374857Y-56886380D01*
X108470095Y-56838761D01*
X108517714Y-56791142D01*
X105282142Y-57156333D02*
X105329761Y-57108714D01*
X105377380Y-56965857D01*
X105377380Y-56870619D01*
X105329761Y-56727761D01*
X105234523Y-56632523D01*
X105139285Y-56584904D01*
X104948809Y-56537285D01*
X104805952Y-56537285D01*
X104615476Y-56584904D01*
X104520238Y-56632523D01*
X104425000Y-56727761D01*
X104377380Y-56870619D01*
X104377380Y-56965857D01*
X104425000Y-57108714D01*
X104472619Y-57156333D01*
X104472619Y-57537285D02*
X104425000Y-57584904D01*
X104377380Y-57680142D01*
X104377380Y-57918238D01*
X104425000Y-58013476D01*
X104472619Y-58061095D01*
X104567857Y-58108714D01*
X104663095Y-58108714D01*
X104805952Y-58061095D01*
X105377380Y-57489666D01*
X105377380Y-58108714D01*
%LPC*%
D12*
X84963000Y-45085000D03*
X84963000Y-135763000D03*
X175641000Y-45085000D03*
X175641000Y-135763000D03*
G36*
G01*
X139883000Y-56912500D02*
X139883000Y-57387500D01*
G75*
G02*
X139645500Y-57625000I-237500J0D01*
G01*
X139045500Y-57625000D01*
G75*
G02*
X138808000Y-57387500I0J237500D01*
G01*
X138808000Y-56912500D01*
G75*
G02*
X139045500Y-56675000I237500J0D01*
G01*
X139645500Y-56675000D01*
G75*
G02*
X139883000Y-56912500I0J-237500D01*
G01*
G37*
G36*
G01*
X141608000Y-56912500D02*
X141608000Y-57387500D01*
G75*
G02*
X141370500Y-57625000I-237500J0D01*
G01*
X140770500Y-57625000D01*
G75*
G02*
X140533000Y-57387500I0J237500D01*
G01*
X140533000Y-56912500D01*
G75*
G02*
X140770500Y-56675000I237500J0D01*
G01*
X141370500Y-56675000D01*
G75*
G02*
X141608000Y-56912500I0J-237500D01*
G01*
G37*
G36*
G01*
X131252872Y-113173748D02*
X131588748Y-112837872D01*
G75*
G02*
X131924624Y-112837872I167938J-167938D01*
G01*
X132348888Y-113262136D01*
G75*
G02*
X132348888Y-113598012I-167938J-167938D01*
G01*
X132013012Y-113933888D01*
G75*
G02*
X131677136Y-113933888I-167938J167938D01*
G01*
X131252872Y-113509624D01*
G75*
G02*
X131252872Y-113173748I167938J167938D01*
G01*
G37*
G36*
G01*
X130033112Y-111953988D02*
X130368988Y-111618112D01*
G75*
G02*
X130704864Y-111618112I167938J-167938D01*
G01*
X131129128Y-112042376D01*
G75*
G02*
X131129128Y-112378252I-167938J-167938D01*
G01*
X130793252Y-112714128D01*
G75*
G02*
X130457376Y-112714128I-167938J167938D01*
G01*
X130033112Y-112289864D01*
G75*
G02*
X130033112Y-111953988I167938J167938D01*
G01*
G37*
G36*
G01*
X138374000Y-94598500D02*
X138374000Y-94123500D01*
G75*
G02*
X138611500Y-93886000I237500J0D01*
G01*
X139211500Y-93886000D01*
G75*
G02*
X139449000Y-94123500I0J-237500D01*
G01*
X139449000Y-94598500D01*
G75*
G02*
X139211500Y-94836000I-237500J0D01*
G01*
X138611500Y-94836000D01*
G75*
G02*
X138374000Y-94598500I0J237500D01*
G01*
G37*
G36*
G01*
X136649000Y-94598500D02*
X136649000Y-94123500D01*
G75*
G02*
X136886500Y-93886000I237500J0D01*
G01*
X137486500Y-93886000D01*
G75*
G02*
X137724000Y-94123500I0J-237500D01*
G01*
X137724000Y-94598500D01*
G75*
G02*
X137486500Y-94836000I-237500J0D01*
G01*
X136886500Y-94836000D01*
G75*
G02*
X136649000Y-94598500I0J237500D01*
G01*
G37*
G36*
G01*
X140406000Y-72627500D02*
X140406000Y-72152500D01*
G75*
G02*
X140643500Y-71915000I237500J0D01*
G01*
X141243500Y-71915000D01*
G75*
G02*
X141481000Y-72152500I0J-237500D01*
G01*
X141481000Y-72627500D01*
G75*
G02*
X141243500Y-72865000I-237500J0D01*
G01*
X140643500Y-72865000D01*
G75*
G02*
X140406000Y-72627500I0J237500D01*
G01*
G37*
G36*
G01*
X138681000Y-72627500D02*
X138681000Y-72152500D01*
G75*
G02*
X138918500Y-71915000I237500J0D01*
G01*
X139518500Y-71915000D01*
G75*
G02*
X139756000Y-72152500I0J-237500D01*
G01*
X139756000Y-72627500D01*
G75*
G02*
X139518500Y-72865000I-237500J0D01*
G01*
X138918500Y-72865000D01*
G75*
G02*
X138681000Y-72627500I0J237500D01*
G01*
G37*
D13*
X151585000Y-133985000D03*
D14*
X162835000Y-133985000D03*
X140335000Y-133985000D03*
D15*
X165862000Y-124873000D03*
X165862000Y-128873000D03*
D16*
X150140000Y-50212000D03*
X157140000Y-50212000D03*
X164140000Y-50212000D03*
X153640000Y-45212000D03*
X160640000Y-45212000D03*
X167640000Y-45212000D03*
X153640000Y-50212000D03*
X160640000Y-50212000D03*
X167640000Y-50212000D03*
X150140000Y-45212000D03*
X157140000Y-45212000D03*
X164140000Y-45212000D03*
D17*
X131064000Y-58928000D03*
X115824000Y-107188000D03*
X131064000Y-61468000D03*
X115824000Y-104648000D03*
X131064000Y-64008000D03*
X115824000Y-102108000D03*
X131064000Y-66548000D03*
X115824000Y-99568000D03*
X131064000Y-69088000D03*
X115824000Y-97028000D03*
X131064000Y-71628000D03*
X115824000Y-94488000D03*
X131064000Y-74168000D03*
X115824000Y-91948000D03*
X131064000Y-76708000D03*
X115824000Y-89408000D03*
X131064000Y-79248000D03*
X115824000Y-86868000D03*
X131064000Y-81788000D03*
X115824000Y-84328000D03*
X131064000Y-84328000D03*
X115824000Y-81788000D03*
X131064000Y-86868000D03*
X115824000Y-79248000D03*
X131064000Y-89408000D03*
X115824000Y-76708000D03*
X131064000Y-91948000D03*
X115824000Y-74168000D03*
X131064000Y-94488000D03*
X115824000Y-71628000D03*
X131064000Y-97028000D03*
X115824000Y-69088000D03*
X131064000Y-99568000D03*
X115824000Y-66548000D03*
X131064000Y-102108000D03*
X115824000Y-64008000D03*
X131064000Y-104648000D03*
X115824000Y-61468000D03*
X131064000Y-107188000D03*
D18*
X115824000Y-58928000D03*
G36*
G01*
X140633000Y-55609500D02*
X140633000Y-55134500D01*
G75*
G02*
X140870500Y-54897000I237500J0D01*
G01*
X141370500Y-54897000D01*
G75*
G02*
X141608000Y-55134500I0J-237500D01*
G01*
X141608000Y-55609500D01*
G75*
G02*
X141370500Y-55847000I-237500J0D01*
G01*
X140870500Y-55847000D01*
G75*
G02*
X140633000Y-55609500I0J237500D01*
G01*
G37*
G36*
G01*
X138808000Y-55609500D02*
X138808000Y-55134500D01*
G75*
G02*
X139045500Y-54897000I237500J0D01*
G01*
X139545500Y-54897000D01*
G75*
G02*
X139783000Y-55134500I0J-237500D01*
G01*
X139783000Y-55609500D01*
G75*
G02*
X139545500Y-55847000I-237500J0D01*
G01*
X139045500Y-55847000D01*
G75*
G02*
X138808000Y-55609500I0J237500D01*
G01*
G37*
G36*
G01*
X101108500Y-56455500D02*
X101583500Y-56455500D01*
G75*
G02*
X101821000Y-56693000I0J-237500D01*
G01*
X101821000Y-57193000D01*
G75*
G02*
X101583500Y-57430500I-237500J0D01*
G01*
X101108500Y-57430500D01*
G75*
G02*
X100871000Y-57193000I0J237500D01*
G01*
X100871000Y-56693000D01*
G75*
G02*
X101108500Y-56455500I237500J0D01*
G01*
G37*
G36*
G01*
X101108500Y-54630500D02*
X101583500Y-54630500D01*
G75*
G02*
X101821000Y-54868000I0J-237500D01*
G01*
X101821000Y-55368000D01*
G75*
G02*
X101583500Y-55605500I-237500J0D01*
G01*
X101108500Y-55605500D01*
G75*
G02*
X100871000Y-55368000I0J237500D01*
G01*
X100871000Y-54868000D01*
G75*
G02*
X101108500Y-54630500I237500J0D01*
G01*
G37*
D16*
X90344000Y-77190000D03*
X90344000Y-70190000D03*
X90344000Y-63190000D03*
X85344000Y-73690000D03*
X85344000Y-66690000D03*
X85344000Y-59690000D03*
X90344000Y-73690000D03*
X90344000Y-66690000D03*
X90344000Y-59690000D03*
X85344000Y-77190000D03*
X85344000Y-70190000D03*
X85344000Y-63190000D03*
X170514000Y-109500000D03*
X170514000Y-116500000D03*
X170514000Y-123500000D03*
X175514000Y-113000000D03*
X175514000Y-120000000D03*
X175514000Y-127000000D03*
X170514000Y-113000000D03*
X170514000Y-120000000D03*
X170514000Y-127000000D03*
X175514000Y-109500000D03*
X175514000Y-116500000D03*
X175514000Y-123500000D03*
X170514000Y-84100000D03*
X170514000Y-91100000D03*
X170514000Y-98100000D03*
X175514000Y-87600000D03*
X175514000Y-94600000D03*
X175514000Y-101600000D03*
X170514000Y-87600000D03*
X170514000Y-94600000D03*
X170514000Y-101600000D03*
X175514000Y-84100000D03*
X175514000Y-91100000D03*
X175514000Y-98100000D03*
X90344000Y-102590000D03*
X90344000Y-95590000D03*
X90344000Y-88590000D03*
X85344000Y-99090000D03*
X85344000Y-92090000D03*
X85344000Y-85090000D03*
X90344000Y-99090000D03*
X90344000Y-92090000D03*
X90344000Y-85090000D03*
X85344000Y-102590000D03*
X85344000Y-95590000D03*
X85344000Y-88590000D03*
X170514000Y-58700000D03*
X170514000Y-65700000D03*
X170514000Y-72700000D03*
X175514000Y-62200000D03*
X175514000Y-69200000D03*
X175514000Y-76200000D03*
X170514000Y-62200000D03*
X170514000Y-69200000D03*
X170514000Y-76200000D03*
X175514000Y-58700000D03*
X175514000Y-65700000D03*
X175514000Y-72700000D03*
X90344000Y-127990000D03*
X90344000Y-120990000D03*
X90344000Y-113990000D03*
X85344000Y-124490000D03*
X85344000Y-117490000D03*
X85344000Y-110490000D03*
X90344000Y-124490000D03*
X90344000Y-117490000D03*
X90344000Y-110490000D03*
X85344000Y-127990000D03*
X85344000Y-120990000D03*
X85344000Y-113990000D03*
X92990000Y-51482000D03*
X99990000Y-51482000D03*
X106990000Y-51482000D03*
X96490000Y-46482000D03*
X103490000Y-46482000D03*
X110490000Y-46482000D03*
X96490000Y-51482000D03*
X103490000Y-51482000D03*
X110490000Y-51482000D03*
X92990000Y-46482000D03*
X99990000Y-46482000D03*
X106990000Y-46482000D03*
D19*
X95484000Y-70104000D03*
X92984000Y-70104000D03*
X95484000Y-66802000D03*
X92984000Y-66802000D03*
X95504000Y-63246000D03*
X93004000Y-63246000D03*
X95504000Y-59690000D03*
X93004000Y-59690000D03*
X150916000Y-53340000D03*
X153416000Y-53340000D03*
X164632000Y-53340000D03*
X167132000Y-53340000D03*
X95464000Y-102616000D03*
X92964000Y-102616000D03*
X95464000Y-99060000D03*
X92964000Y-99060000D03*
X95464000Y-95504000D03*
X92964000Y-95504000D03*
X95464000Y-91948000D03*
X92964000Y-91948000D03*
X95464000Y-88646000D03*
X92964000Y-88646000D03*
X95464000Y-85090000D03*
X92964000Y-85090000D03*
X95484000Y-128016000D03*
X92984000Y-128016000D03*
X95464000Y-124460000D03*
X92964000Y-124460000D03*
X95484000Y-120904000D03*
X92984000Y-120904000D03*
X95484000Y-117348000D03*
X92984000Y-117348000D03*
X95484000Y-114046000D03*
X92984000Y-114046000D03*
X95464000Y-110490000D03*
X92964000Y-110490000D03*
X107482000Y-54610000D03*
X109982000Y-54610000D03*
D20*
X119634000Y-129888000D03*
D21*
X119634000Y-119888000D03*
D22*
X132080000Y-45038000D03*
D23*
X132080000Y-50038000D03*
G36*
G01*
X103140500Y-56305500D02*
X103615500Y-56305500D01*
G75*
G02*
X103853000Y-56543000I0J-237500D01*
G01*
X103853000Y-57143000D01*
G75*
G02*
X103615500Y-57380500I-237500J0D01*
G01*
X103140500Y-57380500D01*
G75*
G02*
X102903000Y-57143000I0J237500D01*
G01*
X102903000Y-56543000D01*
G75*
G02*
X103140500Y-56305500I237500J0D01*
G01*
G37*
G36*
G01*
X103140500Y-54580500D02*
X103615500Y-54580500D01*
G75*
G02*
X103853000Y-54818000I0J-237500D01*
G01*
X103853000Y-55418000D01*
G75*
G02*
X103615500Y-55655500I-237500J0D01*
G01*
X103140500Y-55655500D01*
G75*
G02*
X102903000Y-55418000I0J237500D01*
G01*
X102903000Y-54818000D01*
G75*
G02*
X103140500Y-54580500I237500J0D01*
G01*
G37*
M02*
