%TF.GenerationSoftware,KiCad,Pcbnew,5.1.9+dfsg1-1*%
%TF.CreationDate,2021-12-02T00:27:29+01:00*%
%TF.ProjectId,RTMPin,52544d50-696e-42e6-9b69-6361645f7063,rev?*%
%TF.SameCoordinates,Original*%
%TF.FileFunction,Soldermask,Top*%
%TF.FilePolarity,Negative*%
%FSLAX46Y46*%
G04 Gerber Fmt 4.6, Leading zero omitted, Abs format (unit mm)*
G04 Created by KiCad (PCBNEW 5.1.9+dfsg1-1) date 2021-12-02 00:27:29*
%MOMM*%
%LPD*%
G01*
G04 APERTURE LIST*
%ADD10C,4.300000*%
%ADD11C,1.500000*%
%ADD12C,2.700000*%
%ADD13C,3.000000*%
%ADD14R,1.800000X2.500000*%
%ADD15C,2.400000*%
%ADD16R,6.400000X5.800000*%
%ADD17R,2.200000X1.200000*%
%ADD18R,1.560000X0.650000*%
%ADD19O,2.400000X1.600000*%
%ADD20R,2.400000X1.600000*%
%ADD21C,4.000000*%
%ADD22R,4.000000X4.000000*%
%ADD23C,2.000000*%
%ADD24R,2.000000X2.000000*%
G04 APERTURE END LIST*
G36*
G01*
X123257500Y-44687500D02*
X123257500Y-44212500D01*
G75*
G02*
X123495000Y-43975000I237500J0D01*
G01*
X123995000Y-43975000D01*
G75*
G02*
X124232500Y-44212500I0J-237500D01*
G01*
X124232500Y-44687500D01*
G75*
G02*
X123995000Y-44925000I-237500J0D01*
G01*
X123495000Y-44925000D01*
G75*
G02*
X123257500Y-44687500I0J237500D01*
G01*
G37*
G36*
G01*
X121432500Y-44687500D02*
X121432500Y-44212500D01*
G75*
G02*
X121670000Y-43975000I237500J0D01*
G01*
X122170000Y-43975000D01*
G75*
G02*
X122407500Y-44212500I0J-237500D01*
G01*
X122407500Y-44687500D01*
G75*
G02*
X122170000Y-44925000I-237500J0D01*
G01*
X121670000Y-44925000D01*
G75*
G02*
X121432500Y-44687500I0J237500D01*
G01*
G37*
G36*
G01*
X100059500Y-120479000D02*
X99584500Y-120479000D01*
G75*
G02*
X99347000Y-120241500I0J237500D01*
G01*
X99347000Y-119741500D01*
G75*
G02*
X99584500Y-119504000I237500J0D01*
G01*
X100059500Y-119504000D01*
G75*
G02*
X100297000Y-119741500I0J-237500D01*
G01*
X100297000Y-120241500D01*
G75*
G02*
X100059500Y-120479000I-237500J0D01*
G01*
G37*
G36*
G01*
X100059500Y-122304000D02*
X99584500Y-122304000D01*
G75*
G02*
X99347000Y-122066500I0J237500D01*
G01*
X99347000Y-121566500D01*
G75*
G02*
X99584500Y-121329000I237500J0D01*
G01*
X100059500Y-121329000D01*
G75*
G02*
X100297000Y-121566500I0J-237500D01*
G01*
X100297000Y-122066500D01*
G75*
G02*
X100059500Y-122304000I-237500J0D01*
G01*
G37*
D10*
X84963000Y-45085000D03*
X84963000Y-135763000D03*
X175641000Y-45085000D03*
X175641000Y-135763000D03*
G36*
G01*
X96957000Y-128794500D02*
X96957000Y-129269500D01*
G75*
G02*
X96719500Y-129507000I-237500J0D01*
G01*
X96119500Y-129507000D01*
G75*
G02*
X95882000Y-129269500I0J237500D01*
G01*
X95882000Y-128794500D01*
G75*
G02*
X96119500Y-128557000I237500J0D01*
G01*
X96719500Y-128557000D01*
G75*
G02*
X96957000Y-128794500I0J-237500D01*
G01*
G37*
G36*
G01*
X98682000Y-128794500D02*
X98682000Y-129269500D01*
G75*
G02*
X98444500Y-129507000I-237500J0D01*
G01*
X97844500Y-129507000D01*
G75*
G02*
X97607000Y-129269500I0J237500D01*
G01*
X97607000Y-128794500D01*
G75*
G02*
X97844500Y-128557000I237500J0D01*
G01*
X98444500Y-128557000D01*
G75*
G02*
X98682000Y-128794500I0J-237500D01*
G01*
G37*
D11*
X109728000Y-77089000D03*
D12*
X151585000Y-133985000D03*
D13*
X162835000Y-133985000D03*
X140335000Y-133985000D03*
D14*
X162814000Y-121698000D03*
X162814000Y-125698000D03*
X162814000Y-112808000D03*
X162814000Y-116808000D03*
X162814000Y-84868000D03*
X162814000Y-88868000D03*
X162814000Y-93218000D03*
X162814000Y-97218000D03*
X162814000Y-102648000D03*
X162814000Y-106648000D03*
X162814000Y-56928000D03*
X162814000Y-60928000D03*
X162814000Y-65818000D03*
X162814000Y-69818000D03*
X162814000Y-74708000D03*
X162814000Y-78708000D03*
G36*
G01*
X144001500Y-113113000D02*
X143526500Y-113113000D01*
G75*
G02*
X143289000Y-112875500I0J237500D01*
G01*
X143289000Y-112375500D01*
G75*
G02*
X143526500Y-112138000I237500J0D01*
G01*
X144001500Y-112138000D01*
G75*
G02*
X144239000Y-112375500I0J-237500D01*
G01*
X144239000Y-112875500D01*
G75*
G02*
X144001500Y-113113000I-237500J0D01*
G01*
G37*
G36*
G01*
X144001500Y-114938000D02*
X143526500Y-114938000D01*
G75*
G02*
X143289000Y-114700500I0J237500D01*
G01*
X143289000Y-114200500D01*
G75*
G02*
X143526500Y-113963000I237500J0D01*
G01*
X144001500Y-113963000D01*
G75*
G02*
X144239000Y-114200500I0J-237500D01*
G01*
X144239000Y-114700500D01*
G75*
G02*
X144001500Y-114938000I-237500J0D01*
G01*
G37*
G36*
G01*
X144001500Y-122003000D02*
X143526500Y-122003000D01*
G75*
G02*
X143289000Y-121765500I0J237500D01*
G01*
X143289000Y-121265500D01*
G75*
G02*
X143526500Y-121028000I237500J0D01*
G01*
X144001500Y-121028000D01*
G75*
G02*
X144239000Y-121265500I0J-237500D01*
G01*
X144239000Y-121765500D01*
G75*
G02*
X144001500Y-122003000I-237500J0D01*
G01*
G37*
G36*
G01*
X144001500Y-123828000D02*
X143526500Y-123828000D01*
G75*
G02*
X143289000Y-123590500I0J237500D01*
G01*
X143289000Y-123090500D01*
G75*
G02*
X143526500Y-122853000I237500J0D01*
G01*
X144001500Y-122853000D01*
G75*
G02*
X144239000Y-123090500I0J-237500D01*
G01*
X144239000Y-123590500D01*
G75*
G02*
X144001500Y-123828000I-237500J0D01*
G01*
G37*
G36*
G01*
X144001500Y-85173000D02*
X143526500Y-85173000D01*
G75*
G02*
X143289000Y-84935500I0J237500D01*
G01*
X143289000Y-84435500D01*
G75*
G02*
X143526500Y-84198000I237500J0D01*
G01*
X144001500Y-84198000D01*
G75*
G02*
X144239000Y-84435500I0J-237500D01*
G01*
X144239000Y-84935500D01*
G75*
G02*
X144001500Y-85173000I-237500J0D01*
G01*
G37*
G36*
G01*
X144001500Y-86998000D02*
X143526500Y-86998000D01*
G75*
G02*
X143289000Y-86760500I0J237500D01*
G01*
X143289000Y-86260500D01*
G75*
G02*
X143526500Y-86023000I237500J0D01*
G01*
X144001500Y-86023000D01*
G75*
G02*
X144239000Y-86260500I0J-237500D01*
G01*
X144239000Y-86760500D01*
G75*
G02*
X144001500Y-86998000I-237500J0D01*
G01*
G37*
G36*
G01*
X144001500Y-94063000D02*
X143526500Y-94063000D01*
G75*
G02*
X143289000Y-93825500I0J237500D01*
G01*
X143289000Y-93325500D01*
G75*
G02*
X143526500Y-93088000I237500J0D01*
G01*
X144001500Y-93088000D01*
G75*
G02*
X144239000Y-93325500I0J-237500D01*
G01*
X144239000Y-93825500D01*
G75*
G02*
X144001500Y-94063000I-237500J0D01*
G01*
G37*
G36*
G01*
X144001500Y-95888000D02*
X143526500Y-95888000D01*
G75*
G02*
X143289000Y-95650500I0J237500D01*
G01*
X143289000Y-95150500D01*
G75*
G02*
X143526500Y-94913000I237500J0D01*
G01*
X144001500Y-94913000D01*
G75*
G02*
X144239000Y-95150500I0J-237500D01*
G01*
X144239000Y-95650500D01*
G75*
G02*
X144001500Y-95888000I-237500J0D01*
G01*
G37*
G36*
G01*
X144001500Y-102953000D02*
X143526500Y-102953000D01*
G75*
G02*
X143289000Y-102715500I0J237500D01*
G01*
X143289000Y-102215500D01*
G75*
G02*
X143526500Y-101978000I237500J0D01*
G01*
X144001500Y-101978000D01*
G75*
G02*
X144239000Y-102215500I0J-237500D01*
G01*
X144239000Y-102715500D01*
G75*
G02*
X144001500Y-102953000I-237500J0D01*
G01*
G37*
G36*
G01*
X144001500Y-104778000D02*
X143526500Y-104778000D01*
G75*
G02*
X143289000Y-104540500I0J237500D01*
G01*
X143289000Y-104040500D01*
G75*
G02*
X143526500Y-103803000I237500J0D01*
G01*
X144001500Y-103803000D01*
G75*
G02*
X144239000Y-104040500I0J-237500D01*
G01*
X144239000Y-104540500D01*
G75*
G02*
X144001500Y-104778000I-237500J0D01*
G01*
G37*
G36*
G01*
X144001500Y-57233000D02*
X143526500Y-57233000D01*
G75*
G02*
X143289000Y-56995500I0J237500D01*
G01*
X143289000Y-56495500D01*
G75*
G02*
X143526500Y-56258000I237500J0D01*
G01*
X144001500Y-56258000D01*
G75*
G02*
X144239000Y-56495500I0J-237500D01*
G01*
X144239000Y-56995500D01*
G75*
G02*
X144001500Y-57233000I-237500J0D01*
G01*
G37*
G36*
G01*
X144001500Y-59058000D02*
X143526500Y-59058000D01*
G75*
G02*
X143289000Y-58820500I0J237500D01*
G01*
X143289000Y-58320500D01*
G75*
G02*
X143526500Y-58083000I237500J0D01*
G01*
X144001500Y-58083000D01*
G75*
G02*
X144239000Y-58320500I0J-237500D01*
G01*
X144239000Y-58820500D01*
G75*
G02*
X144001500Y-59058000I-237500J0D01*
G01*
G37*
G36*
G01*
X144001500Y-66123000D02*
X143526500Y-66123000D01*
G75*
G02*
X143289000Y-65885500I0J237500D01*
G01*
X143289000Y-65385500D01*
G75*
G02*
X143526500Y-65148000I237500J0D01*
G01*
X144001500Y-65148000D01*
G75*
G02*
X144239000Y-65385500I0J-237500D01*
G01*
X144239000Y-65885500D01*
G75*
G02*
X144001500Y-66123000I-237500J0D01*
G01*
G37*
G36*
G01*
X144001500Y-67948000D02*
X143526500Y-67948000D01*
G75*
G02*
X143289000Y-67710500I0J237500D01*
G01*
X143289000Y-67210500D01*
G75*
G02*
X143526500Y-66973000I237500J0D01*
G01*
X144001500Y-66973000D01*
G75*
G02*
X144239000Y-67210500I0J-237500D01*
G01*
X144239000Y-67710500D01*
G75*
G02*
X144001500Y-67948000I-237500J0D01*
G01*
G37*
G36*
G01*
X144001500Y-75013000D02*
X143526500Y-75013000D01*
G75*
G02*
X143289000Y-74775500I0J237500D01*
G01*
X143289000Y-74275500D01*
G75*
G02*
X143526500Y-74038000I237500J0D01*
G01*
X144001500Y-74038000D01*
G75*
G02*
X144239000Y-74275500I0J-237500D01*
G01*
X144239000Y-74775500D01*
G75*
G02*
X144001500Y-75013000I-237500J0D01*
G01*
G37*
G36*
G01*
X144001500Y-76838000D02*
X143526500Y-76838000D01*
G75*
G02*
X143289000Y-76600500I0J237500D01*
G01*
X143289000Y-76100500D01*
G75*
G02*
X143526500Y-75863000I237500J0D01*
G01*
X144001500Y-75863000D01*
G75*
G02*
X144239000Y-76100500I0J-237500D01*
G01*
X144239000Y-76600500D01*
G75*
G02*
X144001500Y-76838000I-237500J0D01*
G01*
G37*
G36*
G01*
X158353997Y-123328000D02*
X159654003Y-123328000D01*
G75*
G02*
X159904000Y-123577997I0J-249997D01*
G01*
X159904000Y-124403003D01*
G75*
G02*
X159654003Y-124653000I-249997J0D01*
G01*
X158353997Y-124653000D01*
G75*
G02*
X158104000Y-124403003I0J249997D01*
G01*
X158104000Y-123577997D01*
G75*
G02*
X158353997Y-123328000I249997J0D01*
G01*
G37*
G36*
G01*
X158353997Y-120203000D02*
X159654003Y-120203000D01*
G75*
G02*
X159904000Y-120452997I0J-249997D01*
G01*
X159904000Y-121278003D01*
G75*
G02*
X159654003Y-121528000I-249997J0D01*
G01*
X158353997Y-121528000D01*
G75*
G02*
X158104000Y-121278003I0J249997D01*
G01*
X158104000Y-120452997D01*
G75*
G02*
X158353997Y-120203000I249997J0D01*
G01*
G37*
D15*
X150140000Y-50212000D03*
X157140000Y-50212000D03*
X164140000Y-50212000D03*
X153640000Y-45212000D03*
X160640000Y-45212000D03*
X167640000Y-45212000D03*
X153640000Y-50212000D03*
X160640000Y-50212000D03*
X167640000Y-50212000D03*
X150140000Y-45212000D03*
X157140000Y-45212000D03*
X164140000Y-45212000D03*
D16*
X153484000Y-114808000D03*
D17*
X147184000Y-117088000D03*
X147184000Y-114808000D03*
X147184000Y-112528000D03*
D16*
X153484000Y-123698000D03*
D17*
X147184000Y-125978000D03*
X147184000Y-123698000D03*
X147184000Y-121418000D03*
D16*
X153519000Y-87123000D03*
D17*
X147219000Y-89403000D03*
X147219000Y-87123000D03*
X147219000Y-84843000D03*
D16*
X153484000Y-95758000D03*
D17*
X147184000Y-98038000D03*
X147184000Y-95758000D03*
X147184000Y-93478000D03*
D16*
X153519000Y-104648000D03*
D17*
X147219000Y-106928000D03*
X147219000Y-104648000D03*
X147219000Y-102368000D03*
D16*
X153519000Y-59183000D03*
D17*
X147219000Y-61463000D03*
X147219000Y-59183000D03*
X147219000Y-56903000D03*
D16*
X153519000Y-68073000D03*
D17*
X147219000Y-70353000D03*
X147219000Y-68073000D03*
X147219000Y-65793000D03*
D16*
X153484000Y-76708000D03*
D17*
X147184000Y-78988000D03*
X147184000Y-76708000D03*
X147184000Y-74428000D03*
G36*
G01*
X108499000Y-65428000D02*
X108499000Y-65128000D01*
G75*
G02*
X108649000Y-64978000I150000J0D01*
G01*
X110299000Y-64978000D01*
G75*
G02*
X110449000Y-65128000I0J-150000D01*
G01*
X110449000Y-65428000D01*
G75*
G02*
X110299000Y-65578000I-150000J0D01*
G01*
X108649000Y-65578000D01*
G75*
G02*
X108499000Y-65428000I0J150000D01*
G01*
G37*
G36*
G01*
X108499000Y-66698000D02*
X108499000Y-66398000D01*
G75*
G02*
X108649000Y-66248000I150000J0D01*
G01*
X110299000Y-66248000D01*
G75*
G02*
X110449000Y-66398000I0J-150000D01*
G01*
X110449000Y-66698000D01*
G75*
G02*
X110299000Y-66848000I-150000J0D01*
G01*
X108649000Y-66848000D01*
G75*
G02*
X108499000Y-66698000I0J150000D01*
G01*
G37*
G36*
G01*
X108499000Y-67968000D02*
X108499000Y-67668000D01*
G75*
G02*
X108649000Y-67518000I150000J0D01*
G01*
X110299000Y-67518000D01*
G75*
G02*
X110449000Y-67668000I0J-150000D01*
G01*
X110449000Y-67968000D01*
G75*
G02*
X110299000Y-68118000I-150000J0D01*
G01*
X108649000Y-68118000D01*
G75*
G02*
X108499000Y-67968000I0J150000D01*
G01*
G37*
G36*
G01*
X108499000Y-69238000D02*
X108499000Y-68938000D01*
G75*
G02*
X108649000Y-68788000I150000J0D01*
G01*
X110299000Y-68788000D01*
G75*
G02*
X110449000Y-68938000I0J-150000D01*
G01*
X110449000Y-69238000D01*
G75*
G02*
X110299000Y-69388000I-150000J0D01*
G01*
X108649000Y-69388000D01*
G75*
G02*
X108499000Y-69238000I0J150000D01*
G01*
G37*
G36*
G01*
X108499000Y-70508000D02*
X108499000Y-70208000D01*
G75*
G02*
X108649000Y-70058000I150000J0D01*
G01*
X110299000Y-70058000D01*
G75*
G02*
X110449000Y-70208000I0J-150000D01*
G01*
X110449000Y-70508000D01*
G75*
G02*
X110299000Y-70658000I-150000J0D01*
G01*
X108649000Y-70658000D01*
G75*
G02*
X108499000Y-70508000I0J150000D01*
G01*
G37*
G36*
G01*
X108499000Y-71778000D02*
X108499000Y-71478000D01*
G75*
G02*
X108649000Y-71328000I150000J0D01*
G01*
X110299000Y-71328000D01*
G75*
G02*
X110449000Y-71478000I0J-150000D01*
G01*
X110449000Y-71778000D01*
G75*
G02*
X110299000Y-71928000I-150000J0D01*
G01*
X108649000Y-71928000D01*
G75*
G02*
X108499000Y-71778000I0J150000D01*
G01*
G37*
G36*
G01*
X108499000Y-73048000D02*
X108499000Y-72748000D01*
G75*
G02*
X108649000Y-72598000I150000J0D01*
G01*
X110299000Y-72598000D01*
G75*
G02*
X110449000Y-72748000I0J-150000D01*
G01*
X110449000Y-73048000D01*
G75*
G02*
X110299000Y-73198000I-150000J0D01*
G01*
X108649000Y-73198000D01*
G75*
G02*
X108499000Y-73048000I0J150000D01*
G01*
G37*
G36*
G01*
X103549000Y-73048000D02*
X103549000Y-72748000D01*
G75*
G02*
X103699000Y-72598000I150000J0D01*
G01*
X105349000Y-72598000D01*
G75*
G02*
X105499000Y-72748000I0J-150000D01*
G01*
X105499000Y-73048000D01*
G75*
G02*
X105349000Y-73198000I-150000J0D01*
G01*
X103699000Y-73198000D01*
G75*
G02*
X103549000Y-73048000I0J150000D01*
G01*
G37*
G36*
G01*
X103549000Y-71778000D02*
X103549000Y-71478000D01*
G75*
G02*
X103699000Y-71328000I150000J0D01*
G01*
X105349000Y-71328000D01*
G75*
G02*
X105499000Y-71478000I0J-150000D01*
G01*
X105499000Y-71778000D01*
G75*
G02*
X105349000Y-71928000I-150000J0D01*
G01*
X103699000Y-71928000D01*
G75*
G02*
X103549000Y-71778000I0J150000D01*
G01*
G37*
G36*
G01*
X103549000Y-70508000D02*
X103549000Y-70208000D01*
G75*
G02*
X103699000Y-70058000I150000J0D01*
G01*
X105349000Y-70058000D01*
G75*
G02*
X105499000Y-70208000I0J-150000D01*
G01*
X105499000Y-70508000D01*
G75*
G02*
X105349000Y-70658000I-150000J0D01*
G01*
X103699000Y-70658000D01*
G75*
G02*
X103549000Y-70508000I0J150000D01*
G01*
G37*
G36*
G01*
X103549000Y-69238000D02*
X103549000Y-68938000D01*
G75*
G02*
X103699000Y-68788000I150000J0D01*
G01*
X105349000Y-68788000D01*
G75*
G02*
X105499000Y-68938000I0J-150000D01*
G01*
X105499000Y-69238000D01*
G75*
G02*
X105349000Y-69388000I-150000J0D01*
G01*
X103699000Y-69388000D01*
G75*
G02*
X103549000Y-69238000I0J150000D01*
G01*
G37*
G36*
G01*
X103549000Y-67968000D02*
X103549000Y-67668000D01*
G75*
G02*
X103699000Y-67518000I150000J0D01*
G01*
X105349000Y-67518000D01*
G75*
G02*
X105499000Y-67668000I0J-150000D01*
G01*
X105499000Y-67968000D01*
G75*
G02*
X105349000Y-68118000I-150000J0D01*
G01*
X103699000Y-68118000D01*
G75*
G02*
X103549000Y-67968000I0J150000D01*
G01*
G37*
G36*
G01*
X103549000Y-66698000D02*
X103549000Y-66398000D01*
G75*
G02*
X103699000Y-66248000I150000J0D01*
G01*
X105349000Y-66248000D01*
G75*
G02*
X105499000Y-66398000I0J-150000D01*
G01*
X105499000Y-66698000D01*
G75*
G02*
X105349000Y-66848000I-150000J0D01*
G01*
X103699000Y-66848000D01*
G75*
G02*
X103549000Y-66698000I0J150000D01*
G01*
G37*
G36*
G01*
X103549000Y-65428000D02*
X103549000Y-65128000D01*
G75*
G02*
X103699000Y-64978000I150000J0D01*
G01*
X105349000Y-64978000D01*
G75*
G02*
X105499000Y-65128000I0J-150000D01*
G01*
X105499000Y-65428000D01*
G75*
G02*
X105349000Y-65578000I-150000J0D01*
G01*
X103699000Y-65578000D01*
G75*
G02*
X103549000Y-65428000I0J150000D01*
G01*
G37*
D18*
X143764000Y-50612000D03*
X143764000Y-52512000D03*
X141064000Y-52512000D03*
X141064000Y-51562000D03*
X141064000Y-50612000D03*
G36*
G01*
X108499000Y-84478000D02*
X108499000Y-84178000D01*
G75*
G02*
X108649000Y-84028000I150000J0D01*
G01*
X110299000Y-84028000D01*
G75*
G02*
X110449000Y-84178000I0J-150000D01*
G01*
X110449000Y-84478000D01*
G75*
G02*
X110299000Y-84628000I-150000J0D01*
G01*
X108649000Y-84628000D01*
G75*
G02*
X108499000Y-84478000I0J150000D01*
G01*
G37*
G36*
G01*
X108499000Y-85748000D02*
X108499000Y-85448000D01*
G75*
G02*
X108649000Y-85298000I150000J0D01*
G01*
X110299000Y-85298000D01*
G75*
G02*
X110449000Y-85448000I0J-150000D01*
G01*
X110449000Y-85748000D01*
G75*
G02*
X110299000Y-85898000I-150000J0D01*
G01*
X108649000Y-85898000D01*
G75*
G02*
X108499000Y-85748000I0J150000D01*
G01*
G37*
G36*
G01*
X108499000Y-87018000D02*
X108499000Y-86718000D01*
G75*
G02*
X108649000Y-86568000I150000J0D01*
G01*
X110299000Y-86568000D01*
G75*
G02*
X110449000Y-86718000I0J-150000D01*
G01*
X110449000Y-87018000D01*
G75*
G02*
X110299000Y-87168000I-150000J0D01*
G01*
X108649000Y-87168000D01*
G75*
G02*
X108499000Y-87018000I0J150000D01*
G01*
G37*
G36*
G01*
X108499000Y-88288000D02*
X108499000Y-87988000D01*
G75*
G02*
X108649000Y-87838000I150000J0D01*
G01*
X110299000Y-87838000D01*
G75*
G02*
X110449000Y-87988000I0J-150000D01*
G01*
X110449000Y-88288000D01*
G75*
G02*
X110299000Y-88438000I-150000J0D01*
G01*
X108649000Y-88438000D01*
G75*
G02*
X108499000Y-88288000I0J150000D01*
G01*
G37*
G36*
G01*
X108499000Y-89558000D02*
X108499000Y-89258000D01*
G75*
G02*
X108649000Y-89108000I150000J0D01*
G01*
X110299000Y-89108000D01*
G75*
G02*
X110449000Y-89258000I0J-150000D01*
G01*
X110449000Y-89558000D01*
G75*
G02*
X110299000Y-89708000I-150000J0D01*
G01*
X108649000Y-89708000D01*
G75*
G02*
X108499000Y-89558000I0J150000D01*
G01*
G37*
G36*
G01*
X108499000Y-90828000D02*
X108499000Y-90528000D01*
G75*
G02*
X108649000Y-90378000I150000J0D01*
G01*
X110299000Y-90378000D01*
G75*
G02*
X110449000Y-90528000I0J-150000D01*
G01*
X110449000Y-90828000D01*
G75*
G02*
X110299000Y-90978000I-150000J0D01*
G01*
X108649000Y-90978000D01*
G75*
G02*
X108499000Y-90828000I0J150000D01*
G01*
G37*
G36*
G01*
X108499000Y-92098000D02*
X108499000Y-91798000D01*
G75*
G02*
X108649000Y-91648000I150000J0D01*
G01*
X110299000Y-91648000D01*
G75*
G02*
X110449000Y-91798000I0J-150000D01*
G01*
X110449000Y-92098000D01*
G75*
G02*
X110299000Y-92248000I-150000J0D01*
G01*
X108649000Y-92248000D01*
G75*
G02*
X108499000Y-92098000I0J150000D01*
G01*
G37*
G36*
G01*
X103549000Y-92098000D02*
X103549000Y-91798000D01*
G75*
G02*
X103699000Y-91648000I150000J0D01*
G01*
X105349000Y-91648000D01*
G75*
G02*
X105499000Y-91798000I0J-150000D01*
G01*
X105499000Y-92098000D01*
G75*
G02*
X105349000Y-92248000I-150000J0D01*
G01*
X103699000Y-92248000D01*
G75*
G02*
X103549000Y-92098000I0J150000D01*
G01*
G37*
G36*
G01*
X103549000Y-90828000D02*
X103549000Y-90528000D01*
G75*
G02*
X103699000Y-90378000I150000J0D01*
G01*
X105349000Y-90378000D01*
G75*
G02*
X105499000Y-90528000I0J-150000D01*
G01*
X105499000Y-90828000D01*
G75*
G02*
X105349000Y-90978000I-150000J0D01*
G01*
X103699000Y-90978000D01*
G75*
G02*
X103549000Y-90828000I0J150000D01*
G01*
G37*
G36*
G01*
X103549000Y-89558000D02*
X103549000Y-89258000D01*
G75*
G02*
X103699000Y-89108000I150000J0D01*
G01*
X105349000Y-89108000D01*
G75*
G02*
X105499000Y-89258000I0J-150000D01*
G01*
X105499000Y-89558000D01*
G75*
G02*
X105349000Y-89708000I-150000J0D01*
G01*
X103699000Y-89708000D01*
G75*
G02*
X103549000Y-89558000I0J150000D01*
G01*
G37*
G36*
G01*
X103549000Y-88288000D02*
X103549000Y-87988000D01*
G75*
G02*
X103699000Y-87838000I150000J0D01*
G01*
X105349000Y-87838000D01*
G75*
G02*
X105499000Y-87988000I0J-150000D01*
G01*
X105499000Y-88288000D01*
G75*
G02*
X105349000Y-88438000I-150000J0D01*
G01*
X103699000Y-88438000D01*
G75*
G02*
X103549000Y-88288000I0J150000D01*
G01*
G37*
G36*
G01*
X103549000Y-87018000D02*
X103549000Y-86718000D01*
G75*
G02*
X103699000Y-86568000I150000J0D01*
G01*
X105349000Y-86568000D01*
G75*
G02*
X105499000Y-86718000I0J-150000D01*
G01*
X105499000Y-87018000D01*
G75*
G02*
X105349000Y-87168000I-150000J0D01*
G01*
X103699000Y-87168000D01*
G75*
G02*
X103549000Y-87018000I0J150000D01*
G01*
G37*
G36*
G01*
X103549000Y-85748000D02*
X103549000Y-85448000D01*
G75*
G02*
X103699000Y-85298000I150000J0D01*
G01*
X105349000Y-85298000D01*
G75*
G02*
X105499000Y-85448000I0J-150000D01*
G01*
X105499000Y-85748000D01*
G75*
G02*
X105349000Y-85898000I-150000J0D01*
G01*
X103699000Y-85898000D01*
G75*
G02*
X103549000Y-85748000I0J150000D01*
G01*
G37*
G36*
G01*
X103549000Y-84478000D02*
X103549000Y-84178000D01*
G75*
G02*
X103699000Y-84028000I150000J0D01*
G01*
X105349000Y-84028000D01*
G75*
G02*
X105499000Y-84178000I0J-150000D01*
G01*
X105499000Y-84478000D01*
G75*
G02*
X105349000Y-84628000I-150000J0D01*
G01*
X103699000Y-84628000D01*
G75*
G02*
X103549000Y-84478000I0J150000D01*
G01*
G37*
D19*
X131064000Y-58928000D03*
X115824000Y-107188000D03*
X131064000Y-61468000D03*
X115824000Y-104648000D03*
X131064000Y-64008000D03*
X115824000Y-102108000D03*
X131064000Y-66548000D03*
X115824000Y-99568000D03*
X131064000Y-69088000D03*
X115824000Y-97028000D03*
X131064000Y-71628000D03*
X115824000Y-94488000D03*
X131064000Y-74168000D03*
X115824000Y-91948000D03*
X131064000Y-76708000D03*
X115824000Y-89408000D03*
X131064000Y-79248000D03*
X115824000Y-86868000D03*
X131064000Y-81788000D03*
X115824000Y-84328000D03*
X131064000Y-84328000D03*
X115824000Y-81788000D03*
X131064000Y-86868000D03*
X115824000Y-79248000D03*
X131064000Y-89408000D03*
X115824000Y-76708000D03*
X131064000Y-91948000D03*
X115824000Y-74168000D03*
X131064000Y-94488000D03*
X115824000Y-71628000D03*
X131064000Y-97028000D03*
X115824000Y-69088000D03*
X131064000Y-99568000D03*
X115824000Y-66548000D03*
X131064000Y-102108000D03*
X115824000Y-64008000D03*
X131064000Y-104648000D03*
X115824000Y-61468000D03*
X131064000Y-107188000D03*
D20*
X115824000Y-58928000D03*
G36*
G01*
X119215000Y-50142000D02*
X119215000Y-50442000D01*
G75*
G02*
X119065000Y-50592000I-150000J0D01*
G01*
X117415000Y-50592000D01*
G75*
G02*
X117265000Y-50442000I0J150000D01*
G01*
X117265000Y-50142000D01*
G75*
G02*
X117415000Y-49992000I150000J0D01*
G01*
X119065000Y-49992000D01*
G75*
G02*
X119215000Y-50142000I0J-150000D01*
G01*
G37*
G36*
G01*
X119215000Y-48872000D02*
X119215000Y-49172000D01*
G75*
G02*
X119065000Y-49322000I-150000J0D01*
G01*
X117415000Y-49322000D01*
G75*
G02*
X117265000Y-49172000I0J150000D01*
G01*
X117265000Y-48872000D01*
G75*
G02*
X117415000Y-48722000I150000J0D01*
G01*
X119065000Y-48722000D01*
G75*
G02*
X119215000Y-48872000I0J-150000D01*
G01*
G37*
G36*
G01*
X119215000Y-47602000D02*
X119215000Y-47902000D01*
G75*
G02*
X119065000Y-48052000I-150000J0D01*
G01*
X117415000Y-48052000D01*
G75*
G02*
X117265000Y-47902000I0J150000D01*
G01*
X117265000Y-47602000D01*
G75*
G02*
X117415000Y-47452000I150000J0D01*
G01*
X119065000Y-47452000D01*
G75*
G02*
X119215000Y-47602000I0J-150000D01*
G01*
G37*
G36*
G01*
X119215000Y-46332000D02*
X119215000Y-46632000D01*
G75*
G02*
X119065000Y-46782000I-150000J0D01*
G01*
X117415000Y-46782000D01*
G75*
G02*
X117265000Y-46632000I0J150000D01*
G01*
X117265000Y-46332000D01*
G75*
G02*
X117415000Y-46182000I150000J0D01*
G01*
X119065000Y-46182000D01*
G75*
G02*
X119215000Y-46332000I0J-150000D01*
G01*
G37*
G36*
G01*
X124165000Y-46332000D02*
X124165000Y-46632000D01*
G75*
G02*
X124015000Y-46782000I-150000J0D01*
G01*
X122365000Y-46782000D01*
G75*
G02*
X122215000Y-46632000I0J150000D01*
G01*
X122215000Y-46332000D01*
G75*
G02*
X122365000Y-46182000I150000J0D01*
G01*
X124015000Y-46182000D01*
G75*
G02*
X124165000Y-46332000I0J-150000D01*
G01*
G37*
G36*
G01*
X124165000Y-47602000D02*
X124165000Y-47902000D01*
G75*
G02*
X124015000Y-48052000I-150000J0D01*
G01*
X122365000Y-48052000D01*
G75*
G02*
X122215000Y-47902000I0J150000D01*
G01*
X122215000Y-47602000D01*
G75*
G02*
X122365000Y-47452000I150000J0D01*
G01*
X124015000Y-47452000D01*
G75*
G02*
X124165000Y-47602000I0J-150000D01*
G01*
G37*
G36*
G01*
X124165000Y-48872000D02*
X124165000Y-49172000D01*
G75*
G02*
X124015000Y-49322000I-150000J0D01*
G01*
X122365000Y-49322000D01*
G75*
G02*
X122215000Y-49172000I0J150000D01*
G01*
X122215000Y-48872000D01*
G75*
G02*
X122365000Y-48722000I150000J0D01*
G01*
X124015000Y-48722000D01*
G75*
G02*
X124165000Y-48872000I0J-150000D01*
G01*
G37*
G36*
G01*
X124165000Y-50142000D02*
X124165000Y-50442000D01*
G75*
G02*
X124015000Y-50592000I-150000J0D01*
G01*
X122365000Y-50592000D01*
G75*
G02*
X122215000Y-50442000I0J150000D01*
G01*
X122215000Y-50142000D01*
G75*
G02*
X122365000Y-49992000I150000J0D01*
G01*
X124015000Y-49992000D01*
G75*
G02*
X124165000Y-50142000I0J-150000D01*
G01*
G37*
G36*
G01*
X108369000Y-103782000D02*
X108369000Y-103482000D01*
G75*
G02*
X108519000Y-103332000I150000J0D01*
G01*
X110169000Y-103332000D01*
G75*
G02*
X110319000Y-103482000I0J-150000D01*
G01*
X110319000Y-103782000D01*
G75*
G02*
X110169000Y-103932000I-150000J0D01*
G01*
X108519000Y-103932000D01*
G75*
G02*
X108369000Y-103782000I0J150000D01*
G01*
G37*
G36*
G01*
X108369000Y-105052000D02*
X108369000Y-104752000D01*
G75*
G02*
X108519000Y-104602000I150000J0D01*
G01*
X110169000Y-104602000D01*
G75*
G02*
X110319000Y-104752000I0J-150000D01*
G01*
X110319000Y-105052000D01*
G75*
G02*
X110169000Y-105202000I-150000J0D01*
G01*
X108519000Y-105202000D01*
G75*
G02*
X108369000Y-105052000I0J150000D01*
G01*
G37*
G36*
G01*
X108369000Y-106322000D02*
X108369000Y-106022000D01*
G75*
G02*
X108519000Y-105872000I150000J0D01*
G01*
X110169000Y-105872000D01*
G75*
G02*
X110319000Y-106022000I0J-150000D01*
G01*
X110319000Y-106322000D01*
G75*
G02*
X110169000Y-106472000I-150000J0D01*
G01*
X108519000Y-106472000D01*
G75*
G02*
X108369000Y-106322000I0J150000D01*
G01*
G37*
G36*
G01*
X108369000Y-107592000D02*
X108369000Y-107292000D01*
G75*
G02*
X108519000Y-107142000I150000J0D01*
G01*
X110169000Y-107142000D01*
G75*
G02*
X110319000Y-107292000I0J-150000D01*
G01*
X110319000Y-107592000D01*
G75*
G02*
X110169000Y-107742000I-150000J0D01*
G01*
X108519000Y-107742000D01*
G75*
G02*
X108369000Y-107592000I0J150000D01*
G01*
G37*
G36*
G01*
X108369000Y-108862000D02*
X108369000Y-108562000D01*
G75*
G02*
X108519000Y-108412000I150000J0D01*
G01*
X110169000Y-108412000D01*
G75*
G02*
X110319000Y-108562000I0J-150000D01*
G01*
X110319000Y-108862000D01*
G75*
G02*
X110169000Y-109012000I-150000J0D01*
G01*
X108519000Y-109012000D01*
G75*
G02*
X108369000Y-108862000I0J150000D01*
G01*
G37*
G36*
G01*
X108369000Y-110132000D02*
X108369000Y-109832000D01*
G75*
G02*
X108519000Y-109682000I150000J0D01*
G01*
X110169000Y-109682000D01*
G75*
G02*
X110319000Y-109832000I0J-150000D01*
G01*
X110319000Y-110132000D01*
G75*
G02*
X110169000Y-110282000I-150000J0D01*
G01*
X108519000Y-110282000D01*
G75*
G02*
X108369000Y-110132000I0J150000D01*
G01*
G37*
G36*
G01*
X108369000Y-111402000D02*
X108369000Y-111102000D01*
G75*
G02*
X108519000Y-110952000I150000J0D01*
G01*
X110169000Y-110952000D01*
G75*
G02*
X110319000Y-111102000I0J-150000D01*
G01*
X110319000Y-111402000D01*
G75*
G02*
X110169000Y-111552000I-150000J0D01*
G01*
X108519000Y-111552000D01*
G75*
G02*
X108369000Y-111402000I0J150000D01*
G01*
G37*
G36*
G01*
X103419000Y-111402000D02*
X103419000Y-111102000D01*
G75*
G02*
X103569000Y-110952000I150000J0D01*
G01*
X105219000Y-110952000D01*
G75*
G02*
X105369000Y-111102000I0J-150000D01*
G01*
X105369000Y-111402000D01*
G75*
G02*
X105219000Y-111552000I-150000J0D01*
G01*
X103569000Y-111552000D01*
G75*
G02*
X103419000Y-111402000I0J150000D01*
G01*
G37*
G36*
G01*
X103419000Y-110132000D02*
X103419000Y-109832000D01*
G75*
G02*
X103569000Y-109682000I150000J0D01*
G01*
X105219000Y-109682000D01*
G75*
G02*
X105369000Y-109832000I0J-150000D01*
G01*
X105369000Y-110132000D01*
G75*
G02*
X105219000Y-110282000I-150000J0D01*
G01*
X103569000Y-110282000D01*
G75*
G02*
X103419000Y-110132000I0J150000D01*
G01*
G37*
G36*
G01*
X103419000Y-108862000D02*
X103419000Y-108562000D01*
G75*
G02*
X103569000Y-108412000I150000J0D01*
G01*
X105219000Y-108412000D01*
G75*
G02*
X105369000Y-108562000I0J-150000D01*
G01*
X105369000Y-108862000D01*
G75*
G02*
X105219000Y-109012000I-150000J0D01*
G01*
X103569000Y-109012000D01*
G75*
G02*
X103419000Y-108862000I0J150000D01*
G01*
G37*
G36*
G01*
X103419000Y-107592000D02*
X103419000Y-107292000D01*
G75*
G02*
X103569000Y-107142000I150000J0D01*
G01*
X105219000Y-107142000D01*
G75*
G02*
X105369000Y-107292000I0J-150000D01*
G01*
X105369000Y-107592000D01*
G75*
G02*
X105219000Y-107742000I-150000J0D01*
G01*
X103569000Y-107742000D01*
G75*
G02*
X103419000Y-107592000I0J150000D01*
G01*
G37*
G36*
G01*
X103419000Y-106322000D02*
X103419000Y-106022000D01*
G75*
G02*
X103569000Y-105872000I150000J0D01*
G01*
X105219000Y-105872000D01*
G75*
G02*
X105369000Y-106022000I0J-150000D01*
G01*
X105369000Y-106322000D01*
G75*
G02*
X105219000Y-106472000I-150000J0D01*
G01*
X103569000Y-106472000D01*
G75*
G02*
X103419000Y-106322000I0J150000D01*
G01*
G37*
G36*
G01*
X103419000Y-105052000D02*
X103419000Y-104752000D01*
G75*
G02*
X103569000Y-104602000I150000J0D01*
G01*
X105219000Y-104602000D01*
G75*
G02*
X105369000Y-104752000I0J-150000D01*
G01*
X105369000Y-105052000D01*
G75*
G02*
X105219000Y-105202000I-150000J0D01*
G01*
X103569000Y-105202000D01*
G75*
G02*
X103419000Y-105052000I0J150000D01*
G01*
G37*
G36*
G01*
X103419000Y-103782000D02*
X103419000Y-103482000D01*
G75*
G02*
X103569000Y-103332000I150000J0D01*
G01*
X105219000Y-103332000D01*
G75*
G02*
X105369000Y-103482000I0J-150000D01*
G01*
X105369000Y-103782000D01*
G75*
G02*
X105219000Y-103932000I-150000J0D01*
G01*
X103569000Y-103932000D01*
G75*
G02*
X103419000Y-103782000I0J150000D01*
G01*
G37*
D11*
X134366000Y-69088000D03*
G36*
G01*
X107171500Y-60892500D02*
X106696500Y-60892500D01*
G75*
G02*
X106459000Y-60655000I0J237500D01*
G01*
X106459000Y-60155000D01*
G75*
G02*
X106696500Y-59917500I237500J0D01*
G01*
X107171500Y-59917500D01*
G75*
G02*
X107409000Y-60155000I0J-237500D01*
G01*
X107409000Y-60655000D01*
G75*
G02*
X107171500Y-60892500I-237500J0D01*
G01*
G37*
G36*
G01*
X107171500Y-62717500D02*
X106696500Y-62717500D01*
G75*
G02*
X106459000Y-62480000I0J237500D01*
G01*
X106459000Y-61980000D01*
G75*
G02*
X106696500Y-61742500I237500J0D01*
G01*
X107171500Y-61742500D01*
G75*
G02*
X107409000Y-61980000I0J-237500D01*
G01*
X107409000Y-62480000D01*
G75*
G02*
X107171500Y-62717500I-237500J0D01*
G01*
G37*
G36*
G01*
X104885500Y-60892500D02*
X104410500Y-60892500D01*
G75*
G02*
X104173000Y-60655000I0J237500D01*
G01*
X104173000Y-60155000D01*
G75*
G02*
X104410500Y-59917500I237500J0D01*
G01*
X104885500Y-59917500D01*
G75*
G02*
X105123000Y-60155000I0J-237500D01*
G01*
X105123000Y-60655000D01*
G75*
G02*
X104885500Y-60892500I-237500J0D01*
G01*
G37*
G36*
G01*
X104885500Y-62717500D02*
X104410500Y-62717500D01*
G75*
G02*
X104173000Y-62480000I0J237500D01*
G01*
X104173000Y-61980000D01*
G75*
G02*
X104410500Y-61742500I237500J0D01*
G01*
X104885500Y-61742500D01*
G75*
G02*
X105123000Y-61980000I0J-237500D01*
G01*
X105123000Y-62480000D01*
G75*
G02*
X104885500Y-62717500I-237500J0D01*
G01*
G37*
G36*
G01*
X100059500Y-66377000D02*
X99584500Y-66377000D01*
G75*
G02*
X99347000Y-66139500I0J237500D01*
G01*
X99347000Y-65639500D01*
G75*
G02*
X99584500Y-65402000I237500J0D01*
G01*
X100059500Y-65402000D01*
G75*
G02*
X100297000Y-65639500I0J-237500D01*
G01*
X100297000Y-66139500D01*
G75*
G02*
X100059500Y-66377000I-237500J0D01*
G01*
G37*
G36*
G01*
X100059500Y-68202000D02*
X99584500Y-68202000D01*
G75*
G02*
X99347000Y-67964500I0J237500D01*
G01*
X99347000Y-67464500D01*
G75*
G02*
X99584500Y-67227000I237500J0D01*
G01*
X100059500Y-67227000D01*
G75*
G02*
X100297000Y-67464500I0J-237500D01*
G01*
X100297000Y-67964500D01*
G75*
G02*
X100059500Y-68202000I-237500J0D01*
G01*
G37*
G36*
G01*
X100059500Y-58907500D02*
X99584500Y-58907500D01*
G75*
G02*
X99347000Y-58670000I0J237500D01*
G01*
X99347000Y-58170000D01*
G75*
G02*
X99584500Y-57932500I237500J0D01*
G01*
X100059500Y-57932500D01*
G75*
G02*
X100297000Y-58170000I0J-237500D01*
G01*
X100297000Y-58670000D01*
G75*
G02*
X100059500Y-58907500I-237500J0D01*
G01*
G37*
G36*
G01*
X100059500Y-60732500D02*
X99584500Y-60732500D01*
G75*
G02*
X99347000Y-60495000I0J237500D01*
G01*
X99347000Y-59995000D01*
G75*
G02*
X99584500Y-59757500I237500J0D01*
G01*
X100059500Y-59757500D01*
G75*
G02*
X100297000Y-59995000I0J-237500D01*
G01*
X100297000Y-60495000D01*
G75*
G02*
X100059500Y-60732500I-237500J0D01*
G01*
G37*
G36*
G01*
X97707000Y-66023500D02*
X97707000Y-65548500D01*
G75*
G02*
X97944500Y-65311000I237500J0D01*
G01*
X98444500Y-65311000D01*
G75*
G02*
X98682000Y-65548500I0J-237500D01*
G01*
X98682000Y-66023500D01*
G75*
G02*
X98444500Y-66261000I-237500J0D01*
G01*
X97944500Y-66261000D01*
G75*
G02*
X97707000Y-66023500I0J237500D01*
G01*
G37*
G36*
G01*
X95882000Y-66023500D02*
X95882000Y-65548500D01*
G75*
G02*
X96119500Y-65311000I237500J0D01*
G01*
X96619500Y-65311000D01*
G75*
G02*
X96857000Y-65548500I0J-237500D01*
G01*
X96857000Y-66023500D01*
G75*
G02*
X96619500Y-66261000I-237500J0D01*
G01*
X96119500Y-66261000D01*
G75*
G02*
X95882000Y-66023500I0J237500D01*
G01*
G37*
G36*
G01*
X97707000Y-58657500D02*
X97707000Y-58182500D01*
G75*
G02*
X97944500Y-57945000I237500J0D01*
G01*
X98444500Y-57945000D01*
G75*
G02*
X98682000Y-58182500I0J-237500D01*
G01*
X98682000Y-58657500D01*
G75*
G02*
X98444500Y-58895000I-237500J0D01*
G01*
X97944500Y-58895000D01*
G75*
G02*
X97707000Y-58657500I0J237500D01*
G01*
G37*
G36*
G01*
X95882000Y-58657500D02*
X95882000Y-58182500D01*
G75*
G02*
X96119500Y-57945000I237500J0D01*
G01*
X96619500Y-57945000D01*
G75*
G02*
X96857000Y-58182500I0J-237500D01*
G01*
X96857000Y-58657500D01*
G75*
G02*
X96619500Y-58895000I-237500J0D01*
G01*
X96119500Y-58895000D01*
G75*
G02*
X95882000Y-58657500I0J237500D01*
G01*
G37*
G36*
G01*
X100059500Y-69933000D02*
X99584500Y-69933000D01*
G75*
G02*
X99347000Y-69695500I0J237500D01*
G01*
X99347000Y-69195500D01*
G75*
G02*
X99584500Y-68958000I237500J0D01*
G01*
X100059500Y-68958000D01*
G75*
G02*
X100297000Y-69195500I0J-237500D01*
G01*
X100297000Y-69695500D01*
G75*
G02*
X100059500Y-69933000I-237500J0D01*
G01*
G37*
G36*
G01*
X100059500Y-71758000D02*
X99584500Y-71758000D01*
G75*
G02*
X99347000Y-71520500I0J237500D01*
G01*
X99347000Y-71020500D01*
G75*
G02*
X99584500Y-70783000I237500J0D01*
G01*
X100059500Y-70783000D01*
G75*
G02*
X100297000Y-71020500I0J-237500D01*
G01*
X100297000Y-71520500D01*
G75*
G02*
X100059500Y-71758000I-237500J0D01*
G01*
G37*
G36*
G01*
X100059500Y-62717500D02*
X99584500Y-62717500D01*
G75*
G02*
X99347000Y-62480000I0J237500D01*
G01*
X99347000Y-61980000D01*
G75*
G02*
X99584500Y-61742500I237500J0D01*
G01*
X100059500Y-61742500D01*
G75*
G02*
X100297000Y-61980000I0J-237500D01*
G01*
X100297000Y-62480000D01*
G75*
G02*
X100059500Y-62717500I-237500J0D01*
G01*
G37*
G36*
G01*
X100059500Y-64542500D02*
X99584500Y-64542500D01*
G75*
G02*
X99347000Y-64305000I0J237500D01*
G01*
X99347000Y-63805000D01*
G75*
G02*
X99584500Y-63567500I237500J0D01*
G01*
X100059500Y-63567500D01*
G75*
G02*
X100297000Y-63805000I0J-237500D01*
G01*
X100297000Y-64305000D01*
G75*
G02*
X100059500Y-64542500I-237500J0D01*
G01*
G37*
G36*
G01*
X97707000Y-69579500D02*
X97707000Y-69104500D01*
G75*
G02*
X97944500Y-68867000I237500J0D01*
G01*
X98444500Y-68867000D01*
G75*
G02*
X98682000Y-69104500I0J-237500D01*
G01*
X98682000Y-69579500D01*
G75*
G02*
X98444500Y-69817000I-237500J0D01*
G01*
X97944500Y-69817000D01*
G75*
G02*
X97707000Y-69579500I0J237500D01*
G01*
G37*
G36*
G01*
X95882000Y-69579500D02*
X95882000Y-69104500D01*
G75*
G02*
X96119500Y-68867000I237500J0D01*
G01*
X96619500Y-68867000D01*
G75*
G02*
X96857000Y-69104500I0J-237500D01*
G01*
X96857000Y-69579500D01*
G75*
G02*
X96619500Y-69817000I-237500J0D01*
G01*
X96119500Y-69817000D01*
G75*
G02*
X95882000Y-69579500I0J237500D01*
G01*
G37*
G36*
G01*
X97707000Y-62467500D02*
X97707000Y-61992500D01*
G75*
G02*
X97944500Y-61755000I237500J0D01*
G01*
X98444500Y-61755000D01*
G75*
G02*
X98682000Y-61992500I0J-237500D01*
G01*
X98682000Y-62467500D01*
G75*
G02*
X98444500Y-62705000I-237500J0D01*
G01*
X97944500Y-62705000D01*
G75*
G02*
X97707000Y-62467500I0J237500D01*
G01*
G37*
G36*
G01*
X95882000Y-62467500D02*
X95882000Y-61992500D01*
G75*
G02*
X96119500Y-61755000I237500J0D01*
G01*
X96619500Y-61755000D01*
G75*
G02*
X96857000Y-61992500I0J-237500D01*
G01*
X96857000Y-62467500D01*
G75*
G02*
X96619500Y-62705000I-237500J0D01*
G01*
X96119500Y-62705000D01*
G75*
G02*
X95882000Y-62467500I0J237500D01*
G01*
G37*
G36*
G01*
X100059500Y-98635000D02*
X99584500Y-98635000D01*
G75*
G02*
X99347000Y-98397500I0J237500D01*
G01*
X99347000Y-97897500D01*
G75*
G02*
X99584500Y-97660000I237500J0D01*
G01*
X100059500Y-97660000D01*
G75*
G02*
X100297000Y-97897500I0J-237500D01*
G01*
X100297000Y-98397500D01*
G75*
G02*
X100059500Y-98635000I-237500J0D01*
G01*
G37*
G36*
G01*
X100059500Y-100460000D02*
X99584500Y-100460000D01*
G75*
G02*
X99347000Y-100222500I0J237500D01*
G01*
X99347000Y-99722500D01*
G75*
G02*
X99584500Y-99485000I237500J0D01*
G01*
X100059500Y-99485000D01*
G75*
G02*
X100297000Y-99722500I0J-237500D01*
G01*
X100297000Y-100222500D01*
G75*
G02*
X100059500Y-100460000I-237500J0D01*
G01*
G37*
G36*
G01*
X100059500Y-91673500D02*
X99584500Y-91673500D01*
G75*
G02*
X99347000Y-91436000I0J237500D01*
G01*
X99347000Y-90936000D01*
G75*
G02*
X99584500Y-90698500I237500J0D01*
G01*
X100059500Y-90698500D01*
G75*
G02*
X100297000Y-90936000I0J-237500D01*
G01*
X100297000Y-91436000D01*
G75*
G02*
X100059500Y-91673500I-237500J0D01*
G01*
G37*
G36*
G01*
X100059500Y-93498500D02*
X99584500Y-93498500D01*
G75*
G02*
X99347000Y-93261000I0J237500D01*
G01*
X99347000Y-92761000D01*
G75*
G02*
X99584500Y-92523500I237500J0D01*
G01*
X100059500Y-92523500D01*
G75*
G02*
X100297000Y-92761000I0J-237500D01*
G01*
X100297000Y-93261000D01*
G75*
G02*
X100059500Y-93498500I-237500J0D01*
G01*
G37*
G36*
G01*
X100059500Y-84665000D02*
X99584500Y-84665000D01*
G75*
G02*
X99347000Y-84427500I0J237500D01*
G01*
X99347000Y-83927500D01*
G75*
G02*
X99584500Y-83690000I237500J0D01*
G01*
X100059500Y-83690000D01*
G75*
G02*
X100297000Y-83927500I0J-237500D01*
G01*
X100297000Y-84427500D01*
G75*
G02*
X100059500Y-84665000I-237500J0D01*
G01*
G37*
G36*
G01*
X100059500Y-86490000D02*
X99584500Y-86490000D01*
G75*
G02*
X99347000Y-86252500I0J237500D01*
G01*
X99347000Y-85752500D01*
G75*
G02*
X99584500Y-85515000I237500J0D01*
G01*
X100059500Y-85515000D01*
G75*
G02*
X100297000Y-85752500I0J-237500D01*
G01*
X100297000Y-86252500D01*
G75*
G02*
X100059500Y-86490000I-237500J0D01*
G01*
G37*
G36*
G01*
X97707000Y-98408500D02*
X97707000Y-97933500D01*
G75*
G02*
X97944500Y-97696000I237500J0D01*
G01*
X98444500Y-97696000D01*
G75*
G02*
X98682000Y-97933500I0J-237500D01*
G01*
X98682000Y-98408500D01*
G75*
G02*
X98444500Y-98646000I-237500J0D01*
G01*
X97944500Y-98646000D01*
G75*
G02*
X97707000Y-98408500I0J237500D01*
G01*
G37*
G36*
G01*
X95882000Y-98408500D02*
X95882000Y-97933500D01*
G75*
G02*
X96119500Y-97696000I237500J0D01*
G01*
X96619500Y-97696000D01*
G75*
G02*
X96857000Y-97933500I0J-237500D01*
G01*
X96857000Y-98408500D01*
G75*
G02*
X96619500Y-98646000I-237500J0D01*
G01*
X96119500Y-98646000D01*
G75*
G02*
X95882000Y-98408500I0J237500D01*
G01*
G37*
G36*
G01*
X97707000Y-91423500D02*
X97707000Y-90948500D01*
G75*
G02*
X97944500Y-90711000I237500J0D01*
G01*
X98444500Y-90711000D01*
G75*
G02*
X98682000Y-90948500I0J-237500D01*
G01*
X98682000Y-91423500D01*
G75*
G02*
X98444500Y-91661000I-237500J0D01*
G01*
X97944500Y-91661000D01*
G75*
G02*
X97707000Y-91423500I0J237500D01*
G01*
G37*
G36*
G01*
X95882000Y-91423500D02*
X95882000Y-90948500D01*
G75*
G02*
X96119500Y-90711000I237500J0D01*
G01*
X96619500Y-90711000D01*
G75*
G02*
X96857000Y-90948500I0J-237500D01*
G01*
X96857000Y-91423500D01*
G75*
G02*
X96619500Y-91661000I-237500J0D01*
G01*
X96119500Y-91661000D01*
G75*
G02*
X95882000Y-91423500I0J237500D01*
G01*
G37*
G36*
G01*
X97707000Y-84311500D02*
X97707000Y-83836500D01*
G75*
G02*
X97944500Y-83599000I237500J0D01*
G01*
X98444500Y-83599000D01*
G75*
G02*
X98682000Y-83836500I0J-237500D01*
G01*
X98682000Y-84311500D01*
G75*
G02*
X98444500Y-84549000I-237500J0D01*
G01*
X97944500Y-84549000D01*
G75*
G02*
X97707000Y-84311500I0J237500D01*
G01*
G37*
G36*
G01*
X95882000Y-84311500D02*
X95882000Y-83836500D01*
G75*
G02*
X96119500Y-83599000I237500J0D01*
G01*
X96619500Y-83599000D01*
G75*
G02*
X96857000Y-83836500I0J-237500D01*
G01*
X96857000Y-84311500D01*
G75*
G02*
X96619500Y-84549000I-237500J0D01*
G01*
X96119500Y-84549000D01*
G75*
G02*
X95882000Y-84311500I0J237500D01*
G01*
G37*
G36*
G01*
X140986500Y-113963000D02*
X141461500Y-113963000D01*
G75*
G02*
X141699000Y-114200500I0J-237500D01*
G01*
X141699000Y-114700500D01*
G75*
G02*
X141461500Y-114938000I-237500J0D01*
G01*
X140986500Y-114938000D01*
G75*
G02*
X140749000Y-114700500I0J237500D01*
G01*
X140749000Y-114200500D01*
G75*
G02*
X140986500Y-113963000I237500J0D01*
G01*
G37*
G36*
G01*
X140986500Y-112138000D02*
X141461500Y-112138000D01*
G75*
G02*
X141699000Y-112375500I0J-237500D01*
G01*
X141699000Y-112875500D01*
G75*
G02*
X141461500Y-113113000I-237500J0D01*
G01*
X140986500Y-113113000D01*
G75*
G02*
X140749000Y-112875500I0J237500D01*
G01*
X140749000Y-112375500D01*
G75*
G02*
X140986500Y-112138000I237500J0D01*
G01*
G37*
G36*
G01*
X140986500Y-122853000D02*
X141461500Y-122853000D01*
G75*
G02*
X141699000Y-123090500I0J-237500D01*
G01*
X141699000Y-123590500D01*
G75*
G02*
X141461500Y-123828000I-237500J0D01*
G01*
X140986500Y-123828000D01*
G75*
G02*
X140749000Y-123590500I0J237500D01*
G01*
X140749000Y-123090500D01*
G75*
G02*
X140986500Y-122853000I237500J0D01*
G01*
G37*
G36*
G01*
X140986500Y-121028000D02*
X141461500Y-121028000D01*
G75*
G02*
X141699000Y-121265500I0J-237500D01*
G01*
X141699000Y-121765500D01*
G75*
G02*
X141461500Y-122003000I-237500J0D01*
G01*
X140986500Y-122003000D01*
G75*
G02*
X140749000Y-121765500I0J237500D01*
G01*
X140749000Y-121265500D01*
G75*
G02*
X140986500Y-121028000I237500J0D01*
G01*
G37*
G36*
G01*
X100059500Y-102341500D02*
X99584500Y-102341500D01*
G75*
G02*
X99347000Y-102104000I0J237500D01*
G01*
X99347000Y-101604000D01*
G75*
G02*
X99584500Y-101366500I237500J0D01*
G01*
X100059500Y-101366500D01*
G75*
G02*
X100297000Y-101604000I0J-237500D01*
G01*
X100297000Y-102104000D01*
G75*
G02*
X100059500Y-102341500I-237500J0D01*
G01*
G37*
G36*
G01*
X100059500Y-104166500D02*
X99584500Y-104166500D01*
G75*
G02*
X99347000Y-103929000I0J237500D01*
G01*
X99347000Y-103429000D01*
G75*
G02*
X99584500Y-103191500I237500J0D01*
G01*
X100059500Y-103191500D01*
G75*
G02*
X100297000Y-103429000I0J-237500D01*
G01*
X100297000Y-103929000D01*
G75*
G02*
X100059500Y-104166500I-237500J0D01*
G01*
G37*
G36*
G01*
X100059500Y-95229500D02*
X99584500Y-95229500D01*
G75*
G02*
X99347000Y-94992000I0J237500D01*
G01*
X99347000Y-94492000D01*
G75*
G02*
X99584500Y-94254500I237500J0D01*
G01*
X100059500Y-94254500D01*
G75*
G02*
X100297000Y-94492000I0J-237500D01*
G01*
X100297000Y-94992000D01*
G75*
G02*
X100059500Y-95229500I-237500J0D01*
G01*
G37*
G36*
G01*
X100059500Y-97054500D02*
X99584500Y-97054500D01*
G75*
G02*
X99347000Y-96817000I0J237500D01*
G01*
X99347000Y-96317000D01*
G75*
G02*
X99584500Y-96079500I237500J0D01*
G01*
X100059500Y-96079500D01*
G75*
G02*
X100297000Y-96317000I0J-237500D01*
G01*
X100297000Y-96817000D01*
G75*
G02*
X100059500Y-97054500I-237500J0D01*
G01*
G37*
G36*
G01*
X100059500Y-88221000D02*
X99584500Y-88221000D01*
G75*
G02*
X99347000Y-87983500I0J237500D01*
G01*
X99347000Y-87483500D01*
G75*
G02*
X99584500Y-87246000I237500J0D01*
G01*
X100059500Y-87246000D01*
G75*
G02*
X100297000Y-87483500I0J-237500D01*
G01*
X100297000Y-87983500D01*
G75*
G02*
X100059500Y-88221000I-237500J0D01*
G01*
G37*
G36*
G01*
X100059500Y-90046000D02*
X99584500Y-90046000D01*
G75*
G02*
X99347000Y-89808500I0J237500D01*
G01*
X99347000Y-89308500D01*
G75*
G02*
X99584500Y-89071000I237500J0D01*
G01*
X100059500Y-89071000D01*
G75*
G02*
X100297000Y-89308500I0J-237500D01*
G01*
X100297000Y-89808500D01*
G75*
G02*
X100059500Y-90046000I-237500J0D01*
G01*
G37*
G36*
G01*
X97707000Y-102091500D02*
X97707000Y-101616500D01*
G75*
G02*
X97944500Y-101379000I237500J0D01*
G01*
X98444500Y-101379000D01*
G75*
G02*
X98682000Y-101616500I0J-237500D01*
G01*
X98682000Y-102091500D01*
G75*
G02*
X98444500Y-102329000I-237500J0D01*
G01*
X97944500Y-102329000D01*
G75*
G02*
X97707000Y-102091500I0J237500D01*
G01*
G37*
G36*
G01*
X95882000Y-102091500D02*
X95882000Y-101616500D01*
G75*
G02*
X96119500Y-101379000I237500J0D01*
G01*
X96619500Y-101379000D01*
G75*
G02*
X96857000Y-101616500I0J-237500D01*
G01*
X96857000Y-102091500D01*
G75*
G02*
X96619500Y-102329000I-237500J0D01*
G01*
X96119500Y-102329000D01*
G75*
G02*
X95882000Y-102091500I0J237500D01*
G01*
G37*
G36*
G01*
X97707000Y-94979500D02*
X97707000Y-94504500D01*
G75*
G02*
X97944500Y-94267000I237500J0D01*
G01*
X98444500Y-94267000D01*
G75*
G02*
X98682000Y-94504500I0J-237500D01*
G01*
X98682000Y-94979500D01*
G75*
G02*
X98444500Y-95217000I-237500J0D01*
G01*
X97944500Y-95217000D01*
G75*
G02*
X97707000Y-94979500I0J237500D01*
G01*
G37*
G36*
G01*
X95882000Y-94979500D02*
X95882000Y-94504500D01*
G75*
G02*
X96119500Y-94267000I237500J0D01*
G01*
X96619500Y-94267000D01*
G75*
G02*
X96857000Y-94504500I0J-237500D01*
G01*
X96857000Y-94979500D01*
G75*
G02*
X96619500Y-95217000I-237500J0D01*
G01*
X96119500Y-95217000D01*
G75*
G02*
X95882000Y-94979500I0J237500D01*
G01*
G37*
G36*
G01*
X97707000Y-87867500D02*
X97707000Y-87392500D01*
G75*
G02*
X97944500Y-87155000I237500J0D01*
G01*
X98444500Y-87155000D01*
G75*
G02*
X98682000Y-87392500I0J-237500D01*
G01*
X98682000Y-87867500D01*
G75*
G02*
X98444500Y-88105000I-237500J0D01*
G01*
X97944500Y-88105000D01*
G75*
G02*
X97707000Y-87867500I0J237500D01*
G01*
G37*
G36*
G01*
X95882000Y-87867500D02*
X95882000Y-87392500D01*
G75*
G02*
X96119500Y-87155000I237500J0D01*
G01*
X96619500Y-87155000D01*
G75*
G02*
X96857000Y-87392500I0J-237500D01*
G01*
X96857000Y-87867500D01*
G75*
G02*
X96619500Y-88105000I-237500J0D01*
G01*
X96119500Y-88105000D01*
G75*
G02*
X95882000Y-87867500I0J237500D01*
G01*
G37*
G36*
G01*
X138446500Y-51733000D02*
X138921500Y-51733000D01*
G75*
G02*
X139159000Y-51970500I0J-237500D01*
G01*
X139159000Y-52470500D01*
G75*
G02*
X138921500Y-52708000I-237500J0D01*
G01*
X138446500Y-52708000D01*
G75*
G02*
X138209000Y-52470500I0J237500D01*
G01*
X138209000Y-51970500D01*
G75*
G02*
X138446500Y-51733000I237500J0D01*
G01*
G37*
G36*
G01*
X138446500Y-49908000D02*
X138921500Y-49908000D01*
G75*
G02*
X139159000Y-50145500I0J-237500D01*
G01*
X139159000Y-50645500D01*
G75*
G02*
X138921500Y-50883000I-237500J0D01*
G01*
X138446500Y-50883000D01*
G75*
G02*
X138209000Y-50645500I0J237500D01*
G01*
X138209000Y-50145500D01*
G75*
G02*
X138446500Y-49908000I237500J0D01*
G01*
G37*
G36*
G01*
X140986500Y-86023000D02*
X141461500Y-86023000D01*
G75*
G02*
X141699000Y-86260500I0J-237500D01*
G01*
X141699000Y-86760500D01*
G75*
G02*
X141461500Y-86998000I-237500J0D01*
G01*
X140986500Y-86998000D01*
G75*
G02*
X140749000Y-86760500I0J237500D01*
G01*
X140749000Y-86260500D01*
G75*
G02*
X140986500Y-86023000I237500J0D01*
G01*
G37*
G36*
G01*
X140986500Y-84198000D02*
X141461500Y-84198000D01*
G75*
G02*
X141699000Y-84435500I0J-237500D01*
G01*
X141699000Y-84935500D01*
G75*
G02*
X141461500Y-85173000I-237500J0D01*
G01*
X140986500Y-85173000D01*
G75*
G02*
X140749000Y-84935500I0J237500D01*
G01*
X140749000Y-84435500D01*
G75*
G02*
X140986500Y-84198000I237500J0D01*
G01*
G37*
G36*
G01*
X140986500Y-94913000D02*
X141461500Y-94913000D01*
G75*
G02*
X141699000Y-95150500I0J-237500D01*
G01*
X141699000Y-95650500D01*
G75*
G02*
X141461500Y-95888000I-237500J0D01*
G01*
X140986500Y-95888000D01*
G75*
G02*
X140749000Y-95650500I0J237500D01*
G01*
X140749000Y-95150500D01*
G75*
G02*
X140986500Y-94913000I237500J0D01*
G01*
G37*
G36*
G01*
X140986500Y-93088000D02*
X141461500Y-93088000D01*
G75*
G02*
X141699000Y-93325500I0J-237500D01*
G01*
X141699000Y-93825500D01*
G75*
G02*
X141461500Y-94063000I-237500J0D01*
G01*
X140986500Y-94063000D01*
G75*
G02*
X140749000Y-93825500I0J237500D01*
G01*
X140749000Y-93325500D01*
G75*
G02*
X140986500Y-93088000I237500J0D01*
G01*
G37*
G36*
G01*
X140986500Y-103803000D02*
X141461500Y-103803000D01*
G75*
G02*
X141699000Y-104040500I0J-237500D01*
G01*
X141699000Y-104540500D01*
G75*
G02*
X141461500Y-104778000I-237500J0D01*
G01*
X140986500Y-104778000D01*
G75*
G02*
X140749000Y-104540500I0J237500D01*
G01*
X140749000Y-104040500D01*
G75*
G02*
X140986500Y-103803000I237500J0D01*
G01*
G37*
G36*
G01*
X140986500Y-101978000D02*
X141461500Y-101978000D01*
G75*
G02*
X141699000Y-102215500I0J-237500D01*
G01*
X141699000Y-102715500D01*
G75*
G02*
X141461500Y-102953000I-237500J0D01*
G01*
X140986500Y-102953000D01*
G75*
G02*
X140749000Y-102715500I0J237500D01*
G01*
X140749000Y-102215500D01*
G75*
G02*
X140986500Y-101978000I237500J0D01*
G01*
G37*
G36*
G01*
X122952500Y-54169500D02*
X123427500Y-54169500D01*
G75*
G02*
X123665000Y-54407000I0J-237500D01*
G01*
X123665000Y-54907000D01*
G75*
G02*
X123427500Y-55144500I-237500J0D01*
G01*
X122952500Y-55144500D01*
G75*
G02*
X122715000Y-54907000I0J237500D01*
G01*
X122715000Y-54407000D01*
G75*
G02*
X122952500Y-54169500I237500J0D01*
G01*
G37*
G36*
G01*
X122952500Y-52344500D02*
X123427500Y-52344500D01*
G75*
G02*
X123665000Y-52582000I0J-237500D01*
G01*
X123665000Y-53082000D01*
G75*
G02*
X123427500Y-53319500I-237500J0D01*
G01*
X122952500Y-53319500D01*
G75*
G02*
X122715000Y-53082000I0J237500D01*
G01*
X122715000Y-52582000D01*
G75*
G02*
X122952500Y-52344500I237500J0D01*
G01*
G37*
G36*
G01*
X100059500Y-124035000D02*
X99584500Y-124035000D01*
G75*
G02*
X99347000Y-123797500I0J237500D01*
G01*
X99347000Y-123297500D01*
G75*
G02*
X99584500Y-123060000I237500J0D01*
G01*
X100059500Y-123060000D01*
G75*
G02*
X100297000Y-123297500I0J-237500D01*
G01*
X100297000Y-123797500D01*
G75*
G02*
X100059500Y-124035000I-237500J0D01*
G01*
G37*
G36*
G01*
X100059500Y-125860000D02*
X99584500Y-125860000D01*
G75*
G02*
X99347000Y-125622500I0J237500D01*
G01*
X99347000Y-125122500D01*
G75*
G02*
X99584500Y-124885000I237500J0D01*
G01*
X100059500Y-124885000D01*
G75*
G02*
X100297000Y-125122500I0J-237500D01*
G01*
X100297000Y-125622500D01*
G75*
G02*
X100059500Y-125860000I-237500J0D01*
G01*
G37*
G36*
G01*
X100059500Y-117177000D02*
X99584500Y-117177000D01*
G75*
G02*
X99347000Y-116939500I0J237500D01*
G01*
X99347000Y-116439500D01*
G75*
G02*
X99584500Y-116202000I237500J0D01*
G01*
X100059500Y-116202000D01*
G75*
G02*
X100297000Y-116439500I0J-237500D01*
G01*
X100297000Y-116939500D01*
G75*
G02*
X100059500Y-117177000I-237500J0D01*
G01*
G37*
G36*
G01*
X100059500Y-119002000D02*
X99584500Y-119002000D01*
G75*
G02*
X99347000Y-118764500I0J237500D01*
G01*
X99347000Y-118264500D01*
G75*
G02*
X99584500Y-118027000I237500J0D01*
G01*
X100059500Y-118027000D01*
G75*
G02*
X100297000Y-118264500I0J-237500D01*
G01*
X100297000Y-118764500D01*
G75*
G02*
X100059500Y-119002000I-237500J0D01*
G01*
G37*
G36*
G01*
X100059500Y-110065000D02*
X99584500Y-110065000D01*
G75*
G02*
X99347000Y-109827500I0J237500D01*
G01*
X99347000Y-109327500D01*
G75*
G02*
X99584500Y-109090000I237500J0D01*
G01*
X100059500Y-109090000D01*
G75*
G02*
X100297000Y-109327500I0J-237500D01*
G01*
X100297000Y-109827500D01*
G75*
G02*
X100059500Y-110065000I-237500J0D01*
G01*
G37*
G36*
G01*
X100059500Y-111890000D02*
X99584500Y-111890000D01*
G75*
G02*
X99347000Y-111652500I0J237500D01*
G01*
X99347000Y-111152500D01*
G75*
G02*
X99584500Y-110915000I237500J0D01*
G01*
X100059500Y-110915000D01*
G75*
G02*
X100297000Y-111152500I0J-237500D01*
G01*
X100297000Y-111652500D01*
G75*
G02*
X100059500Y-111890000I-237500J0D01*
G01*
G37*
G36*
G01*
X97707000Y-123935500D02*
X97707000Y-123460500D01*
G75*
G02*
X97944500Y-123223000I237500J0D01*
G01*
X98444500Y-123223000D01*
G75*
G02*
X98682000Y-123460500I0J-237500D01*
G01*
X98682000Y-123935500D01*
G75*
G02*
X98444500Y-124173000I-237500J0D01*
G01*
X97944500Y-124173000D01*
G75*
G02*
X97707000Y-123935500I0J237500D01*
G01*
G37*
G36*
G01*
X95882000Y-123935500D02*
X95882000Y-123460500D01*
G75*
G02*
X96119500Y-123223000I237500J0D01*
G01*
X96619500Y-123223000D01*
G75*
G02*
X96857000Y-123460500I0J-237500D01*
G01*
X96857000Y-123935500D01*
G75*
G02*
X96619500Y-124173000I-237500J0D01*
G01*
X96119500Y-124173000D01*
G75*
G02*
X95882000Y-123935500I0J237500D01*
G01*
G37*
G36*
G01*
X97707000Y-116823500D02*
X97707000Y-116348500D01*
G75*
G02*
X97944500Y-116111000I237500J0D01*
G01*
X98444500Y-116111000D01*
G75*
G02*
X98682000Y-116348500I0J-237500D01*
G01*
X98682000Y-116823500D01*
G75*
G02*
X98444500Y-117061000I-237500J0D01*
G01*
X97944500Y-117061000D01*
G75*
G02*
X97707000Y-116823500I0J237500D01*
G01*
G37*
G36*
G01*
X95882000Y-116823500D02*
X95882000Y-116348500D01*
G75*
G02*
X96119500Y-116111000I237500J0D01*
G01*
X96619500Y-116111000D01*
G75*
G02*
X96857000Y-116348500I0J-237500D01*
G01*
X96857000Y-116823500D01*
G75*
G02*
X96619500Y-117061000I-237500J0D01*
G01*
X96119500Y-117061000D01*
G75*
G02*
X95882000Y-116823500I0J237500D01*
G01*
G37*
G36*
G01*
X97707000Y-109711500D02*
X97707000Y-109236500D01*
G75*
G02*
X97944500Y-108999000I237500J0D01*
G01*
X98444500Y-108999000D01*
G75*
G02*
X98682000Y-109236500I0J-237500D01*
G01*
X98682000Y-109711500D01*
G75*
G02*
X98444500Y-109949000I-237500J0D01*
G01*
X97944500Y-109949000D01*
G75*
G02*
X97707000Y-109711500I0J237500D01*
G01*
G37*
G36*
G01*
X95882000Y-109711500D02*
X95882000Y-109236500D01*
G75*
G02*
X96119500Y-108999000I237500J0D01*
G01*
X96619500Y-108999000D01*
G75*
G02*
X96857000Y-109236500I0J-237500D01*
G01*
X96857000Y-109711500D01*
G75*
G02*
X96619500Y-109949000I-237500J0D01*
G01*
X96119500Y-109949000D01*
G75*
G02*
X95882000Y-109711500I0J237500D01*
G01*
G37*
G36*
G01*
X100059500Y-127741500D02*
X99584500Y-127741500D01*
G75*
G02*
X99347000Y-127504000I0J237500D01*
G01*
X99347000Y-127004000D01*
G75*
G02*
X99584500Y-126766500I237500J0D01*
G01*
X100059500Y-126766500D01*
G75*
G02*
X100297000Y-127004000I0J-237500D01*
G01*
X100297000Y-127504000D01*
G75*
G02*
X100059500Y-127741500I-237500J0D01*
G01*
G37*
G36*
G01*
X100059500Y-129566500D02*
X99584500Y-129566500D01*
G75*
G02*
X99347000Y-129329000I0J237500D01*
G01*
X99347000Y-128829000D01*
G75*
G02*
X99584500Y-128591500I237500J0D01*
G01*
X100059500Y-128591500D01*
G75*
G02*
X100297000Y-128829000I0J-237500D01*
G01*
X100297000Y-129329000D01*
G75*
G02*
X100059500Y-129566500I-237500J0D01*
G01*
G37*
G36*
G01*
X100059500Y-113621000D02*
X99584500Y-113621000D01*
G75*
G02*
X99347000Y-113383500I0J237500D01*
G01*
X99347000Y-112883500D01*
G75*
G02*
X99584500Y-112646000I237500J0D01*
G01*
X100059500Y-112646000D01*
G75*
G02*
X100297000Y-112883500I0J-237500D01*
G01*
X100297000Y-113383500D01*
G75*
G02*
X100059500Y-113621000I-237500J0D01*
G01*
G37*
G36*
G01*
X100059500Y-115446000D02*
X99584500Y-115446000D01*
G75*
G02*
X99347000Y-115208500I0J237500D01*
G01*
X99347000Y-114708500D01*
G75*
G02*
X99584500Y-114471000I237500J0D01*
G01*
X100059500Y-114471000D01*
G75*
G02*
X100297000Y-114708500I0J-237500D01*
G01*
X100297000Y-115208500D01*
G75*
G02*
X100059500Y-115446000I-237500J0D01*
G01*
G37*
G36*
G01*
X97707000Y-127491500D02*
X97707000Y-127016500D01*
G75*
G02*
X97944500Y-126779000I237500J0D01*
G01*
X98444500Y-126779000D01*
G75*
G02*
X98682000Y-127016500I0J-237500D01*
G01*
X98682000Y-127491500D01*
G75*
G02*
X98444500Y-127729000I-237500J0D01*
G01*
X97944500Y-127729000D01*
G75*
G02*
X97707000Y-127491500I0J237500D01*
G01*
G37*
G36*
G01*
X95882000Y-127491500D02*
X95882000Y-127016500D01*
G75*
G02*
X96119500Y-126779000I237500J0D01*
G01*
X96619500Y-126779000D01*
G75*
G02*
X96857000Y-127016500I0J-237500D01*
G01*
X96857000Y-127491500D01*
G75*
G02*
X96619500Y-127729000I-237500J0D01*
G01*
X96119500Y-127729000D01*
G75*
G02*
X95882000Y-127491500I0J237500D01*
G01*
G37*
G36*
G01*
X97707000Y-120379500D02*
X97707000Y-119904500D01*
G75*
G02*
X97944500Y-119667000I237500J0D01*
G01*
X98444500Y-119667000D01*
G75*
G02*
X98682000Y-119904500I0J-237500D01*
G01*
X98682000Y-120379500D01*
G75*
G02*
X98444500Y-120617000I-237500J0D01*
G01*
X97944500Y-120617000D01*
G75*
G02*
X97707000Y-120379500I0J237500D01*
G01*
G37*
G36*
G01*
X95882000Y-120379500D02*
X95882000Y-119904500D01*
G75*
G02*
X96119500Y-119667000I237500J0D01*
G01*
X96619500Y-119667000D01*
G75*
G02*
X96857000Y-119904500I0J-237500D01*
G01*
X96857000Y-120379500D01*
G75*
G02*
X96619500Y-120617000I-237500J0D01*
G01*
X96119500Y-120617000D01*
G75*
G02*
X95882000Y-120379500I0J237500D01*
G01*
G37*
G36*
G01*
X97707000Y-113267500D02*
X97707000Y-112792500D01*
G75*
G02*
X97944500Y-112555000I237500J0D01*
G01*
X98444500Y-112555000D01*
G75*
G02*
X98682000Y-112792500I0J-237500D01*
G01*
X98682000Y-113267500D01*
G75*
G02*
X98444500Y-113505000I-237500J0D01*
G01*
X97944500Y-113505000D01*
G75*
G02*
X97707000Y-113267500I0J237500D01*
G01*
G37*
G36*
G01*
X95882000Y-113267500D02*
X95882000Y-112792500D01*
G75*
G02*
X96119500Y-112555000I237500J0D01*
G01*
X96619500Y-112555000D01*
G75*
G02*
X96857000Y-112792500I0J-237500D01*
G01*
X96857000Y-113267500D01*
G75*
G02*
X96619500Y-113505000I-237500J0D01*
G01*
X96119500Y-113505000D01*
G75*
G02*
X95882000Y-113267500I0J237500D01*
G01*
G37*
G36*
G01*
X115332500Y-49066000D02*
X115807500Y-49066000D01*
G75*
G02*
X116045000Y-49303500I0J-237500D01*
G01*
X116045000Y-49803500D01*
G75*
G02*
X115807500Y-50041000I-237500J0D01*
G01*
X115332500Y-50041000D01*
G75*
G02*
X115095000Y-49803500I0J237500D01*
G01*
X115095000Y-49303500D01*
G75*
G02*
X115332500Y-49066000I237500J0D01*
G01*
G37*
G36*
G01*
X115332500Y-47241000D02*
X115807500Y-47241000D01*
G75*
G02*
X116045000Y-47478500I0J-237500D01*
G01*
X116045000Y-47978500D01*
G75*
G02*
X115807500Y-48216000I-237500J0D01*
G01*
X115332500Y-48216000D01*
G75*
G02*
X115095000Y-47978500I0J237500D01*
G01*
X115095000Y-47478500D01*
G75*
G02*
X115332500Y-47241000I237500J0D01*
G01*
G37*
G36*
G01*
X118535000Y-44687500D02*
X118535000Y-44212500D01*
G75*
G02*
X118772500Y-43975000I237500J0D01*
G01*
X119272500Y-43975000D01*
G75*
G02*
X119510000Y-44212500I0J-237500D01*
G01*
X119510000Y-44687500D01*
G75*
G02*
X119272500Y-44925000I-237500J0D01*
G01*
X118772500Y-44925000D01*
G75*
G02*
X118535000Y-44687500I0J237500D01*
G01*
G37*
G36*
G01*
X116710000Y-44687500D02*
X116710000Y-44212500D01*
G75*
G02*
X116947500Y-43975000I237500J0D01*
G01*
X117447500Y-43975000D01*
G75*
G02*
X117685000Y-44212500I0J-237500D01*
G01*
X117685000Y-44687500D01*
G75*
G02*
X117447500Y-44925000I-237500J0D01*
G01*
X116947500Y-44925000D01*
G75*
G02*
X116710000Y-44687500I0J237500D01*
G01*
G37*
G36*
G01*
X140986500Y-58083000D02*
X141461500Y-58083000D01*
G75*
G02*
X141699000Y-58320500I0J-237500D01*
G01*
X141699000Y-58820500D01*
G75*
G02*
X141461500Y-59058000I-237500J0D01*
G01*
X140986500Y-59058000D01*
G75*
G02*
X140749000Y-58820500I0J237500D01*
G01*
X140749000Y-58320500D01*
G75*
G02*
X140986500Y-58083000I237500J0D01*
G01*
G37*
G36*
G01*
X140986500Y-56258000D02*
X141461500Y-56258000D01*
G75*
G02*
X141699000Y-56495500I0J-237500D01*
G01*
X141699000Y-56995500D01*
G75*
G02*
X141461500Y-57233000I-237500J0D01*
G01*
X140986500Y-57233000D01*
G75*
G02*
X140749000Y-56995500I0J237500D01*
G01*
X140749000Y-56495500D01*
G75*
G02*
X140986500Y-56258000I237500J0D01*
G01*
G37*
G36*
G01*
X140986500Y-66973000D02*
X141461500Y-66973000D01*
G75*
G02*
X141699000Y-67210500I0J-237500D01*
G01*
X141699000Y-67710500D01*
G75*
G02*
X141461500Y-67948000I-237500J0D01*
G01*
X140986500Y-67948000D01*
G75*
G02*
X140749000Y-67710500I0J237500D01*
G01*
X140749000Y-67210500D01*
G75*
G02*
X140986500Y-66973000I237500J0D01*
G01*
G37*
G36*
G01*
X140986500Y-65148000D02*
X141461500Y-65148000D01*
G75*
G02*
X141699000Y-65385500I0J-237500D01*
G01*
X141699000Y-65885500D01*
G75*
G02*
X141461500Y-66123000I-237500J0D01*
G01*
X140986500Y-66123000D01*
G75*
G02*
X140749000Y-65885500I0J237500D01*
G01*
X140749000Y-65385500D01*
G75*
G02*
X140986500Y-65148000I237500J0D01*
G01*
G37*
G36*
G01*
X140986500Y-75863000D02*
X141461500Y-75863000D01*
G75*
G02*
X141699000Y-76100500I0J-237500D01*
G01*
X141699000Y-76600500D01*
G75*
G02*
X141461500Y-76838000I-237500J0D01*
G01*
X140986500Y-76838000D01*
G75*
G02*
X140749000Y-76600500I0J237500D01*
G01*
X140749000Y-76100500D01*
G75*
G02*
X140986500Y-75863000I237500J0D01*
G01*
G37*
G36*
G01*
X140986500Y-74038000D02*
X141461500Y-74038000D01*
G75*
G02*
X141699000Y-74275500I0J-237500D01*
G01*
X141699000Y-74775500D01*
G75*
G02*
X141461500Y-75013000I-237500J0D01*
G01*
X140986500Y-75013000D01*
G75*
G02*
X140749000Y-74775500I0J237500D01*
G01*
X140749000Y-74275500D01*
G75*
G02*
X140986500Y-74038000I237500J0D01*
G01*
G37*
D15*
X90344000Y-77190000D03*
X90344000Y-70190000D03*
X90344000Y-63190000D03*
X85344000Y-73690000D03*
X85344000Y-66690000D03*
X85344000Y-59690000D03*
X90344000Y-73690000D03*
X90344000Y-66690000D03*
X90344000Y-59690000D03*
X85344000Y-77190000D03*
X85344000Y-70190000D03*
X85344000Y-63190000D03*
X170514000Y-109500000D03*
X170514000Y-116500000D03*
X170514000Y-123500000D03*
X175514000Y-113000000D03*
X175514000Y-120000000D03*
X175514000Y-127000000D03*
X170514000Y-113000000D03*
X170514000Y-120000000D03*
X170514000Y-127000000D03*
X175514000Y-109500000D03*
X175514000Y-116500000D03*
X175514000Y-123500000D03*
X170514000Y-84100000D03*
X170514000Y-91100000D03*
X170514000Y-98100000D03*
X175514000Y-87600000D03*
X175514000Y-94600000D03*
X175514000Y-101600000D03*
X170514000Y-87600000D03*
X170514000Y-94600000D03*
X170514000Y-101600000D03*
X175514000Y-84100000D03*
X175514000Y-91100000D03*
X175514000Y-98100000D03*
X90344000Y-102590000D03*
X90344000Y-95590000D03*
X90344000Y-88590000D03*
X85344000Y-99090000D03*
X85344000Y-92090000D03*
X85344000Y-85090000D03*
X90344000Y-99090000D03*
X90344000Y-92090000D03*
X90344000Y-85090000D03*
X85344000Y-102590000D03*
X85344000Y-95590000D03*
X85344000Y-88590000D03*
X170514000Y-58700000D03*
X170514000Y-65700000D03*
X170514000Y-72700000D03*
X175514000Y-62200000D03*
X175514000Y-69200000D03*
X175514000Y-76200000D03*
X170514000Y-62200000D03*
X170514000Y-69200000D03*
X170514000Y-76200000D03*
X175514000Y-58700000D03*
X175514000Y-65700000D03*
X175514000Y-72700000D03*
X90344000Y-127990000D03*
X90344000Y-120990000D03*
X90344000Y-113990000D03*
X85344000Y-124490000D03*
X85344000Y-117490000D03*
X85344000Y-110490000D03*
X90344000Y-124490000D03*
X90344000Y-117490000D03*
X90344000Y-110490000D03*
X85344000Y-127990000D03*
X85344000Y-120990000D03*
X85344000Y-113990000D03*
X92990000Y-51482000D03*
X99990000Y-51482000D03*
X106990000Y-51482000D03*
X96490000Y-46482000D03*
X103490000Y-46482000D03*
X110490000Y-46482000D03*
X96490000Y-51482000D03*
X103490000Y-51482000D03*
X110490000Y-51482000D03*
X92990000Y-46482000D03*
X99990000Y-46482000D03*
X106990000Y-46482000D03*
G36*
G01*
X96957000Y-67326500D02*
X96957000Y-67801500D01*
G75*
G02*
X96719500Y-68039000I-237500J0D01*
G01*
X96119500Y-68039000D01*
G75*
G02*
X95882000Y-67801500I0J237500D01*
G01*
X95882000Y-67326500D01*
G75*
G02*
X96119500Y-67089000I237500J0D01*
G01*
X96719500Y-67089000D01*
G75*
G02*
X96957000Y-67326500I0J-237500D01*
G01*
G37*
G36*
G01*
X98682000Y-67326500D02*
X98682000Y-67801500D01*
G75*
G02*
X98444500Y-68039000I-237500J0D01*
G01*
X97844500Y-68039000D01*
G75*
G02*
X97607000Y-67801500I0J237500D01*
G01*
X97607000Y-67326500D01*
G75*
G02*
X97844500Y-67089000I237500J0D01*
G01*
X98444500Y-67089000D01*
G75*
G02*
X98682000Y-67326500I0J-237500D01*
G01*
G37*
G36*
G01*
X96957000Y-59960500D02*
X96957000Y-60435500D01*
G75*
G02*
X96719500Y-60673000I-237500J0D01*
G01*
X96119500Y-60673000D01*
G75*
G02*
X95882000Y-60435500I0J237500D01*
G01*
X95882000Y-59960500D01*
G75*
G02*
X96119500Y-59723000I237500J0D01*
G01*
X96719500Y-59723000D01*
G75*
G02*
X96957000Y-59960500I0J-237500D01*
G01*
G37*
G36*
G01*
X98682000Y-59960500D02*
X98682000Y-60435500D01*
G75*
G02*
X98444500Y-60673000I-237500J0D01*
G01*
X97844500Y-60673000D01*
G75*
G02*
X97607000Y-60435500I0J237500D01*
G01*
X97607000Y-59960500D01*
G75*
G02*
X97844500Y-59723000I237500J0D01*
G01*
X98444500Y-59723000D01*
G75*
G02*
X98682000Y-59960500I0J-237500D01*
G01*
G37*
G36*
G01*
X96957000Y-70882500D02*
X96957000Y-71357500D01*
G75*
G02*
X96719500Y-71595000I-237500J0D01*
G01*
X96119500Y-71595000D01*
G75*
G02*
X95882000Y-71357500I0J237500D01*
G01*
X95882000Y-70882500D01*
G75*
G02*
X96119500Y-70645000I237500J0D01*
G01*
X96719500Y-70645000D01*
G75*
G02*
X96957000Y-70882500I0J-237500D01*
G01*
G37*
G36*
G01*
X98682000Y-70882500D02*
X98682000Y-71357500D01*
G75*
G02*
X98444500Y-71595000I-237500J0D01*
G01*
X97844500Y-71595000D01*
G75*
G02*
X97607000Y-71357500I0J237500D01*
G01*
X97607000Y-70882500D01*
G75*
G02*
X97844500Y-70645000I237500J0D01*
G01*
X98444500Y-70645000D01*
G75*
G02*
X98682000Y-70882500I0J-237500D01*
G01*
G37*
G36*
G01*
X96957000Y-63770500D02*
X96957000Y-64245500D01*
G75*
G02*
X96719500Y-64483000I-237500J0D01*
G01*
X96119500Y-64483000D01*
G75*
G02*
X95882000Y-64245500I0J237500D01*
G01*
X95882000Y-63770500D01*
G75*
G02*
X96119500Y-63533000I237500J0D01*
G01*
X96719500Y-63533000D01*
G75*
G02*
X96957000Y-63770500I0J-237500D01*
G01*
G37*
G36*
G01*
X98682000Y-63770500D02*
X98682000Y-64245500D01*
G75*
G02*
X98444500Y-64483000I-237500J0D01*
G01*
X97844500Y-64483000D01*
G75*
G02*
X97607000Y-64245500I0J237500D01*
G01*
X97607000Y-63770500D01*
G75*
G02*
X97844500Y-63533000I237500J0D01*
G01*
X98444500Y-63533000D01*
G75*
G02*
X98682000Y-63770500I0J-237500D01*
G01*
G37*
G36*
G01*
X135017500Y-137231000D02*
X135492500Y-137231000D01*
G75*
G02*
X135730000Y-137468500I0J-237500D01*
G01*
X135730000Y-138068500D01*
G75*
G02*
X135492500Y-138306000I-237500J0D01*
G01*
X135017500Y-138306000D01*
G75*
G02*
X134780000Y-138068500I0J237500D01*
G01*
X134780000Y-137468500D01*
G75*
G02*
X135017500Y-137231000I237500J0D01*
G01*
G37*
G36*
G01*
X135017500Y-135506000D02*
X135492500Y-135506000D01*
G75*
G02*
X135730000Y-135743500I0J-237500D01*
G01*
X135730000Y-136343500D01*
G75*
G02*
X135492500Y-136581000I-237500J0D01*
G01*
X135017500Y-136581000D01*
G75*
G02*
X134780000Y-136343500I0J237500D01*
G01*
X134780000Y-135743500D01*
G75*
G02*
X135017500Y-135506000I237500J0D01*
G01*
G37*
G36*
G01*
X110206500Y-62975500D02*
X110206500Y-62500500D01*
G75*
G02*
X110444000Y-62263000I237500J0D01*
G01*
X111044000Y-62263000D01*
G75*
G02*
X111281500Y-62500500I0J-237500D01*
G01*
X111281500Y-62975500D01*
G75*
G02*
X111044000Y-63213000I-237500J0D01*
G01*
X110444000Y-63213000D01*
G75*
G02*
X110206500Y-62975500I0J237500D01*
G01*
G37*
G36*
G01*
X108481500Y-62975500D02*
X108481500Y-62500500D01*
G75*
G02*
X108719000Y-62263000I237500J0D01*
G01*
X109319000Y-62263000D01*
G75*
G02*
X109556500Y-62500500I0J-237500D01*
G01*
X109556500Y-62975500D01*
G75*
G02*
X109319000Y-63213000I-237500J0D01*
G01*
X108719000Y-63213000D01*
G75*
G02*
X108481500Y-62975500I0J237500D01*
G01*
G37*
D21*
X119634000Y-129888000D03*
D22*
X119634000Y-119888000D03*
G36*
G01*
X158353997Y-114438000D02*
X159654003Y-114438000D01*
G75*
G02*
X159904000Y-114687997I0J-249997D01*
G01*
X159904000Y-115513003D01*
G75*
G02*
X159654003Y-115763000I-249997J0D01*
G01*
X158353997Y-115763000D01*
G75*
G02*
X158104000Y-115513003I0J249997D01*
G01*
X158104000Y-114687997D01*
G75*
G02*
X158353997Y-114438000I249997J0D01*
G01*
G37*
G36*
G01*
X158353997Y-111313000D02*
X159654003Y-111313000D01*
G75*
G02*
X159904000Y-111562997I0J-249997D01*
G01*
X159904000Y-112388003D01*
G75*
G02*
X159654003Y-112638000I-249997J0D01*
G01*
X158353997Y-112638000D01*
G75*
G02*
X158104000Y-112388003I0J249997D01*
G01*
X158104000Y-111562997D01*
G75*
G02*
X158353997Y-111313000I249997J0D01*
G01*
G37*
G36*
G01*
X141301500Y-45577997D02*
X141301500Y-46878003D01*
G75*
G02*
X141051503Y-47128000I-249997J0D01*
G01*
X140226497Y-47128000D01*
G75*
G02*
X139976500Y-46878003I0J249997D01*
G01*
X139976500Y-45577997D01*
G75*
G02*
X140226497Y-45328000I249997J0D01*
G01*
X141051503Y-45328000D01*
G75*
G02*
X141301500Y-45577997I0J-249997D01*
G01*
G37*
G36*
G01*
X144426500Y-45577997D02*
X144426500Y-46878003D01*
G75*
G02*
X144176503Y-47128000I-249997J0D01*
G01*
X143351497Y-47128000D01*
G75*
G02*
X143101500Y-46878003I0J249997D01*
G01*
X143101500Y-45577997D01*
G75*
G02*
X143351497Y-45328000I249997J0D01*
G01*
X144176503Y-45328000D01*
G75*
G02*
X144426500Y-45577997I0J-249997D01*
G01*
G37*
G36*
G01*
X96957000Y-99584500D02*
X96957000Y-100059500D01*
G75*
G02*
X96719500Y-100297000I-237500J0D01*
G01*
X96119500Y-100297000D01*
G75*
G02*
X95882000Y-100059500I0J237500D01*
G01*
X95882000Y-99584500D01*
G75*
G02*
X96119500Y-99347000I237500J0D01*
G01*
X96719500Y-99347000D01*
G75*
G02*
X96957000Y-99584500I0J-237500D01*
G01*
G37*
G36*
G01*
X98682000Y-99584500D02*
X98682000Y-100059500D01*
G75*
G02*
X98444500Y-100297000I-237500J0D01*
G01*
X97844500Y-100297000D01*
G75*
G02*
X97607000Y-100059500I0J237500D01*
G01*
X97607000Y-99584500D01*
G75*
G02*
X97844500Y-99347000I237500J0D01*
G01*
X98444500Y-99347000D01*
G75*
G02*
X98682000Y-99584500I0J-237500D01*
G01*
G37*
G36*
G01*
X96957000Y-92726500D02*
X96957000Y-93201500D01*
G75*
G02*
X96719500Y-93439000I-237500J0D01*
G01*
X96119500Y-93439000D01*
G75*
G02*
X95882000Y-93201500I0J237500D01*
G01*
X95882000Y-92726500D01*
G75*
G02*
X96119500Y-92489000I237500J0D01*
G01*
X96719500Y-92489000D01*
G75*
G02*
X96957000Y-92726500I0J-237500D01*
G01*
G37*
G36*
G01*
X98682000Y-92726500D02*
X98682000Y-93201500D01*
G75*
G02*
X98444500Y-93439000I-237500J0D01*
G01*
X97844500Y-93439000D01*
G75*
G02*
X97607000Y-93201500I0J237500D01*
G01*
X97607000Y-92726500D01*
G75*
G02*
X97844500Y-92489000I237500J0D01*
G01*
X98444500Y-92489000D01*
G75*
G02*
X98682000Y-92726500I0J-237500D01*
G01*
G37*
G36*
G01*
X96957000Y-85614500D02*
X96957000Y-86089500D01*
G75*
G02*
X96719500Y-86327000I-237500J0D01*
G01*
X96119500Y-86327000D01*
G75*
G02*
X95882000Y-86089500I0J237500D01*
G01*
X95882000Y-85614500D01*
G75*
G02*
X96119500Y-85377000I237500J0D01*
G01*
X96719500Y-85377000D01*
G75*
G02*
X96957000Y-85614500I0J-237500D01*
G01*
G37*
G36*
G01*
X98682000Y-85614500D02*
X98682000Y-86089500D01*
G75*
G02*
X98444500Y-86327000I-237500J0D01*
G01*
X97844500Y-86327000D01*
G75*
G02*
X97607000Y-86089500I0J237500D01*
G01*
X97607000Y-85614500D01*
G75*
G02*
X97844500Y-85377000I237500J0D01*
G01*
X98444500Y-85377000D01*
G75*
G02*
X98682000Y-85614500I0J-237500D01*
G01*
G37*
D23*
X132080000Y-45038000D03*
D24*
X132080000Y-50038000D03*
G36*
G01*
X96957000Y-103394500D02*
X96957000Y-103869500D01*
G75*
G02*
X96719500Y-104107000I-237500J0D01*
G01*
X96119500Y-104107000D01*
G75*
G02*
X95882000Y-103869500I0J237500D01*
G01*
X95882000Y-103394500D01*
G75*
G02*
X96119500Y-103157000I237500J0D01*
G01*
X96719500Y-103157000D01*
G75*
G02*
X96957000Y-103394500I0J-237500D01*
G01*
G37*
G36*
G01*
X98682000Y-103394500D02*
X98682000Y-103869500D01*
G75*
G02*
X98444500Y-104107000I-237500J0D01*
G01*
X97844500Y-104107000D01*
G75*
G02*
X97607000Y-103869500I0J237500D01*
G01*
X97607000Y-103394500D01*
G75*
G02*
X97844500Y-103157000I237500J0D01*
G01*
X98444500Y-103157000D01*
G75*
G02*
X98682000Y-103394500I0J-237500D01*
G01*
G37*
G36*
G01*
X96957000Y-96282500D02*
X96957000Y-96757500D01*
G75*
G02*
X96719500Y-96995000I-237500J0D01*
G01*
X96119500Y-96995000D01*
G75*
G02*
X95882000Y-96757500I0J237500D01*
G01*
X95882000Y-96282500D01*
G75*
G02*
X96119500Y-96045000I237500J0D01*
G01*
X96719500Y-96045000D01*
G75*
G02*
X96957000Y-96282500I0J-237500D01*
G01*
G37*
G36*
G01*
X98682000Y-96282500D02*
X98682000Y-96757500D01*
G75*
G02*
X98444500Y-96995000I-237500J0D01*
G01*
X97844500Y-96995000D01*
G75*
G02*
X97607000Y-96757500I0J237500D01*
G01*
X97607000Y-96282500D01*
G75*
G02*
X97844500Y-96045000I237500J0D01*
G01*
X98444500Y-96045000D01*
G75*
G02*
X98682000Y-96282500I0J-237500D01*
G01*
G37*
G36*
G01*
X96957000Y-89170500D02*
X96957000Y-89645500D01*
G75*
G02*
X96719500Y-89883000I-237500J0D01*
G01*
X96119500Y-89883000D01*
G75*
G02*
X95882000Y-89645500I0J237500D01*
G01*
X95882000Y-89170500D01*
G75*
G02*
X96119500Y-88933000I237500J0D01*
G01*
X96719500Y-88933000D01*
G75*
G02*
X96957000Y-89170500I0J-237500D01*
G01*
G37*
G36*
G01*
X98682000Y-89170500D02*
X98682000Y-89645500D01*
G75*
G02*
X98444500Y-89883000I-237500J0D01*
G01*
X97844500Y-89883000D01*
G75*
G02*
X97607000Y-89645500I0J237500D01*
G01*
X97607000Y-89170500D01*
G75*
G02*
X97844500Y-88933000I237500J0D01*
G01*
X98444500Y-88933000D01*
G75*
G02*
X98682000Y-89170500I0J-237500D01*
G01*
G37*
G36*
G01*
X142576500Y-48530500D02*
X142576500Y-49005500D01*
G75*
G02*
X142339000Y-49243000I-237500J0D01*
G01*
X141739000Y-49243000D01*
G75*
G02*
X141501500Y-49005500I0J237500D01*
G01*
X141501500Y-48530500D01*
G75*
G02*
X141739000Y-48293000I237500J0D01*
G01*
X142339000Y-48293000D01*
G75*
G02*
X142576500Y-48530500I0J-237500D01*
G01*
G37*
G36*
G01*
X144301500Y-48530500D02*
X144301500Y-49005500D01*
G75*
G02*
X144064000Y-49243000I-237500J0D01*
G01*
X143464000Y-49243000D01*
G75*
G02*
X143226500Y-49005500I0J237500D01*
G01*
X143226500Y-48530500D01*
G75*
G02*
X143464000Y-48293000I237500J0D01*
G01*
X144064000Y-48293000D01*
G75*
G02*
X144301500Y-48530500I0J-237500D01*
G01*
G37*
G36*
G01*
X110206500Y-82025500D02*
X110206500Y-81550500D01*
G75*
G02*
X110444000Y-81313000I237500J0D01*
G01*
X111044000Y-81313000D01*
G75*
G02*
X111281500Y-81550500I0J-237500D01*
G01*
X111281500Y-82025500D01*
G75*
G02*
X111044000Y-82263000I-237500J0D01*
G01*
X110444000Y-82263000D01*
G75*
G02*
X110206500Y-82025500I0J237500D01*
G01*
G37*
G36*
G01*
X108481500Y-82025500D02*
X108481500Y-81550500D01*
G75*
G02*
X108719000Y-81313000I237500J0D01*
G01*
X109319000Y-81313000D01*
G75*
G02*
X109556500Y-81550500I0J-237500D01*
G01*
X109556500Y-82025500D01*
G75*
G02*
X109319000Y-82263000I-237500J0D01*
G01*
X108719000Y-82263000D01*
G75*
G02*
X108481500Y-82025500I0J237500D01*
G01*
G37*
G36*
G01*
X158353997Y-86790500D02*
X159654003Y-86790500D01*
G75*
G02*
X159904000Y-87040497I0J-249997D01*
G01*
X159904000Y-87865503D01*
G75*
G02*
X159654003Y-88115500I-249997J0D01*
G01*
X158353997Y-88115500D01*
G75*
G02*
X158104000Y-87865503I0J249997D01*
G01*
X158104000Y-87040497D01*
G75*
G02*
X158353997Y-86790500I249997J0D01*
G01*
G37*
G36*
G01*
X158353997Y-83665500D02*
X159654003Y-83665500D01*
G75*
G02*
X159904000Y-83915497I0J-249997D01*
G01*
X159904000Y-84740503D01*
G75*
G02*
X159654003Y-84990500I-249997J0D01*
G01*
X158353997Y-84990500D01*
G75*
G02*
X158104000Y-84740503I0J249997D01*
G01*
X158104000Y-83915497D01*
G75*
G02*
X158353997Y-83665500I249997J0D01*
G01*
G37*
G36*
G01*
X158353997Y-95388000D02*
X159654003Y-95388000D01*
G75*
G02*
X159904000Y-95637997I0J-249997D01*
G01*
X159904000Y-96463003D01*
G75*
G02*
X159654003Y-96713000I-249997J0D01*
G01*
X158353997Y-96713000D01*
G75*
G02*
X158104000Y-96463003I0J249997D01*
G01*
X158104000Y-95637997D01*
G75*
G02*
X158353997Y-95388000I249997J0D01*
G01*
G37*
G36*
G01*
X158353997Y-92263000D02*
X159654003Y-92263000D01*
G75*
G02*
X159904000Y-92512997I0J-249997D01*
G01*
X159904000Y-93338003D01*
G75*
G02*
X159654003Y-93588000I-249997J0D01*
G01*
X158353997Y-93588000D01*
G75*
G02*
X158104000Y-93338003I0J249997D01*
G01*
X158104000Y-92512997D01*
G75*
G02*
X158353997Y-92263000I249997J0D01*
G01*
G37*
G36*
G01*
X158353997Y-104278000D02*
X159654003Y-104278000D01*
G75*
G02*
X159904000Y-104527997I0J-249997D01*
G01*
X159904000Y-105353003D01*
G75*
G02*
X159654003Y-105603000I-249997J0D01*
G01*
X158353997Y-105603000D01*
G75*
G02*
X158104000Y-105353003I0J249997D01*
G01*
X158104000Y-104527997D01*
G75*
G02*
X158353997Y-104278000I249997J0D01*
G01*
G37*
G36*
G01*
X158353997Y-101153000D02*
X159654003Y-101153000D01*
G75*
G02*
X159904000Y-101402997I0J-249997D01*
G01*
X159904000Y-102228003D01*
G75*
G02*
X159654003Y-102478000I-249997J0D01*
G01*
X158353997Y-102478000D01*
G75*
G02*
X158104000Y-102228003I0J249997D01*
G01*
X158104000Y-101402997D01*
G75*
G02*
X158353997Y-101153000I249997J0D01*
G01*
G37*
G36*
G01*
X129109500Y-53705997D02*
X129109500Y-55006003D01*
G75*
G02*
X128859503Y-55256000I-249997J0D01*
G01*
X128034497Y-55256000D01*
G75*
G02*
X127784500Y-55006003I0J249997D01*
G01*
X127784500Y-53705997D01*
G75*
G02*
X128034497Y-53456000I249997J0D01*
G01*
X128859503Y-53456000D01*
G75*
G02*
X129109500Y-53705997I0J-249997D01*
G01*
G37*
G36*
G01*
X132234500Y-53705997D02*
X132234500Y-55006003D01*
G75*
G02*
X131984503Y-55256000I-249997J0D01*
G01*
X131159497Y-55256000D01*
G75*
G02*
X130909500Y-55006003I0J249997D01*
G01*
X130909500Y-53705997D01*
G75*
G02*
X131159497Y-53456000I249997J0D01*
G01*
X131984503Y-53456000D01*
G75*
G02*
X132234500Y-53705997I0J-249997D01*
G01*
G37*
G36*
G01*
X96957000Y-125238500D02*
X96957000Y-125713500D01*
G75*
G02*
X96719500Y-125951000I-237500J0D01*
G01*
X96119500Y-125951000D01*
G75*
G02*
X95882000Y-125713500I0J237500D01*
G01*
X95882000Y-125238500D01*
G75*
G02*
X96119500Y-125001000I237500J0D01*
G01*
X96719500Y-125001000D01*
G75*
G02*
X96957000Y-125238500I0J-237500D01*
G01*
G37*
G36*
G01*
X98682000Y-125238500D02*
X98682000Y-125713500D01*
G75*
G02*
X98444500Y-125951000I-237500J0D01*
G01*
X97844500Y-125951000D01*
G75*
G02*
X97607000Y-125713500I0J237500D01*
G01*
X97607000Y-125238500D01*
G75*
G02*
X97844500Y-125001000I237500J0D01*
G01*
X98444500Y-125001000D01*
G75*
G02*
X98682000Y-125238500I0J-237500D01*
G01*
G37*
G36*
G01*
X96957000Y-118126500D02*
X96957000Y-118601500D01*
G75*
G02*
X96719500Y-118839000I-237500J0D01*
G01*
X96119500Y-118839000D01*
G75*
G02*
X95882000Y-118601500I0J237500D01*
G01*
X95882000Y-118126500D01*
G75*
G02*
X96119500Y-117889000I237500J0D01*
G01*
X96719500Y-117889000D01*
G75*
G02*
X96957000Y-118126500I0J-237500D01*
G01*
G37*
G36*
G01*
X98682000Y-118126500D02*
X98682000Y-118601500D01*
G75*
G02*
X98444500Y-118839000I-237500J0D01*
G01*
X97844500Y-118839000D01*
G75*
G02*
X97607000Y-118601500I0J237500D01*
G01*
X97607000Y-118126500D01*
G75*
G02*
X97844500Y-117889000I237500J0D01*
G01*
X98444500Y-117889000D01*
G75*
G02*
X98682000Y-118126500I0J-237500D01*
G01*
G37*
G36*
G01*
X96957000Y-111014500D02*
X96957000Y-111489500D01*
G75*
G02*
X96719500Y-111727000I-237500J0D01*
G01*
X96119500Y-111727000D01*
G75*
G02*
X95882000Y-111489500I0J237500D01*
G01*
X95882000Y-111014500D01*
G75*
G02*
X96119500Y-110777000I237500J0D01*
G01*
X96719500Y-110777000D01*
G75*
G02*
X96957000Y-111014500I0J-237500D01*
G01*
G37*
G36*
G01*
X98682000Y-111014500D02*
X98682000Y-111489500D01*
G75*
G02*
X98444500Y-111727000I-237500J0D01*
G01*
X97844500Y-111727000D01*
G75*
G02*
X97607000Y-111489500I0J237500D01*
G01*
X97607000Y-111014500D01*
G75*
G02*
X97844500Y-110777000I237500J0D01*
G01*
X98444500Y-110777000D01*
G75*
G02*
X98682000Y-111014500I0J-237500D01*
G01*
G37*
G36*
G01*
X119096500Y-52307500D02*
X119096500Y-51832500D01*
G75*
G02*
X119334000Y-51595000I237500J0D01*
G01*
X119934000Y-51595000D01*
G75*
G02*
X120171500Y-51832500I0J-237500D01*
G01*
X120171500Y-52307500D01*
G75*
G02*
X119934000Y-52545000I-237500J0D01*
G01*
X119334000Y-52545000D01*
G75*
G02*
X119096500Y-52307500I0J237500D01*
G01*
G37*
G36*
G01*
X117371500Y-52307500D02*
X117371500Y-51832500D01*
G75*
G02*
X117609000Y-51595000I237500J0D01*
G01*
X118209000Y-51595000D01*
G75*
G02*
X118446500Y-51832500I0J-237500D01*
G01*
X118446500Y-52307500D01*
G75*
G02*
X118209000Y-52545000I-237500J0D01*
G01*
X117609000Y-52545000D01*
G75*
G02*
X117371500Y-52307500I0J237500D01*
G01*
G37*
G36*
G01*
X119556500Y-55768003D02*
X119556500Y-54467997D01*
G75*
G02*
X119806497Y-54218000I249997J0D01*
G01*
X120631503Y-54218000D01*
G75*
G02*
X120881500Y-54467997I0J-249997D01*
G01*
X120881500Y-55768003D01*
G75*
G02*
X120631503Y-56018000I-249997J0D01*
G01*
X119806497Y-56018000D01*
G75*
G02*
X119556500Y-55768003I0J249997D01*
G01*
G37*
G36*
G01*
X116431500Y-55768003D02*
X116431500Y-54467997D01*
G75*
G02*
X116681497Y-54218000I249997J0D01*
G01*
X117506503Y-54218000D01*
G75*
G02*
X117756500Y-54467997I0J-249997D01*
G01*
X117756500Y-55768003D01*
G75*
G02*
X117506503Y-56018000I-249997J0D01*
G01*
X116681497Y-56018000D01*
G75*
G02*
X116431500Y-55768003I0J249997D01*
G01*
G37*
G36*
G01*
X96957000Y-121682500D02*
X96957000Y-122157500D01*
G75*
G02*
X96719500Y-122395000I-237500J0D01*
G01*
X96119500Y-122395000D01*
G75*
G02*
X95882000Y-122157500I0J237500D01*
G01*
X95882000Y-121682500D01*
G75*
G02*
X96119500Y-121445000I237500J0D01*
G01*
X96719500Y-121445000D01*
G75*
G02*
X96957000Y-121682500I0J-237500D01*
G01*
G37*
G36*
G01*
X98682000Y-121682500D02*
X98682000Y-122157500D01*
G75*
G02*
X98444500Y-122395000I-237500J0D01*
G01*
X97844500Y-122395000D01*
G75*
G02*
X97607000Y-122157500I0J237500D01*
G01*
X97607000Y-121682500D01*
G75*
G02*
X97844500Y-121445000I237500J0D01*
G01*
X98444500Y-121445000D01*
G75*
G02*
X98682000Y-121682500I0J-237500D01*
G01*
G37*
G36*
G01*
X96957000Y-114570500D02*
X96957000Y-115045500D01*
G75*
G02*
X96719500Y-115283000I-237500J0D01*
G01*
X96119500Y-115283000D01*
G75*
G02*
X95882000Y-115045500I0J237500D01*
G01*
X95882000Y-114570500D01*
G75*
G02*
X96119500Y-114333000I237500J0D01*
G01*
X96719500Y-114333000D01*
G75*
G02*
X96957000Y-114570500I0J-237500D01*
G01*
G37*
G36*
G01*
X98682000Y-114570500D02*
X98682000Y-115045500D01*
G75*
G02*
X98444500Y-115283000I-237500J0D01*
G01*
X97844500Y-115283000D01*
G75*
G02*
X97607000Y-115045500I0J237500D01*
G01*
X97607000Y-114570500D01*
G75*
G02*
X97844500Y-114333000I237500J0D01*
G01*
X98444500Y-114333000D01*
G75*
G02*
X98682000Y-114570500I0J-237500D01*
G01*
G37*
G36*
G01*
X158353997Y-58558000D02*
X159654003Y-58558000D01*
G75*
G02*
X159904000Y-58807997I0J-249997D01*
G01*
X159904000Y-59633003D01*
G75*
G02*
X159654003Y-59883000I-249997J0D01*
G01*
X158353997Y-59883000D01*
G75*
G02*
X158104000Y-59633003I0J249997D01*
G01*
X158104000Y-58807997D01*
G75*
G02*
X158353997Y-58558000I249997J0D01*
G01*
G37*
G36*
G01*
X158353997Y-55433000D02*
X159654003Y-55433000D01*
G75*
G02*
X159904000Y-55682997I0J-249997D01*
G01*
X159904000Y-56508003D01*
G75*
G02*
X159654003Y-56758000I-249997J0D01*
G01*
X158353997Y-56758000D01*
G75*
G02*
X158104000Y-56508003I0J249997D01*
G01*
X158104000Y-55682997D01*
G75*
G02*
X158353997Y-55433000I249997J0D01*
G01*
G37*
G36*
G01*
X158353997Y-67448000D02*
X159654003Y-67448000D01*
G75*
G02*
X159904000Y-67697997I0J-249997D01*
G01*
X159904000Y-68523003D01*
G75*
G02*
X159654003Y-68773000I-249997J0D01*
G01*
X158353997Y-68773000D01*
G75*
G02*
X158104000Y-68523003I0J249997D01*
G01*
X158104000Y-67697997D01*
G75*
G02*
X158353997Y-67448000I249997J0D01*
G01*
G37*
G36*
G01*
X158353997Y-64323000D02*
X159654003Y-64323000D01*
G75*
G02*
X159904000Y-64572997I0J-249997D01*
G01*
X159904000Y-65398003D01*
G75*
G02*
X159654003Y-65648000I-249997J0D01*
G01*
X158353997Y-65648000D01*
G75*
G02*
X158104000Y-65398003I0J249997D01*
G01*
X158104000Y-64572997D01*
G75*
G02*
X158353997Y-64323000I249997J0D01*
G01*
G37*
G36*
G01*
X158353997Y-76353001D02*
X159654003Y-76353001D01*
G75*
G02*
X159904000Y-76602998I0J-249997D01*
G01*
X159904000Y-77428004D01*
G75*
G02*
X159654003Y-77678001I-249997J0D01*
G01*
X158353997Y-77678001D01*
G75*
G02*
X158104000Y-77428004I0J249997D01*
G01*
X158104000Y-76602998D01*
G75*
G02*
X158353997Y-76353001I249997J0D01*
G01*
G37*
G36*
G01*
X158353997Y-73228001D02*
X159654003Y-73228001D01*
G75*
G02*
X159904000Y-73477998I0J-249997D01*
G01*
X159904000Y-74303004D01*
G75*
G02*
X159654003Y-74553001I-249997J0D01*
G01*
X158353997Y-74553001D01*
G75*
G02*
X158104000Y-74303004I0J249997D01*
G01*
X158104000Y-73477998D01*
G75*
G02*
X158353997Y-73228001I249997J0D01*
G01*
G37*
G36*
G01*
X109799000Y-101075500D02*
X109799000Y-100600500D01*
G75*
G02*
X110036500Y-100363000I237500J0D01*
G01*
X110636500Y-100363000D01*
G75*
G02*
X110874000Y-100600500I0J-237500D01*
G01*
X110874000Y-101075500D01*
G75*
G02*
X110636500Y-101313000I-237500J0D01*
G01*
X110036500Y-101313000D01*
G75*
G02*
X109799000Y-101075500I0J237500D01*
G01*
G37*
G36*
G01*
X108074000Y-101075500D02*
X108074000Y-100600500D01*
G75*
G02*
X108311500Y-100363000I237500J0D01*
G01*
X108911500Y-100363000D01*
G75*
G02*
X109149000Y-100600500I0J-237500D01*
G01*
X109149000Y-101075500D01*
G75*
G02*
X108911500Y-101313000I-237500J0D01*
G01*
X108311500Y-101313000D01*
G75*
G02*
X108074000Y-101075500I0J237500D01*
G01*
G37*
M02*
