M48
; DRILL file {KiCad 5.1.9+dfsg1-1+deb11u1} date Wed Oct 12 10:16:36 2022
; FORMAT={-:-/ absolute / metric / decimal}
; #@! TF.CreationDate,2022-10-12T10:16:36+02:00
; #@! TF.GenerationSoftware,Kicad,Pcbnew,5.1.9+dfsg1-1+deb11u1
; #@! TF.FileFunction,Plated,1,2,PTH
FMAT,2
METRIC
T1C0.400
T2C0.800
T3C1.000
T4C1.200
T5C1.300
T6C2.000
%
G90
G05
T1
X2.136Y89.708
X2.136Y84.628
X2.136Y79.548
X2.136Y74.468
X2.136Y69.388
X2.136Y64.308
X2.136Y59.228
X2.136Y54.148
X2.136Y49.068
X2.136Y43.988
X2.136Y38.908
X2.136Y33.828
X2.136Y28.748
X2.136Y23.668
X2.136Y18.588
X2.136Y13.508
X2.136Y9.698
X7.216Y89.708
X7.216Y33.828
X8.486Y84.628
X8.486Y59.228
X8.486Y8.428
X9.248Y2.078
X9.398Y98.598
X9.502Y92.629
X12.296Y64.308
X13.566Y98.598
X13.566Y2.078
X14.478Y79.375
X14.478Y75.946
X14.478Y72.309
X14.478Y68.834
X14.605Y53.767
X14.605Y50.211
X14.605Y46.782
X14.605Y43.226
X14.605Y39.797
X14.605Y36.114
X14.605Y28.575
X14.605Y25.019
X14.605Y21.717
X14.605Y17.907
X14.605Y14.351
X14.605Y10.668
X14.836Y83.358
X14.836Y66.848
X16.233Y57.958
X16.233Y32.558
X16.36Y53.64
X16.36Y50.084
X16.36Y46.782
X16.36Y43.226
X16.36Y39.67
X16.36Y36.114
X16.36Y28.494
X16.36Y24.938
X16.36Y21.636
X16.383Y79.294
X16.383Y75.738
X16.383Y72.136
X16.383Y68.453
X16.383Y17.907
X16.383Y14.351
X16.383Y10.668
X17.145Y62.865
X17.272Y34.798
X18.646Y98.598
X18.646Y2.078
X19.304Y32.766
X20.043Y57.958
X20.066Y66.675
X20.066Y34.798
X20.193Y84.836
X21.082Y38.608
X21.717Y48.387
X21.971Y51.943
X22.583Y10.968
X22.86Y26.67
X22.987Y30.099
X22.987Y28.448
X23.495Y13.208
X23.726Y98.598
X23.726Y2.078
X23.876Y29.464
X23.98Y47.544
X24.11Y66.724
X24.384Y85.471
X24.488Y44.242
X24.488Y40.432
X24.638Y23.368
X25.504Y27.178
X25.758Y74.976
X25.758Y46.147
X26.266Y57.958
X26.266Y9.698
X26.515Y76.749
X27.028Y71.166
X27.282Y73.706
X27.536Y65.578
X27.536Y26.208
X27.79Y43.48
X28.194Y85.725
X28.806Y98.598
X28.806Y2.078
X29.187Y46.909
X29.187Y45.512
X30.734Y82.931
X31.346Y27.478
X31.346Y22.398
X31.346Y17.318
X31.346Y12.238
X31.346Y7.158
X31.346Y2.078
X31.346Y41.702
X31.473Y46.655
X31.6Y77.77
X31.6Y58.72
X31.75Y34.544
X32.004Y62.865
X32.235Y88.057
X32.616Y41.448
X32.616Y28.748
X32.743Y46.909
X33.886Y98.598
X35.56Y94.361
X36.75Y94.327
X37.696Y28.748
X37.823Y72.436
X37.823Y40.432
X37.823Y37.384
X37.95Y82.469
X37.95Y78.532
X37.95Y60.371
X37.95Y56.942
X37.95Y54.402
X38.204Y69.642
X38.204Y67.102
X38.204Y51.862
X38.303Y86.335
X38.712Y46.782
X38.712Y44.242
X38.712Y41.702
X38.966Y50.465
X39.474Y72.436
X39.474Y61.514
X39.982Y78.532
X40.236Y98.598
X40.64Y89.992
X40.744Y34.717
X41.148Y88.773
X42.014Y51.862
X42.559Y68.453
X42.776Y63.292
X42.776Y28.748
X42.903Y50.211
X42.903Y39.924
X42.903Y36.495
X43.03Y54.402
X43.157Y61.387
X44.009Y70.866
X44.046Y56.942
X45.189Y95.677
X45.316Y81.072
X45.316Y77.262
X45.824Y84.628
X45.951Y63.8
X46.078Y69.642
X46.078Y67.102
X46.332Y86.152
X46.332Y32.685
X46.459Y74.341
X46.586Y98.598
X46.586Y44.242
X46.586Y39.67
X46.586Y35.86
X46.84Y41.702
X46.967Y92.248
X47.094Y46.782
X47.856Y28.748
X47.983Y88.819
X47.983Y83.993
X48.237Y72.436
X48.237Y68.372
X48.237Y65.705
X48.237Y61.641
X48.364Y82.469
X48.364Y77.262
X48.364Y45.512
X48.618Y41.829
X50.43Y26.289
X51.666Y98.598
X52.174Y33.955
X52.174Y30.018
X52.428Y57.069
X52.428Y51.862
X52.428Y44.242
X52.555Y72.182
X52.578Y31.496
X52.936Y78.405
X53.19Y85.009
X53.19Y2.74
X53.317Y36.622
X53.571Y34.463
X53.698Y40.94
X54.356Y75.692
X54.714Y79.167
X54.714Y69.896
X54.714Y67.61
X54.714Y65.197
X54.714Y62.53
X54.737Y59.436
X54.763Y24.586
X54.841Y1.316
X54.864Y86.868
X54.864Y57.531
X54.968Y55.164
X54.968Y48.306
X55.118Y42.164
X55.476Y98.598
X55.476Y52.624
X55.476Y43.988
X55.499Y46.736
X55.603Y25.319
X55.88Y35.56
X55.88Y31.877
X56.21Y55.926
X56.492Y2.713
X56.619Y26.081
X56.619Y24.557
X56.769Y72.39
X56.769Y70.866
X56.883Y39.416
X57.0Y83.612
X57.658Y85.725
X57.762Y69.111
X57.762Y63.396
X57.785Y66.04
X58.373Y27.883
X59.032Y81.961
X59.307Y73.071
X59.307Y66.869
X59.309Y64.157
X59.69Y86.914
X60.683Y95.319
X60.683Y57.069
X60.81Y52.624
X60.81Y48.306
X60.81Y39.416
X60.81Y35.098
X60.81Y23.414
X60.81Y43.988
X60.815Y79.045
X60.815Y70.155
X60.816Y61.52
X60.816Y14.53
X60.835Y42.464
X60.84Y51.105
X60.841Y33.58
X61.572Y91.74
X61.676Y85.136
X61.699Y62.657
X61.826Y49.83
X61.953Y34.59
X62.357Y68.199
X62.455Y33.58
X62.461Y23.414
X62.461Y14.524
X62.588Y70.15
X62.588Y51.1
X62.588Y42.464
X62.593Y79.045
X62.594Y61.52
X62.992Y85.09
X64.112Y80.31
X64.112Y79.04
X64.112Y77.77
X64.112Y61.514
X64.112Y33.574
X64.366Y71.42
X64.366Y70.15
X64.366Y68.88
X64.366Y62.657
X64.366Y52.243
X64.366Y51.1
X64.366Y49.83
X64.366Y43.861
X64.366Y42.464
X64.366Y41.067
X64.366Y34.717
X64.366Y24.684
X64.366Y23.414
X64.366Y22.144
X64.366Y15.794
X64.366Y14.524
X64.366Y13.254
X66.04Y86.914
X66.779Y92.883
X68.557Y86.914
X68.834Y83.566
X68.834Y81.325
X68.834Y78.994
X68.834Y74.676
X68.834Y72.435
X68.834Y70.104
X68.834Y66.04
X68.834Y63.799
X68.834Y61.468
X68.834Y55.626
X68.834Y53.385
X68.834Y51.054
X68.834Y46.99
X68.834Y44.749
X68.834Y42.418
X68.834Y38.1
X68.834Y35.859
X68.834Y33.528
X68.834Y27.94
X68.834Y25.699
X68.834Y23.368
X68.834Y19.05
X68.834Y16.809
X68.834Y14.478
X74.93Y87.122
X76.962Y84.201
X76.962Y83.058
X76.962Y80.264
X76.962Y78.74
X76.962Y76.073
X76.962Y74.93
X76.962Y71.374
X76.962Y69.85
X76.962Y67.183
X76.962Y66.04
X76.962Y62.738
X76.962Y61.214
X76.962Y56.261
X76.962Y55.118
X76.962Y52.324
X76.962Y50.8
X76.962Y48.133
X76.962Y46.99
X76.962Y43.688
X76.962Y42.164
X76.962Y39.243
X76.962Y38.1
X76.962Y34.798
X76.962Y33.274
X76.962Y28.829
X76.962Y27.686
X76.962Y24.638
X76.962Y23.114
X76.962Y20.193
X76.962Y19.05
X76.962Y15.748
X76.962Y14.224
X78.336Y87.168
X78.59Y79.802
X78.59Y71.166
X78.59Y62.022
X78.59Y51.735
X78.59Y42.972
X78.59Y34.082
X78.59Y23.922
X78.59Y15.032
X82.804Y87.168
X84.963Y3.175
X88.496Y87.168
X89.154Y3.048
X89.766Y98.598
X89.766Y94.534
X93.576Y87.168
X96.012Y89.662
X98.656Y89.708
X98.656Y87.168
T2
X35.41Y83.612
X35.41Y81.072
X35.41Y78.532
X35.41Y75.992
X35.41Y73.452
X35.41Y70.912
X35.41Y68.372
X35.41Y65.832
X35.41Y63.292
X35.41Y60.752
X35.41Y58.212
X35.41Y55.672
X35.41Y53.132
X35.41Y50.592
X35.41Y48.052
X35.41Y45.512
X35.41Y42.972
X35.41Y40.432
X35.41Y37.892
X35.41Y35.352
X50.65Y83.612
X50.65Y81.072
X50.65Y78.532
X50.65Y75.992
X50.65Y73.452
X50.65Y70.912
X50.65Y68.372
X50.65Y65.832
X50.65Y63.292
X50.65Y60.752
X50.65Y58.212
X50.65Y55.672
X50.65Y53.132
X50.65Y50.592
X50.65Y48.052
X50.65Y45.512
X50.65Y42.972
X50.65Y40.432
X50.65Y37.892
X50.65Y35.352
T3
X55.372Y95.17
X55.372Y90.17
T4
X4.93Y80.818
X4.93Y77.318
X4.93Y73.818
X4.93Y70.318
X4.93Y66.818
X4.93Y63.318
X4.93Y55.418
X4.93Y51.918
X4.93Y48.418
X4.93Y44.918
X4.93Y41.418
X4.93Y37.918
X4.93Y30.018
X4.93Y26.518
X4.93Y23.018
X4.93Y19.518
X4.93Y16.018
X4.93Y12.518
X9.93Y80.818
X9.93Y77.318
X9.93Y73.818
X9.93Y70.318
X9.93Y66.818
X9.93Y63.318
X9.93Y55.418
X9.93Y51.918
X9.93Y48.418
X9.93Y44.918
X9.93Y41.418
X9.93Y37.918
X9.93Y30.018
X9.93Y26.518
X9.93Y23.018
X9.93Y19.518
X9.93Y16.018
X9.93Y12.518
X12.576Y95.042
X12.576Y90.042
X16.076Y95.042
X16.076Y90.042
X19.576Y95.042
X19.576Y90.042
X23.076Y95.042
X23.076Y90.042
X26.576Y95.042
X26.576Y90.042
X30.076Y95.042
X30.076Y90.042
X69.726Y95.296
X69.726Y90.296
X73.226Y95.296
X73.226Y90.296
X76.726Y95.296
X76.726Y90.296
X80.226Y95.296
X80.226Y90.296
X83.726Y95.296
X83.726Y90.296
X87.226Y95.296
X87.226Y90.296
X90.1Y81.808
X90.1Y78.308
X90.1Y74.808
X90.1Y71.308
X90.1Y67.808
X90.1Y64.308
X90.1Y56.408
X90.1Y52.908
X90.1Y49.408
X90.1Y45.908
X90.1Y42.408
X90.1Y38.908
X90.1Y31.008
X90.1Y27.508
X90.1Y24.008
X90.1Y20.508
X90.1Y17.008
X90.1Y13.508
X95.1Y81.808
X95.1Y78.308
X95.1Y74.808
X95.1Y71.308
X95.1Y67.808
X95.1Y64.308
X95.1Y56.408
X95.1Y52.908
X95.1Y49.408
X95.1Y45.908
X95.1Y42.408
X95.1Y38.908
X95.1Y31.008
X95.1Y27.508
X95.1Y24.008
X95.1Y20.508
X95.1Y17.008
X95.1Y13.508
T5
X59.921Y6.523
X82.421Y6.523
T6
X39.22Y20.62
X39.22Y10.62
T0
M30
