M48
; DRILL file {KiCad 5.1.9+dfsg1-1} date Thu Dec  2 00:27:41 2021
; FORMAT={-:-/ absolute / metric / decimal}
; #@! TF.CreationDate,2021-12-02T00:27:41+01:00
; #@! TF.GenerationSoftware,Kicad,Pcbnew,5.1.9+dfsg1-1
; #@! TF.FileFunction,Plated,1,2,PTH
FMAT,2
METRIC
T1C0.400
T2C0.800
T3C1.000
T4C1.200
T5C1.300
T6C2.000
%
G90
G05
T1
X82.55Y-50.8
X82.55Y-55.88
X82.55Y-60.96
X82.55Y-66.04
X82.55Y-71.12
X82.55Y-76.2
X82.55Y-81.28
X82.55Y-86.36
X82.55Y-91.44
X82.55Y-96.52
X82.55Y-101.6
X82.55Y-106.68
X82.55Y-111.76
X82.55Y-116.84
X82.55Y-121.92
X82.55Y-127.0
X82.55Y-130.81
X87.63Y-50.8
X87.63Y-106.68
X88.9Y-41.91
X88.9Y-55.88
X88.9Y-81.28
X88.9Y-132.08
X89.662Y-138.43
X89.916Y-47.879
X92.71Y-76.2
X93.98Y-41.91
X93.98Y-138.43
X94.996Y-61.214
X94.996Y-64.77
X94.996Y-68.326
X94.996Y-71.628
X94.996Y-86.614
X94.996Y-90.17
X94.996Y-93.472
X94.996Y-97.028
X94.996Y-100.584
X94.996Y-104.14
X94.996Y-112.014
X94.996Y-115.57
X94.996Y-118.872
X94.996Y-122.428
X94.996Y-125.984
X94.996Y-129.54
X95.25Y-57.15
X95.25Y-73.66
X95.25Y-82.55
X95.25Y-107.95
X98.044Y-105.537
X99.06Y-41.91
X99.06Y-73.66
X99.06Y-77.47
X99.06Y-82.55
X99.06Y-138.43
X99.187Y-107.823
X101.219Y-105.537
X101.6Y-129.54
X101.727Y-102.108
X102.108Y-88.138
X102.108Y-90.424
X102.616Y-110.617
X102.616Y-114.554
X103.886Y-112.268
X104.14Y-41.91
X104.14Y-118.11
X104.14Y-125.73
X104.14Y-138.43
X104.394Y-92.964
X104.394Y-113.284
X104.524Y-73.784
X104.902Y-98.298
X104.902Y-102.108
X105.41Y-55.88
X105.918Y-114.554
X106.172Y-65.532
X106.172Y-94.361
X106.68Y-82.55
X106.68Y-130.81
X106.929Y-63.759
X107.442Y-69.342
X107.696Y-66.802
X107.95Y-74.93
X107.95Y-114.3
X108.204Y-99.06
X109.22Y-41.91
X109.22Y-138.43
X109.601Y-93.599
X109.601Y-97.028
X110.49Y-55.88
X111.76Y-113.03
X111.76Y-118.11
X111.76Y-123.19
X111.76Y-128.27
X111.76Y-133.35
X111.76Y-138.43
X111.76Y-100.838
X111.887Y-95.885
X112.014Y-62.738
X112.014Y-81.788
X112.194Y-108.299
X112.649Y-52.451
X112.649Y-54.991
X113.03Y-78.74
X113.03Y-99.06
X113.03Y-111.76
X113.157Y-93.599
X114.3Y-41.91
X116.402Y-46.435
X118.11Y-111.76
X118.237Y-70.104
X118.237Y-102.108
X118.237Y-105.156
X118.364Y-60.071
X118.364Y-64.008
X118.364Y-82.169
X118.364Y-85.598
X118.364Y-88.138
X118.618Y-72.898
X118.618Y-75.438
X118.618Y-77.47
X118.618Y-90.678
X119.126Y-95.758
X119.126Y-98.298
X119.126Y-100.838
X119.38Y-92.075
X119.888Y-70.104
X119.888Y-81.026
X120.396Y-64.008
X120.645Y-52.075
X120.65Y-41.91
X121.158Y-107.823
X121.412Y-55.118
X122.428Y-90.678
X122.973Y-71.628
X123.19Y-79.248
X123.19Y-111.76
X123.317Y-92.329
X123.317Y-102.616
X123.317Y-106.045
X123.444Y-88.138
X123.571Y-81.153
X124.423Y-74.168
X124.46Y-85.598
X124.841Y-45.085
X125.73Y-61.468
X125.73Y-65.278
X126.238Y-57.912
X126.365Y-78.74
X126.492Y-72.898
X126.492Y-75.438
X126.746Y-54.356
X126.746Y-109.855
X126.873Y-68.199
X127.0Y-41.91
X127.0Y-98.298
X127.0Y-102.87
X127.0Y-106.68
X127.254Y-100.838
X127.381Y-48.26
X127.508Y-95.758
X128.27Y-111.76
X128.397Y-51.689
X128.397Y-56.515
X128.651Y-70.104
X128.651Y-74.168
X128.651Y-76.835
X128.651Y-80.899
X128.778Y-60.071
X128.778Y-65.278
X128.778Y-97.028
X129.032Y-100.711
X132.08Y-41.91
X132.588Y-108.585
X132.588Y-110.49
X132.842Y-85.471
X132.842Y-90.678
X132.842Y-98.298
X132.969Y-70.358
X133.35Y-64.135
X133.604Y-57.531
X133.604Y-109.601
X133.604Y-137.768
X133.731Y-105.918
X133.985Y-108.077
X134.112Y-101.6
X135.128Y-53.34
X135.128Y-61.341
X135.128Y-66.802
X135.128Y-70.612
X135.128Y-72.898
X135.128Y-75.311
X135.128Y-77.978
X135.128Y-80.772
X135.177Y-115.922
X135.255Y-139.192
X135.382Y-82.804
X135.382Y-85.344
X135.382Y-92.202
X135.382Y-93.98
X135.89Y-41.91
X135.89Y-87.884
X135.89Y-96.52
X136.017Y-115.189
X136.271Y-95.377
X136.271Y-105.41
X136.624Y-84.582
X136.906Y-137.795
X137.033Y-114.427
X137.033Y-115.951
X137.16Y-69.469
X137.16Y-71.628
X137.297Y-101.092
X137.414Y-56.896
X138.176Y-75.438
X138.176Y-73.66
X138.176Y-79.248
X138.684Y-53.594
X138.787Y-112.625
X138.938Y-46.228
X139.446Y-58.547
X139.721Y-67.437
X139.721Y-73.639
X139.724Y-76.35
X140.462Y-48.768
X141.097Y-83.439
X141.224Y-87.884
X141.224Y-92.202
X141.224Y-101.092
X141.224Y-105.41
X141.224Y-117.094
X141.224Y-96.52
X141.229Y-61.463
X141.229Y-70.353
X141.23Y-78.988
X141.23Y-125.978
X141.249Y-98.044
X141.254Y-89.403
X141.255Y-106.928
X142.113Y-77.851
X142.24Y-90.678
X142.367Y-53.594
X142.367Y-105.918
X142.869Y-106.928
X142.875Y-117.094
X142.875Y-125.984
X143.002Y-70.358
X143.002Y-89.408
X143.002Y-98.044
X143.007Y-61.463
X143.008Y-78.988
X144.526Y-60.198
X144.526Y-61.468
X144.526Y-62.738
X144.526Y-78.994
X144.526Y-106.934
X144.78Y-69.088
X144.78Y-70.358
X144.78Y-71.628
X144.78Y-77.851
X144.78Y-88.265
X144.78Y-89.408
X144.78Y-90.678
X144.78Y-96.647
X144.78Y-98.044
X144.78Y-99.441
X144.78Y-105.791
X144.78Y-115.824
X144.78Y-117.094
X144.78Y-118.364
X144.78Y-124.714
X144.78Y-125.984
X144.78Y-127.254
X145.542Y-53.594
X147.193Y-47.625
X148.971Y-53.594
X155.344Y-53.386
X158.75Y-53.34
X159.004Y-60.706
X159.004Y-69.342
X159.004Y-78.486
X159.004Y-88.773
X159.004Y-97.536
X159.004Y-106.426
X159.004Y-116.586
X159.004Y-125.476
X163.218Y-53.34
X168.91Y-53.34
X170.18Y-41.91
X171.069Y-48.641
X173.99Y-53.34
X176.53Y-50.292
X179.07Y-50.8
X179.07Y-53.34
T2
X115.824Y-58.928
X115.824Y-61.468
X115.824Y-64.008
X115.824Y-66.548
X115.824Y-69.088
X115.824Y-71.628
X115.824Y-74.168
X115.824Y-76.708
X115.824Y-79.248
X115.824Y-81.788
X115.824Y-84.328
X115.824Y-86.868
X115.824Y-89.408
X115.824Y-91.948
X115.824Y-94.488
X115.824Y-97.028
X115.824Y-99.568
X115.824Y-102.108
X115.824Y-104.648
X115.824Y-107.188
X131.064Y-58.928
X131.064Y-61.468
X131.064Y-64.008
X131.064Y-66.548
X131.064Y-69.088
X131.064Y-71.628
X131.064Y-74.168
X131.064Y-76.708
X131.064Y-79.248
X131.064Y-81.788
X131.064Y-84.328
X131.064Y-86.868
X131.064Y-89.408
X131.064Y-91.948
X131.064Y-94.488
X131.064Y-97.028
X131.064Y-99.568
X131.064Y-102.108
X131.064Y-104.648
X131.064Y-107.188
T3
X132.08Y-45.038
X132.08Y-50.038
T4
X85.344Y-59.69
X85.344Y-63.19
X85.344Y-66.69
X85.344Y-70.19
X85.344Y-73.69
X85.344Y-77.19
X85.344Y-85.09
X85.344Y-88.59
X85.344Y-92.09
X85.344Y-95.59
X85.344Y-99.09
X85.344Y-102.59
X85.344Y-110.49
X85.344Y-113.99
X85.344Y-117.49
X85.344Y-120.99
X85.344Y-124.49
X85.344Y-127.99
X90.344Y-59.69
X90.344Y-63.19
X90.344Y-66.69
X90.344Y-70.19
X90.344Y-73.69
X90.344Y-77.19
X90.344Y-85.09
X90.344Y-88.59
X90.344Y-92.09
X90.344Y-95.59
X90.344Y-99.09
X90.344Y-102.59
X90.344Y-110.49
X90.344Y-113.99
X90.344Y-117.49
X90.344Y-120.99
X90.344Y-124.49
X90.344Y-127.99
X92.99Y-46.482
X92.99Y-51.482
X96.49Y-46.482
X96.49Y-51.482
X99.99Y-46.482
X99.99Y-51.482
X103.49Y-46.482
X103.49Y-51.482
X106.99Y-46.482
X106.99Y-51.482
X110.49Y-46.482
X110.49Y-51.482
X150.14Y-45.212
X150.14Y-50.212
X153.64Y-45.212
X153.64Y-50.212
X157.14Y-45.212
X157.14Y-50.212
X160.64Y-45.212
X160.64Y-50.212
X164.14Y-45.212
X164.14Y-50.212
X167.64Y-45.212
X167.64Y-50.212
X170.514Y-58.7
X170.514Y-62.2
X170.514Y-65.7
X170.514Y-69.2
X170.514Y-72.7
X170.514Y-76.2
X170.514Y-84.1
X170.514Y-87.6
X170.514Y-91.1
X170.514Y-94.6
X170.514Y-98.1
X170.514Y-101.6
X170.514Y-109.5
X170.514Y-113.0
X170.514Y-116.5
X170.514Y-120.0
X170.514Y-123.5
X170.514Y-127.0
X175.514Y-58.7
X175.514Y-62.2
X175.514Y-65.7
X175.514Y-69.2
X175.514Y-72.7
X175.514Y-76.2
X175.514Y-84.1
X175.514Y-87.6
X175.514Y-91.1
X175.514Y-94.6
X175.514Y-98.1
X175.514Y-101.6
X175.514Y-109.5
X175.514Y-113.0
X175.514Y-116.5
X175.514Y-120.0
X175.514Y-123.5
X175.514Y-127.0
T5
X140.335Y-133.985
X162.835Y-133.985
T6
X119.634Y-119.888
X119.634Y-129.888
T0
M30
