%TF.GenerationSoftware,KiCad,Pcbnew,5.1.9+dfsg1-1*%
%TF.CreationDate,2021-12-02T00:27:29+01:00*%
%TF.ProjectId,RTMPin,52544d50-696e-42e6-9b69-6361645f7063,rev?*%
%TF.SameCoordinates,Original*%
%TF.FileFunction,Paste,Bot*%
%TF.FilePolarity,Positive*%
%FSLAX46Y46*%
G04 Gerber Fmt 4.6, Leading zero omitted, Abs format (unit mm)*
G04 Created by KiCad (PCBNEW 5.1.9+dfsg1-1) date 2021-12-02 00:27:29*
%MOMM*%
%LPD*%
G01*
G04 APERTURE LIST*
%ADD10R,1.800000X2.500000*%
%ADD11R,1.000000X1.000000*%
G04 APERTURE END LIST*
G36*
G01*
X139883000Y-56912500D02*
X139883000Y-57387500D01*
G75*
G02*
X139645500Y-57625000I-237500J0D01*
G01*
X139045500Y-57625000D01*
G75*
G02*
X138808000Y-57387500I0J237500D01*
G01*
X138808000Y-56912500D01*
G75*
G02*
X139045500Y-56675000I237500J0D01*
G01*
X139645500Y-56675000D01*
G75*
G02*
X139883000Y-56912500I0J-237500D01*
G01*
G37*
G36*
G01*
X141608000Y-56912500D02*
X141608000Y-57387500D01*
G75*
G02*
X141370500Y-57625000I-237500J0D01*
G01*
X140770500Y-57625000D01*
G75*
G02*
X140533000Y-57387500I0J237500D01*
G01*
X140533000Y-56912500D01*
G75*
G02*
X140770500Y-56675000I237500J0D01*
G01*
X141370500Y-56675000D01*
G75*
G02*
X141608000Y-56912500I0J-237500D01*
G01*
G37*
G36*
G01*
X131252872Y-113173748D02*
X131588748Y-112837872D01*
G75*
G02*
X131924624Y-112837872I167938J-167938D01*
G01*
X132348888Y-113262136D01*
G75*
G02*
X132348888Y-113598012I-167938J-167938D01*
G01*
X132013012Y-113933888D01*
G75*
G02*
X131677136Y-113933888I-167938J167938D01*
G01*
X131252872Y-113509624D01*
G75*
G02*
X131252872Y-113173748I167938J167938D01*
G01*
G37*
G36*
G01*
X130033112Y-111953988D02*
X130368988Y-111618112D01*
G75*
G02*
X130704864Y-111618112I167938J-167938D01*
G01*
X131129128Y-112042376D01*
G75*
G02*
X131129128Y-112378252I-167938J-167938D01*
G01*
X130793252Y-112714128D01*
G75*
G02*
X130457376Y-112714128I-167938J167938D01*
G01*
X130033112Y-112289864D01*
G75*
G02*
X130033112Y-111953988I167938J167938D01*
G01*
G37*
G36*
G01*
X138374000Y-94598500D02*
X138374000Y-94123500D01*
G75*
G02*
X138611500Y-93886000I237500J0D01*
G01*
X139211500Y-93886000D01*
G75*
G02*
X139449000Y-94123500I0J-237500D01*
G01*
X139449000Y-94598500D01*
G75*
G02*
X139211500Y-94836000I-237500J0D01*
G01*
X138611500Y-94836000D01*
G75*
G02*
X138374000Y-94598500I0J237500D01*
G01*
G37*
G36*
G01*
X136649000Y-94598500D02*
X136649000Y-94123500D01*
G75*
G02*
X136886500Y-93886000I237500J0D01*
G01*
X137486500Y-93886000D01*
G75*
G02*
X137724000Y-94123500I0J-237500D01*
G01*
X137724000Y-94598500D01*
G75*
G02*
X137486500Y-94836000I-237500J0D01*
G01*
X136886500Y-94836000D01*
G75*
G02*
X136649000Y-94598500I0J237500D01*
G01*
G37*
G36*
G01*
X140406000Y-72627500D02*
X140406000Y-72152500D01*
G75*
G02*
X140643500Y-71915000I237500J0D01*
G01*
X141243500Y-71915000D01*
G75*
G02*
X141481000Y-72152500I0J-237500D01*
G01*
X141481000Y-72627500D01*
G75*
G02*
X141243500Y-72865000I-237500J0D01*
G01*
X140643500Y-72865000D01*
G75*
G02*
X140406000Y-72627500I0J237500D01*
G01*
G37*
G36*
G01*
X138681000Y-72627500D02*
X138681000Y-72152500D01*
G75*
G02*
X138918500Y-71915000I237500J0D01*
G01*
X139518500Y-71915000D01*
G75*
G02*
X139756000Y-72152500I0J-237500D01*
G01*
X139756000Y-72627500D01*
G75*
G02*
X139518500Y-72865000I-237500J0D01*
G01*
X138918500Y-72865000D01*
G75*
G02*
X138681000Y-72627500I0J237500D01*
G01*
G37*
D10*
X165862000Y-124873000D03*
X165862000Y-128873000D03*
G36*
G01*
X140633000Y-55609500D02*
X140633000Y-55134500D01*
G75*
G02*
X140870500Y-54897000I237500J0D01*
G01*
X141370500Y-54897000D01*
G75*
G02*
X141608000Y-55134500I0J-237500D01*
G01*
X141608000Y-55609500D01*
G75*
G02*
X141370500Y-55847000I-237500J0D01*
G01*
X140870500Y-55847000D01*
G75*
G02*
X140633000Y-55609500I0J237500D01*
G01*
G37*
G36*
G01*
X138808000Y-55609500D02*
X138808000Y-55134500D01*
G75*
G02*
X139045500Y-54897000I237500J0D01*
G01*
X139545500Y-54897000D01*
G75*
G02*
X139783000Y-55134500I0J-237500D01*
G01*
X139783000Y-55609500D01*
G75*
G02*
X139545500Y-55847000I-237500J0D01*
G01*
X139045500Y-55847000D01*
G75*
G02*
X138808000Y-55609500I0J237500D01*
G01*
G37*
G36*
G01*
X101108500Y-56455500D02*
X101583500Y-56455500D01*
G75*
G02*
X101821000Y-56693000I0J-237500D01*
G01*
X101821000Y-57193000D01*
G75*
G02*
X101583500Y-57430500I-237500J0D01*
G01*
X101108500Y-57430500D01*
G75*
G02*
X100871000Y-57193000I0J237500D01*
G01*
X100871000Y-56693000D01*
G75*
G02*
X101108500Y-56455500I237500J0D01*
G01*
G37*
G36*
G01*
X101108500Y-54630500D02*
X101583500Y-54630500D01*
G75*
G02*
X101821000Y-54868000I0J-237500D01*
G01*
X101821000Y-55368000D01*
G75*
G02*
X101583500Y-55605500I-237500J0D01*
G01*
X101108500Y-55605500D01*
G75*
G02*
X100871000Y-55368000I0J237500D01*
G01*
X100871000Y-54868000D01*
G75*
G02*
X101108500Y-54630500I237500J0D01*
G01*
G37*
D11*
X95484000Y-70104000D03*
X92984000Y-70104000D03*
X95484000Y-66802000D03*
X92984000Y-66802000D03*
X95504000Y-63246000D03*
X93004000Y-63246000D03*
X95504000Y-59690000D03*
X93004000Y-59690000D03*
X150916000Y-53340000D03*
X153416000Y-53340000D03*
X164632000Y-53340000D03*
X167132000Y-53340000D03*
X95464000Y-102616000D03*
X92964000Y-102616000D03*
X95464000Y-99060000D03*
X92964000Y-99060000D03*
X95464000Y-95504000D03*
X92964000Y-95504000D03*
X95464000Y-91948000D03*
X92964000Y-91948000D03*
X95464000Y-88646000D03*
X92964000Y-88646000D03*
X95464000Y-85090000D03*
X92964000Y-85090000D03*
X95484000Y-128016000D03*
X92984000Y-128016000D03*
X95464000Y-124460000D03*
X92964000Y-124460000D03*
X95484000Y-120904000D03*
X92984000Y-120904000D03*
X95484000Y-117348000D03*
X92984000Y-117348000D03*
X95484000Y-114046000D03*
X92984000Y-114046000D03*
X95464000Y-110490000D03*
X92964000Y-110490000D03*
X107482000Y-54610000D03*
X109982000Y-54610000D03*
G36*
G01*
X103140500Y-56305500D02*
X103615500Y-56305500D01*
G75*
G02*
X103853000Y-56543000I0J-237500D01*
G01*
X103853000Y-57143000D01*
G75*
G02*
X103615500Y-57380500I-237500J0D01*
G01*
X103140500Y-57380500D01*
G75*
G02*
X102903000Y-57143000I0J237500D01*
G01*
X102903000Y-56543000D01*
G75*
G02*
X103140500Y-56305500I237500J0D01*
G01*
G37*
G36*
G01*
X103140500Y-54580500D02*
X103615500Y-54580500D01*
G75*
G02*
X103853000Y-54818000I0J-237500D01*
G01*
X103853000Y-55418000D01*
G75*
G02*
X103615500Y-55655500I-237500J0D01*
G01*
X103140500Y-55655500D01*
G75*
G02*
X102903000Y-55418000I0J237500D01*
G01*
X102903000Y-54818000D01*
G75*
G02*
X103140500Y-54580500I237500J0D01*
G01*
G37*
M02*
